<svg xmlns="http://www.w3.org/2000/svg"  viewBox="0 0 100 100" width="200px" height="200px" fill-rule="evenodd" clip-rule="evenodd"><path fill="#fefdef" fill-rule="evenodd" d="M75.999,28h-6.746l0,0c-0.102,0.052-0.22,0.103-0.384,0.135 c-0.734,1.052-0.292,0.535-1.585,1.413c0.003,1.763,0.053,1.952,0.461,3.513c0.01,0.037,0.005,0.074-0.016,0.107 c-0.02,0.033-0.049,0.054-0.086,0.062c-0.313,0.068-0.763,0.185-1.023,0.235c0.008,0.055,0.132,1.054-0.008,1.797 c-0.219,1.167-2.96,3.72-3.614,3.85c-0.906,0.181-1.917-0.629-3.499-1.333c-0.436-0.194-1.899-1.168-2.665-1.427 c-0.41-0.138-0.806,0.465-0.834,1.024c-0.015,0.307,0.071,0.6,0.35,0.749c0.368,0.196,0.954,0.459,1.139,0.945 c0.549,1.441-0.086,6.999-1.217,8.116c-0.537-0.004-0.988-0.503-1.387-0.373c-0.712,0.395-0.261,2.599,0,2.983 c4.379,4.564,3.859,7.944,5.718,10.468c0.848,0,0.291,0.91,0.934,1.979c0.171,0.549-0.049,1.482-0.142,1.835 c0,0.459,0,0.918,0,1.377c-0.047,0.143-0.094,0.287-0.142,0.43c0,0.402,0,0.803,0,1.204c-0.13,0.587-0.273,1.373-0.396,1.922 c-0.259,1.156,0.744,2.055,0.141,3.155c0,0.676,0.002,0.542-0.396,1.09c0,1.05-0.244,3.262,0,4.044 c0.17,0.544,2.116,2.848,2.604,3.069c1.177,0.531,2.912,0.417,2.35,2.294c-3.445,1.071-5.644-0.604-7.48-0.631l-0.086,0.32 c-1.175,0.002-2.114-0.291-2.37-0.377c-0.002-0.322,0.38-2.789,0.509-3.183c0.132-0.21,0.265-0.421,0.396-0.631 c0.143-0.42-0.145-3.501-0.17-4.331c-0.734-0.546-0.878-2.211-0.878-3.126c-0.212-0.708-0.212-1.547-0.255-2.466 c-0.02-0.431-0.274-1.065-0.113-1.606c0.109-0.369,0.521-0.53,0.623-0.832c0-0.344,0-0.688,0-1.032 c0.194-1.086,0.133-1.587-0.509-2.237c-1.611,0.021-1.833,0.1-2.718-1.291c-0.275-0.432-2.528-4.033-2.746-4.13 c-1.875-0.829-1.501-0.506-2.321-1.979c-0.034,0.001-0.533,0.169-0.974,0.837c-0.67,1.015-1.858,4.315-2.197,5.472 c-0.189,0.645,0.001,1.359-0.283,1.893c-0.206,0.387-0.875,0.511-1.019,0.774c-0.657,1.199-0.165,1.105-1.416,1.95 c-0.225,0.294-0.232,0.735-0.396,1.09c-0.094,0.134-0.189,0.268-0.283,0.402c-0.211,0.458,0.224,1.292,0.141,1.577 c-0.216,0.751-0.502,1.51-0.793,2.208c-0.573,1.378-0.499,3.209-1.077,4.056c-0.29,0.426-0.993,0.011-1.528,0.36 c-0.031,0.296-0.881,2.264-1.047,2.811c0,1.042,0,2.084,0,3.126c0.16,0.527,0.598,1.029,0.468,1.695 c-0.139,0.71-2.577,0.699-3.9,0.506c-0.886-0.129-1.151-0.791-1.137-1.555c0.017-0.903,1.819-6.767,1.71-7.156 c-1.368-1.559,0.366-3.164,0.878-4.617c0.25-0.709,0.096-1.697,0.368-2.351c0.481-0.889,0.962-1.778,1.444-2.667 c0.877-0.84,0.487-0.882,0.962-1.635c0.412-0.653,0.913-1.093,0.623-2.093c-0.583-2.012,0.681-4.864,0.764-6.969 c-0.224-0.239-0.984-0.163-1.08-0.805c-0.194-1.307,0.489-3.62,0.91-3.84c0.187-0.098,0.4-0.011,0.566-0.115 c0-0.981-0.962-6.435-0.231-6.711c0.451-0.17,1.486-0.26,1.685-0.351c-0.012-0.233-0.169-0.729-0.36-0.756 c-0.321-0.045-0.98-0.171-1.504-0.294c-1.608-0.376-0.12-6.699-0.1-6.725C38.847,34.962,39.426,34.997,40,35 c0.629,0.003,1.252-0.03,1.382-0.558c0.687-0.887-0.53-4.408,1.814-8.613c0.791-1.42,2.307-2.854,4.074-2.246 c0.592,0.204,0.363,1.066,1.404,0.143c0.026-0.538-0.221-0.989-0.368-1.434c-0.242-0.731-0.335-1.414-0.306-2.042 c0.179-3.866,4.882-5.605,8.413-3.034c0.462,0.189,0.73,0.283,1.076,0.545c0.226,1.184,1.385,3.291,0.226,4.675 c-0.474,0.103-1.055,0.371-1.415,0.631c-0.006,0.478,0.055,0.169,0.141,0.454c0.078,0.257,0.226,0.359-0.156,0.516 c-0.048,0.02-0.027,0.18-0.001,0.24c0.958,0.191,1.979-0.18,2.62-0.441h0.765V22.86h0.198h0.167V22H60.4v1.417h0.954L61.375,24H76 L75.999,28z" clip-rule="evenodd"/><path fill="#f9b621" fill-rule="evenodd" d="M9.5,67.5v-15h19l0,0c0-2.761-2.239-5-5-5h-16 c-2.761,0-5,2.239-5,5v15c0,2.761,2.239,5,5,5h16c2.761,0,5-2.239,5-5l0,0H9.5z" clip-rule="evenodd"/><path fill="#f9b621" fill-rule="evenodd" d="M76.5,57.5v-5h20c0-2.761-2.239-5-5-5h-16 c-2.761,0-5,2.239-5,5v5c0,2.761,2.239,5,5,5h16v5h-21c0,2.761,2.239,5,5,5h17c2.761,0,5-2.239,5-5v-5c0-2.761-2.239-5-5-5H76.5z" clip-rule="evenodd"/><g><path fill="#1f212b" d="M84,25h-1.219c-0.158-0.104-0.347-0.165-0.55-0.165h-0.624c-0.316,0-0.598,0.146-0.781,0.376H78.73 v-1.015c0-0.553-0.448-1-1-1h-0.205V22c0-0.553-0.448-1-1-1H76c-0.552,0-1,0.447-1,1v1H62.263c-0.152-0.332-0.48-0.564-0.863-0.582 V22c0-0.553-0.448-1-1-1h-0.365c-0.358,0-0.673,0.188-0.85,0.472c0.15-1.091-0.206-2.212-0.472-3.049 c-0.1-0.315-0.195-0.604-0.242-0.85c-0.046-0.243-0.182-0.46-0.379-0.609c-0.413-0.312-0.757-0.453-1.156-0.615L56.9,16.334 c-1.23-0.865-2.638-1.316-4.024-1.334c-0.971-0.013-1.931,0.186-2.811,0.607c-1.826,0.876-2.971,2.595-3.064,4.596 c-0.035,0.758,0.079,1.55,0.34,2.356c-2.221-0.601-4.08,1.097-5.019,2.783c-1.643,2.947-1.667,5.543-1.684,7.261 c-0.005,0.495-0.011,1.111-0.047,1.227c-0.037,0.048-0.069,0.099-0.096,0.151c-0.091,0.012-0.244,0.021-0.49,0.019l-0.151-0.001 c-0.678-0.012-1.523-0.016-2.014,0.642c-0.362,0.477-1.251,5.267-0.604,7.062c0.208,0.579,0.538,0.896,0.836,1.068 c-0.62,0.719-0.497,2.38-0.089,5.745c0.034,0.28,0.068,0.564,0.097,0.815c-1.051,0.612-1.583,3.607-1.398,4.853 c0.111,0.748,0.609,1.106,1.005,1.289c-0.078,0.55-0.212,1.154-0.352,1.783c-0.365,1.642-0.743,3.34-0.309,4.834 c0.106,0.366,0.048,0.466-0.275,0.935c-0.077,0.111-0.156,0.226-0.232,0.347c-0.26,0.412-0.346,0.705-0.402,0.898 c-0.043,0.146-0.064,0.22-0.407,0.548c-0.075,0.072-0.138,0.155-0.188,0.246l-1.444,2.667c-0.016,0.03-0.031,0.062-0.044,0.093 c-0.204,0.49-0.239,1.033-0.27,1.513c-0.021,0.333-0.043,0.677-0.119,0.891c-0.109,0.31-0.311,0.668-0.524,1.048 c-0.6,1.064-1.483,2.633-0.45,4.186c-0.123,0.58-0.458,1.823-0.715,2.774c-0.641,2.378-0.944,3.555-0.955,4.078 c-0.027,1.419,0.717,2.378,1.993,2.564C33.385,84.936,34.097,85,34.866,85c1.372,0,2.923-0.25,3.154-1.425 c0.153-0.782-0.145-1.411-0.342-1.827c-0.037-0.078-0.076-0.155-0.107-0.232v-2.793c0.088-0.249,0.247-0.645,0.408-1.05 c0.19-0.478,0.324-0.819,0.419-1.074c0.004,0,0.008,0,0.012,0c0.356,0.004,1.102,0.029,1.562-0.644 c0.43-0.631,0.572-1.472,0.723-2.362c0.111-0.654,0.225-1.332,0.451-1.874c0.358-0.859,0.629-1.616,0.831-2.316 c0.107-0.375,0.017-0.733-0.07-1.08c-0.027-0.108-0.069-0.272-0.085-0.383l0.153-0.218c0.034-0.049,0.063-0.1,0.088-0.153 c0.093-0.201,0.155-0.422,0.211-0.641c0.015-0.057,0.033-0.131,0.048-0.187c0.789-0.555,0.989-0.848,1.208-1.454 c0.054-0.148,0.114-0.314,0.238-0.557c0.028-0.015,0.059-0.03,0.089-0.046c0.3-0.158,0.753-0.397,1.011-0.881 c0.268-0.504,0.284-1.032,0.298-1.457c0.007-0.237,0.014-0.463,0.062-0.625c0.34-1.159,1.372-3.971,1.96-5.017 c0.351,0.506,0.687,0.68,1.568,1.06l0.409,0.177c0.215,0.286,0.793,1.135,2.338,3.583l0.16,0.253 c1.029,1.617,1.645,1.795,3.099,1.759c0.096,0.189,0.096,0.447-0.013,1.056c-0.01,0.058-0.016,0.117-0.016,0.176v0.7 c-0.179,0.172-0.454,0.449-0.581,0.88c-0.178,0.598-0.065,1.178,0.018,1.601c0.024,0.122,0.051,0.236,0.055,0.336l0.018,0.414 c0.03,0.755,0.059,1.47,0.237,2.146c0.012,0.98,0.162,2.509,0.896,3.416c0.015,0.247,0.036,0.552,0.059,0.884 c0.056,0.806,0.156,2.266,0.147,2.639l-0.299,0.475c-0.043,0.069-0.079,0.144-0.104,0.222c-0.163,0.497-0.562,3.085-0.56,3.501 c0.002,0.428,0.276,0.806,0.682,0.942c0.385,0.129,1.414,0.429,2.677,0.429c0.268,0.029,0.49-0.09,0.671-0.248 c0.338,0.068,0.712,0.179,1.122,0.298c0.951,0.279,2.129,0.604,3.541,0.597c0.776-0.004,1.622-0.094,2.541-0.38 c0.318-0.099,0.566-0.35,0.661-0.668c0.228-0.761,0.196-1.416-0.095-1.95c-0.449-0.824-1.34-1.084-2.057-1.292 c-0.253-0.074-0.512-0.146-0.683-0.218c-0.413-0.276-1.931-2.072-2.123-2.488c-0.116-0.37-0.045-1.687-0.004-2.473 c0.018-0.337,0.035-0.656,0.043-0.933c0.322-0.431,0.389-0.66,0.4-1.199c0.369-0.872,0.142-1.65-0.027-2.232 c-0.121-0.416-0.192-0.684-0.136-0.935c0.063-0.282,0.131-0.626,0.201-0.975c0.066-0.329,0.132-0.663,0.195-0.948 c0.016-0.071,0.024-0.144,0.024-0.217v-1.044l0.092-0.28c0.033-0.101,0.049-0.205,0.049-0.311v-1.252 c0.235-0.952,0.267-1.712,0.096-2.259c-0.023-0.076-0.056-0.148-0.097-0.216c-0.17-0.284-0.203-0.561-0.237-0.854 c-0.039-0.331-0.144-1.226-0.962-1.518c-0.473-0.75-0.771-1.623-1.11-2.614c-0.695-2.032-1.558-4.556-4.373-7.529 c-0.097-0.254-0.19-0.771-0.21-1.181c0.217,0.083,0.472,0.151,0.763,0.153c0.28,0.031,0.521-0.102,0.71-0.289 c1.505-1.486,2.105-7.461,1.449-9.183c-0.088-0.231-0.213-0.428-0.358-0.597c0.041,0.023,0.081,0.047,0.119,0.069 c0.394,0.232,0.73,0.427,0.908,0.506c0.456,0.202,0.862,0.415,1.231,0.607c1.015,0.529,1.891,0.986,2.871,0.792 c1.062-0.213,4.108-3.09,4.4-4.646c0.074-0.394,0.089-0.827,0.082-1.198c0.061-0.015,0.118-0.027,0.169-0.038 c0.312-0.065,0.574-0.252,0.739-0.525c0.16-0.267,0.205-0.578,0.126-0.879c-0.352-1.345-0.414-1.581-0.425-2.72 c0.113-0.07,0.201-0.123,0.271-0.165c0.466-0.279,0.567-0.396,0.928-0.921h5.891c0.493,0,0.885-0.364,0.966-0.834h1.39 c0.317,0,0.599-0.147,0.782-0.377h2.313c0.183,0.229,0.465,0.376,0.781,0.376h0.624c0.204,0,0.393-0.061,0.55-0.165H84 c0.552,0,1-0.447,1-1v-1C85,25.447,84.552,25,84,25z M69.253,27c-0.157,0-0.311,0.037-0.451,0.107 c-0.056,0.028-0.081,0.037-0.12,0.045c-0.256,0.049-0.484,0.196-0.633,0.41l-0.212,0.306c-0.096,0.14-0.147,0.222-0.166,0.249 c-0.036,0.026-0.08,0.051-0.141,0.087c-0.164,0.099-0.408,0.244-0.809,0.517c-0.275,0.187-0.439,0.497-0.438,0.829 c0.002,1.454,0.039,1.926,0.275,2.906c-0.046,0.011-0.088,0.02-0.126,0.026c-0.521,0.1-0.873,0.593-0.803,1.118 c0.03,0.225,0.094,0.979,0,1.476c-0.144,0.7-2.304,2.815-2.827,3.055c-0.284,0.045-0.902-0.264-1.554-0.604 c-0.403-0.21-0.846-0.44-1.345-0.662c-0.14-0.062-0.397-0.219-0.704-0.399c-0.685-0.405-1.462-0.863-2.046-1.061 c-0.417-0.143-0.875-0.074-1.253,0.185c-0.511,0.348-0.864,1.029-0.9,1.737c-0.037,0.752,0.284,1.365,0.88,1.681l0.118,0.062 c0.148,0.077,0.496,0.258,0.556,0.356c0.411,1.08-0.076,5.078-0.704,6.572c-0.326-0.148-0.77-0.303-1.278-0.135 c-0.06,0.02-0.118,0.045-0.173,0.075c-0.282,0.156-0.651,0.485-0.812,1.164c-0.25,1.051,0.107,2.723,0.471,3.257 c0.031,0.046,0.066,0.089,0.104,0.129c2.593,2.703,3.356,4.934,4.029,6.901c0.422,1.235,0.821,2.402,1.606,3.467 c0.094,0.128,0.229,0.23,0.378,0.3c0.043,0.365,0.114,0.883,0.418,1.452c0.018,0.159,0.008,0.549-0.167,1.217 c-0.021,0.083-0.032,0.168-0.032,0.253v1.217l-0.091,0.276c-0.033,0.102-0.05,0.207-0.05,0.313v1.097 c-0.059,0.272-0.12,0.579-0.181,0.883c-0.066,0.332-0.131,0.659-0.191,0.928c-0.172,0.767,0.016,1.412,0.167,1.931 c0.154,0.53,0.197,0.735,0.073,0.963c-0.081,0.147-0.123,0.325-0.123,0.493c0,0.089,0.001,0.158,0,0.215 c-0.008,0.011-0.018,0.022-0.027,0.035l-0.178,0.238c-0.125,0.171-0.191,0.377-0.191,0.588c0,0.309-0.022,0.721-0.046,1.167 c-0.077,1.441-0.115,2.513,0.092,3.175c0.239,0.765,2.348,3.321,3.148,3.684c0.338,0.151,0.694,0.256,1.008,0.347 c0.231,0.067,0.586,0.171,0.762,0.259c-1.683,0.343-3.029-0.052-4.232-0.404c-0.771-0.226-1.498-0.439-2.242-0.45 c-0.296,0.006-0.533,0.105-0.719,0.29c-0.241-0.023-0.464-0.058-0.659-0.096c0.102-0.705,0.26-1.672,0.343-2.03l0.317-0.504 c0.042-0.066,0.075-0.137,0.1-0.211c0.133-0.392,0.125-1.041-0.043-3.476c-0.036-0.515-0.067-0.961-0.074-1.205 c-0.009-0.306-0.157-0.591-0.403-0.773c-0.166-0.123-0.474-0.931-0.474-2.323c0-0.097-0.014-0.193-0.042-0.287 c-0.143-0.478-0.167-1.09-0.196-1.799l-0.018-0.428c-0.009-0.184-0.046-0.397-0.09-0.625c-0.043-0.22-0.102-0.521-0.103-0.565 c0.032-0.042,0.074-0.076,0.111-0.111c0.164-0.158,0.413-0.396,0.539-0.769c0.035-0.104,0.053-0.212,0.053-0.32v-0.945 c0.209-1.229,0.133-2.086-0.798-3.027c-0.191-0.193-0.429-0.282-0.724-0.297l-0.236,0.004c-1.083,0.018-1.084,0.017-1.624-0.831 l-0.156-0.246c-2.557-4.052-2.676-4.104-3.03-4.262l-0.619-0.269c-0.702-0.302-0.702-0.302-0.971-0.802l-0.262-0.479 c-0.176-0.317-0.511-0.514-0.874-0.514c-0.477,0-1.251,0.441-1.809,1.286c-0.804,1.219-2.039,4.777-2.322,5.742 c-0.119,0.407-0.131,0.788-0.141,1.124c-0.006,0.182-0.013,0.4-0.043,0.521c-0.055,0.034-0.139,0.078-0.2,0.11 c-0.278,0.146-0.625,0.329-0.835,0.712c-0.251,0.459-0.365,0.771-0.44,0.979c-0.023,0.065-0.036,0.119-0.065,0.168 c-0.016,0.024-0.107,0.128-0.593,0.455c-0.09,0.061-0.169,0.136-0.234,0.221c-0.257,0.336-0.348,0.695-0.422,0.984 c-0.02,0.076-0.036,0.154-0.062,0.229l-0.219,0.311c-0.035,0.05-0.066,0.104-0.091,0.158c-0.272,0.592-0.113,1.221,0.002,1.68 c0.016,0.064,0.033,0.126,0.045,0.181c-0.176,0.587-0.41,1.229-0.714,1.96c-0.312,0.752-0.453,1.578-0.576,2.309 c-0.081,0.477-0.17,1.003-0.292,1.339c-0.335-0.013-0.859-0.012-1.359,0.315c-0.252,0.164-0.405,0.361-0.436,0.66 c-0.043,0.175-0.327,0.888-0.515,1.359c-0.219,0.55-0.43,1.085-0.506,1.336c-0.029,0.095-0.043,0.193-0.043,0.292v3.126 c0,0.099,0.015,0.196,0.043,0.29c0.063,0.209,0.158,0.417,0.257,0.627c0.056,0.119,0.103,0.219,0.136,0.305 c-0.562,0.114-1.717,0.138-2.724-0.009C33.113,82.878,32.99,82.86,33,82.361c0.02-0.39,0.542-2.322,0.886-3.601 c0.859-3.185,0.899-3.451,0.787-3.851c-0.04-0.144-0.112-0.276-0.21-0.389c-0.462-0.526-0.322-0.979,0.4-2.261 c0.247-0.438,0.501-0.891,0.668-1.365s0.199-0.98,0.228-1.427c0.02-0.318,0.041-0.646,0.106-0.837l1.342-2.478 c0.578-0.579,0.714-0.929,0.828-1.32c0.04-0.135,0.063-0.217,0.173-0.39c0.061-0.097,0.125-0.188,0.187-0.277 c0.39-0.565,0.925-1.338,0.551-2.629c-0.291-1.003,0.03-2.447,0.341-3.844c0.21-0.943,0.427-1.919,0.462-2.807 c0.011-0.268-0.086-0.527-0.269-0.723c-0.254-0.272-0.568-0.373-0.797-0.446c-0.014-0.005-0.029-0.009-0.043-0.014 c-0.051-0.829,0.266-2.055,0.498-2.577c0.155-0.022,0.345-0.072,0.538-0.193c0.292-0.183,0.47-0.503,0.47-0.848 c0-0.322-0.064-0.868-0.178-1.807c-0.121-0.995-0.383-3.164-0.323-4.059c0.167-0.031,0.352-0.062,0.488-0.083 c0.456-0.073,0.684-0.112,0.887-0.206c0.371-0.172,0.6-0.551,0.579-0.959c-0.021-0.427-0.283-1.564-1.216-1.694 c-0.273-0.039-0.806-0.14-1.27-0.244c-0.323-0.718,0.011-3.421,0.37-5.031c0.117-0.003,0.248-0.002,0.353,0L39.994,36 c0.522-0.004,1.881,0.012,2.3-1.124c0.328-0.558,0.335-1.284,0.345-2.254c0.015-1.604,0.036-3.803,1.431-6.307 c0.13-0.234,1.3-2.234,2.787-1.814c0.002,0.004,0.005,0.009,0.01,0.015c0.126,0.169,0.421,0.565,0.981,0.622 c0.579,0.06,1.062-0.283,1.49-0.663c0.201-0.179,0.322-0.431,0.335-0.699c0.03-0.619-0.161-1.117-0.315-1.518 c-0.036-0.095-0.072-0.188-0.103-0.28c-0.195-0.589-0.281-1.154-0.256-1.682c0.059-1.272,0.763-2.324,1.931-2.886 c1.507-0.721,3.382-0.487,4.895,0.614c0.065,0.047,0.135,0.086,0.209,0.116l0.15,0.062c0.185,0.075,0.316,0.128,0.429,0.186 c0.056,0.2,0.123,0.415,0.194,0.641c0.338,1.064,0.576,1.945,0.285,2.543c-0.484,0.159-1,0.412-1.377,0.684 c-0.257,0.186-0.411,0.482-0.415,0.799c-0.001,0.143-0.004,0.358,0.062,0.578c-0.008,0.018-0.016,0.035-0.023,0.053 c-0.144,0.354-0.074,0.756,0.028,0.992c0.131,0.3,0.4,0.518,0.722,0.581c1.104,0.221,2.214-0.111,3.007-0.422h0.573 c0.329,0,0.621-0.159,0.803-0.404C60.634,24.769,60.979,25,61.375,25H75v1.91c0,0.032,0.017,0.059,0.021,0.09H69.253z"/><path fill="#1f212b" d="M23.5,73h-16C4.467,73,2,70.532,2,67.5v-15C2,49.468,4.467,47,7.5,47h16c3.033,0,5.5,2.468,5.5,5.5 c0,0.276-0.224,0.5-0.5,0.5H10v14h18.5c0.276,0,0.5,0.224,0.5,0.5C29,70.532,26.533,73,23.5,73z M7.5,48C5.019,48,3,50.019,3,52.5 v15C3,69.981,5.019,72,7.5,72h16c2.312,0,4.223-1.753,4.472-4H9.5C9.224,68,9,67.776,9,67.5v-15C9,52.224,9.224,52,9.5,52h18.472 c-0.25-2.247-2.16-4-4.472-4H7.5z"/><path fill="#1f212b" d="M92.5,73h-17c-3.033,0-5.5-2.468-5.5-5.5c0-0.276,0.224-0.5,0.5-0.5H91v-4H75.5 c-3.033,0-5.5-2.468-5.5-5.5v-5c0-3.032,2.467-5.5,5.5-5.5h16c3.033,0,5.5,2.468,5.5,5.5c0,0.276-0.224,0.5-0.5,0.5H77v4h15.5 c3.033,0,5.5,2.468,5.5,5.5v5C98,70.532,95.533,73,92.5,73z M71.028,68c0.25,2.247,2.16,4,4.472,4h17c2.481,0,4.5-2.019,4.5-4.5v-5 c0-2.481-2.019-4.5-4.5-4.5h-16c-0.276,0-0.5-0.224-0.5-0.5v-5c0-0.276,0.224-0.5,0.5-0.5h19.472c-0.25-2.247-2.16-4-4.472-4h-16 c-2.481,0-4.5,2.019-4.5,4.5v5c0,2.481,2.019,4.5,4.5,4.5h16c0.276,0,0.5,0.224,0.5,0.5v5c0,0.276-0.224,0.5-0.5,0.5H71.028z"/><path fill="#1f212b" d="M64.58,28.19c-0.365-0.259-1.478-0.295-1.979,0.123c-0.272,0.229-0.363,0.557-0.238,0.951 c-0.038,0.001-0.082,0.003-0.134,0.001c-0.137-0.005-0.265,0.048-0.36,0.143c-0.096,0.094-0.15,0.223-0.15,0.357v0.365 c0,0.003,0.002,0.005,0.002,0.008H61.5c-0.142,0-0.277,0.061-0.372,0.166s-0.141,0.246-0.125,0.387 c0.072,0.682,0.585,1.51,0.974,2.088C62.069,32.917,62.225,33,62.392,33c0,0,0.001,0,0.002,0c0.636-0.003,1.147-0.799,1.748-1.84 l0.152-0.259c0.06-0.097,0.071-0.207,0.058-0.317c0.097-0.038,0.184-0.095,0.242-0.185C64.967,29.813,65.292,28.696,64.58,28.19z"/></g></svg>