<svg width="255" height="257" viewBox="0 0 255 257" fill="none" xmlns="http://www.w3.org/2000/svg">
<g clip-path="url(#clip0_5_2)">
<path fill-rule="evenodd" clip-rule="evenodd" d="M123.42 0.145386C121.51 0.669962 119.567 1.10605 117.591 1.45364C115.314 2.22065 113.031 3.14127 110.743 4.21552C110.144 4.11435 109.561 4.30815 108.994 4.79697C108.897 4.70007 108.8 4.60314 108.703 4.50625C108.557 4.84543 108.314 5.08769 107.974 5.23306C106.871 5.3515 105.803 5.59376 104.769 5.95987C110.482 2.5348 116.699 0.596642 123.42 0.145386Z" fill="#DBB57E"/>
<path fill-rule="evenodd" clip-rule="evenodd" d="M124.003 9.44854C129.284 8.99416 134.53 9.28489 139.74 10.3207C140.794 10.753 141.862 11.1406 142.946 11.4836C148.037 14.6779 151.583 19.1356 153.583 24.8569C155.391 31.0447 157.431 37.1499 159.703 43.1725C162.886 49.2324 165.994 55.3376 169.029 61.4881C169.747 63.2104 170.378 64.9547 170.923 66.7212C171.62 69.3409 172.348 71.9574 173.109 74.5707C174.521 84.7615 176.804 94.7429 179.957 104.515C177.69 101.553 175.698 98.3545 173.983 94.9214C169.64 88.8441 165.074 82.9328 160.286 77.1872C151.246 66.9639 141.969 56.9339 132.454 47.0973C131.04 45.8312 129.583 44.6197 128.083 43.4632C123.843 46.6734 119.909 50.2592 116.28 54.22C111.214 59.9711 106.357 65.8824 101.709 71.9542C92.382 81.7783 84.2703 92.4383 77.3743 103.934C79.2269 96.6483 81.3639 89.4773 83.7857 82.4203C83.9576 82.7883 84.1034 83.1758 84.2228 83.5832C89.644 73.3505 95.0841 63.0784 100.543 52.7664C102.506 49.1405 104.692 45.6518 107.1 42.3003C107.051 42.2035 107.003 42.1064 106.954 42.0096C100.761 50.1984 95.0783 58.7265 89.9057 67.5933C89.7069 67.3773 89.5126 67.1837 89.3228 67.0119C90.1383 64.9614 91.0125 62.9263 91.9457 60.9067C91.8449 60.559 91.6991 60.559 91.5086 60.9067C87.2974 68.6277 83.6546 76.5741 80.58 84.746C80.4914 84.5571 80.3943 84.3632 80.2886 84.1646C80.6117 83.6166 80.8548 83.0351 81.0171 82.4203C81.4199 78.4836 81.9541 74.6073 82.62 70.7913C84.2683 65.0323 85.7254 59.024 86.9914 52.7664C86.9427 52.5725 86.8944 52.3789 86.8457 52.185C85.6552 54.541 84.7323 56.9636 84.0771 59.4531C83.9699 55.8359 84.3584 52.2501 85.2428 48.6963C85.8443 47.4796 86.3302 46.026 86.7 44.3354C89.1296 36.8301 93.1612 30.3371 98.7943 24.8569C97.8457 26.9473 96.8743 29.0794 95.88 31.2528C95.497 32.0055 95.3027 32.7809 95.2971 33.5786C98.7508 29.0676 102.685 25.0459 107.1 21.5136C108.122 20.8583 109.19 20.2768 110.306 19.7692C107.328 20.1295 104.511 21.0501 101.854 22.5311C101.757 22.4827 101.66 22.4342 101.563 22.3858C108.412 16.2784 115.892 11.966 124.003 9.44854Z" fill="#0D2F3F"/>
<path opacity="0.991" fill-rule="evenodd" clip-rule="evenodd" d="M123.42 -0.145386C126.82 -0.145386 130.22 -0.145386 133.62 -0.145386C138.711 0.732836 143.86 1.5081 149.065 2.18041C151.636 2.03636 153.967 1.26109 156.06 -0.145386C156.837 -0.145386 157.614 -0.145386 158.391 -0.145386C160.972 1.21596 163.06 3.15413 164.657 5.66909C173.898 18.8291 179.872 33.3652 182.58 49.2777C195.691 49.8577 208.902 50.0516 222.214 49.8591C222.928 49.9679 223.219 50.404 223.088 51.1674C223.05 51.8224 222.904 52.4521 222.651 53.0571C216.639 63.795 210.713 74.5518 204.874 85.3275C204.68 85.715 204.68 86.1028 204.874 86.4904C208.571 83.6433 212.602 83.1104 216.968 84.8914C224.145 89.0226 226.136 94.8853 222.943 102.48C221.965 104.43 220.702 106.174 219.154 107.713C218.936 108.043 218.984 108.334 219.3 108.585C228.633 114.404 237.668 120.654 246.403 127.337C249.228 129.133 252.045 130.926 254.854 132.715C254.854 132.812 254.854 132.909 254.854 133.006C248.37 136.225 241.862 139.326 235.328 142.309C234.078 143.411 232.863 144.574 231.685 145.798C228.923 149.714 226.349 153.735 223.963 157.863C226.141 160.427 227.841 163.286 229.063 166.439C229.19 168.001 229.19 169.551 229.063 171.091C234.044 176.544 238.221 182.553 241.594 189.116C243.543 193.318 244.126 197.679 243.343 202.199C243.197 202.344 243.051 202.489 242.905 202.635C241.74 202.829 240.574 202.829 239.408 202.635C231.405 200.476 223.293 198.877 215.074 197.838C214.524 197.924 213.989 198.069 213.471 198.274C212.697 199.488 211.822 200.602 210.848 201.617C209.573 201.143 209.087 201.628 209.391 203.071C208.568 202.949 207.937 203.24 207.497 203.943C206.738 202.619 205.718 202.425 204.437 203.361C204.204 203.229 204.107 203.035 204.145 202.78C206.174 199.948 208.311 197.186 210.557 194.494C211.253 193.953 212.03 193.566 212.888 193.331C217.017 193.145 221.097 193.533 225.128 194.494C229.727 195.472 234.293 196.586 238.825 197.838C239.02 197.741 239.214 197.644 239.408 197.547C238.738 193.264 237.233 189.291 234.891 185.627C231.797 181.474 228.591 177.404 225.274 173.417C224.778 172.719 224.536 171.944 224.545 171.091C225.005 169.869 225.15 168.609 224.983 167.312C222.621 162.433 219.367 158.217 215.22 154.665C205.391 146.419 194.997 138.958 184.037 132.279C185.205 131.214 186.468 130.293 187.825 129.518C194.071 133.854 200.288 138.263 206.477 142.745C211.267 146.409 215.93 150.237 220.465 154.229C223.775 149.908 226.98 145.499 230.083 141.001C237.446 138.746 244.635 136.033 251.648 132.861C240.64 127.032 230.052 120.539 219.883 113.382C217.347 111.73 214.724 110.228 212.014 108.876C211.955 108.152 212.101 107.474 212.451 106.841C214.103 105.387 215.754 103.934 217.405 102.48C221.557 97.407 220.925 92.9976 215.511 89.2522C212.742 87.8347 210.022 87.9318 207.351 89.543C205.937 90.8091 204.479 92.0205 202.98 93.177C202.449 92.8145 201.866 92.6206 201.231 92.5956C201.277 92.9947 201.228 93.3826 201.085 93.7585C200.684 94.1088 200.345 94.4963 200.065 94.9214C199.206 95.3909 198.429 95.9723 197.734 96.6657C197.368 96.5482 197.028 96.3543 196.714 96.0843C195.19 96.5538 194.462 95.9723 194.528 94.3399C195.1 93.6239 195.731 92.9453 196.423 92.3048C203.086 79.5423 209.934 66.8959 216.968 54.3654C205.601 54.1232 194.236 54.1714 182.871 54.5107C183.271 56.8194 183.562 59.1452 183.745 61.4881C183.868 63.37 183.674 65.2111 183.163 67.0119C182.968 66.7211 182.774 66.4304 182.58 66.1397C182.241 67.0104 181.901 67.8826 181.56 68.7562C181.414 68.3201 181.268 67.884 181.123 67.4479C181.666 66.6531 182.055 65.7809 182.288 64.8314C181.955 63.8874 181.664 63.9357 181.414 64.9768C181.073 64.0252 181.171 63.1048 181.705 62.2149C181.267 60.9456 181.024 59.6373 180.977 58.2901C180.64 58.7242 180.397 58.6756 180.248 58.1448C180.291 57.9203 180.388 57.7264 180.54 57.5633C180.226 57.3674 180.031 57.0767 179.957 56.6912C180.266 54.4191 179.926 52.1419 178.937 49.8591C178.84 50.3438 178.743 50.8281 178.645 51.3128C178.578 50.9531 178.432 50.6624 178.208 50.4406C176.175 38.395 172.143 27.0567 166.114 16.4259C164.486 13.8573 162.932 11.2408 161.451 8.57633C160.329 6.82429 158.823 5.56449 156.934 4.79692C155.726 5.25435 154.56 5.78733 153.437 6.3959C151.799 6.68166 150.148 6.82702 148.483 6.83199C142.94 6.2658 137.403 5.63592 131.871 4.94228C112.561 4.27656 97.9408 12.1746 88.0112 28.6363C84.76 34.2525 82.5743 40.2606 81.4541 46.6612C81.1626 46.6612 80.8712 46.6612 80.5798 46.6612C80.6232 46.3553 80.5748 46.0646 80.4341 45.789C80.2884 46.5158 80.1426 47.2426 79.9969 47.9694C80.1467 49.2876 80.2438 50.5958 80.2884 51.8942C79.9969 51.8942 79.7055 51.8942 79.4141 51.8942C79.6128 53.7336 79.6612 55.5751 79.5598 57.418C79.4627 56.9333 79.3654 56.449 79.2684 55.9643C79.1296 57.3357 79.1296 58.6922 79.2684 60.0345C78.9148 58.5274 78.6718 56.9766 78.5398 55.3829C78.4427 55.189 78.3454 54.9954 78.2484 54.8014C77.9252 55.1183 77.6337 55.1183 77.3741 54.8014C77.8858 54.3098 78.0315 53.7284 77.8112 53.0571C77.314 53.6981 76.8769 54.3764 76.4998 55.0922C76.3039 54.6709 76.1096 54.2834 75.9169 53.9293C75.6267 53.5906 75.2382 53.3967 74.7512 53.3478C74.3537 53.5057 73.9652 53.5542 73.5855 53.4932C73.7187 53.3728 73.816 53.2275 73.8769 53.0571C73.5791 52.8088 73.3363 52.5181 73.1484 52.1849C72.68 53.0405 72.0972 53.8159 71.3998 54.5107C71.3027 54.3168 71.2054 54.1232 71.1084 53.9293C70.9626 54.4622 70.6225 54.8014 70.0884 54.9468C70.3844 55.0977 70.5785 55.3402 70.6712 55.6736C70.1997 56.8173 69.6168 56.9627 68.9226 56.1097C68.9113 55.7478 69.0086 55.3602 69.2141 54.9468C69.096 54.6721 68.9017 54.4782 68.6312 54.3654C68.8256 54.2685 69.0197 54.1714 69.2141 54.0746C68.7865 53.4391 68.2037 53.2455 67.4655 53.4932C67.7324 53.574 67.9265 53.7194 68.0484 53.9293C57.6502 53.9598 47.3528 54.2505 37.1569 54.8014C36.8885 54.3709 36.5484 53.9833 36.1369 53.6386C35.9912 53.7354 35.8455 53.8325 35.6998 53.9293C35.9874 55.0535 35.8417 55.0535 35.2626 53.9293C35.1656 54.22 35.0683 54.5107 34.9712 54.8014C34.6276 53.6798 34.0934 52.6623 33.3684 51.7488C33.5627 51.4581 33.7568 51.1674 33.9512 50.8767C33.5887 50.7441 33.3459 50.8895 33.2226 51.3128C33.0819 51.0372 33.0335 50.7464 33.0769 50.4406C32.7703 50.4839 32.4789 50.4356 32.2026 50.2952C32.2997 50.1984 32.397 50.1013 32.4941 50.0045C47.1145 49.9559 61.6859 49.8106 76.2084 49.5684C77.662 40.7557 80.5276 32.4215 84.8055 24.5662C89.1481 18.1831 94.4425 12.7078 100.688 8.14025C102.022 7.33834 103.382 6.61153 104.768 5.95982C105.802 5.59371 106.871 5.35145 107.974 5.23301C108.314 5.08765 108.557 4.84539 108.703 4.5062C108.8 4.6031 108.897 4.70002 108.994 4.79692C109.561 4.3081 110.144 4.1143 110.743 4.21547C113.031 3.14122 115.314 2.2206 117.591 1.4536C119.567 1.106 121.509 0.669915 123.42 0.145338C123.42 0.0484303 123.42 -0.0484779 123.42 -0.145386Z" fill="#F1C07E"/>
<path opacity="0.275" fill-rule="evenodd" clip-rule="evenodd" d="M182.58 49.2777C195.82 49.4702 209.031 49.6638 222.214 49.8592C208.902 50.0516 195.691 49.8577 182.58 49.2777Z" fill="#846A52"/>
<path fill-rule="evenodd" clip-rule="evenodd" d="M178.209 50.4407C179.202 60.6352 180.367 70.8105 181.706 80.9667C181.23 80.8722 180.939 80.5815 180.831 80.0945C180.463 78.3752 179.977 76.7762 179.374 75.2976C179.632 74.5786 179.729 73.9001 179.666 73.2625C179.45 72.7436 179.256 72.2107 179.083 71.6635C179.401 70.6146 179.45 69.5485 179.229 68.4656C178.892 68.8996 178.649 68.8511 178.5 68.3202C178.742 67.3195 178.839 66.3505 178.791 65.413C178.107 64.9533 178.107 64.5658 178.791 64.2501C178.326 62.2083 178.083 60.1247 178.063 57.9995C177.756 59.3342 177.513 60.691 177.334 62.0696C176.996 60.9187 176.948 59.7558 177.189 58.5809C177.334 58.4356 177.48 58.2902 177.626 58.1449C177.443 57.4637 177.152 56.8337 176.751 56.2551C176.524 56.6124 176.378 57 176.314 57.418C175.916 56.984 175.867 56.5479 176.169 56.1098C175.892 55.9694 175.601 55.9211 175.294 55.9644C175.294 55.4798 175.294 54.9954 175.294 54.5108C175.003 54.5108 174.711 54.5108 174.42 54.5108C172.449 40.6154 167.737 27.7265 160.286 15.8445C159.266 14.1008 158.489 12.2595 157.954 10.3208C157.61 9.78091 157.124 9.49018 156.497 9.44858C155.302 9.92287 154.088 10.359 152.854 10.7568C148.466 11.0079 144.095 10.8626 139.74 10.3208C134.53 9.28493 129.284 8.99421 124.003 9.44858C116.769 10.0607 110.26 12.5318 104.477 16.862C95.1331 23.8161 89.1101 32.974 86.4086 44.3355C85.8904 45.7228 85.502 47.1764 85.2429 48.6963C84.3584 52.2501 83.9699 55.8359 84.0772 59.4531C83.5535 63.2285 83.0677 67.0079 82.62 70.7913C81.9541 74.6074 81.4199 78.4836 81.0172 82.4203C80.8549 83.0352 80.6118 83.6166 80.2886 84.1647C80.3944 84.3632 80.4914 84.5571 80.58 84.7461C80.2507 86.1195 79.862 87.4763 79.4143 88.8162C79.1241 88.7912 78.8813 88.8883 78.6857 89.107C78.1043 88.4299 77.7643 88.6238 77.6657 89.6884C77.7267 89.8588 77.824 90.0041 77.9572 90.1245C77.0264 91.2595 76.6379 92.5195 76.7915 93.9039C76.4514 94.0493 76.2086 94.2914 76.0629 94.6307C75.9658 94.4368 75.8685 94.2432 75.7715 94.0493C75.5415 94.654 75.2014 95.1872 74.7515 95.6482C74.8001 95.7936 74.8485 95.939 74.8972 96.0843C75.0531 95.5695 75.2961 95.4727 75.6257 95.7936C75.2623 96.2419 75.2623 96.678 75.6257 97.1019C74.9289 97.3028 74.9289 97.5935 75.6257 97.974C75.0508 98.118 74.4679 98.1665 73.8772 98.1194C74.0669 98.7956 74.2613 99.4739 74.46 100.154C74.252 100.902 73.9605 101.628 73.5857 102.335C73.8751 103.048 73.9238 103.775 73.7315 104.515C73.6344 104.225 73.5371 103.934 73.44 103.643C73.35 104.011 73.2043 104.35 73.0029 104.661C73.0999 104.758 73.1973 104.855 73.2943 104.951C73.0446 105.152 72.8505 105.394 72.7115 105.678C72.7228 106.705 72.7228 107.722 72.7115 108.731C72.026 108.898 71.7346 109.334 71.8372 110.039C71.9602 110.873 72.0088 111.745 71.9829 112.656C72.1921 112.379 72.4349 112.331 72.7115 112.51C72.4763 114.524 72.3792 116.608 72.42 118.761C71.7474 115.334 71.2616 111.846 70.9629 108.295C71.3563 104.789 71.8421 101.3 72.42 97.8287C74.2901 91.3348 75.893 84.7449 77.2286 78.0594C78.6855 67.5948 80.0942 57.1288 81.4543 46.6613C82.5746 40.2607 84.7603 34.2526 88.0115 28.6364C97.941 12.1746 112.561 4.27663 131.871 4.94236C137.403 5.636 142.94 6.26588 148.483 6.83207C150.148 6.82709 151.799 6.68173 153.437 6.39598C154.561 5.78741 155.726 5.25442 156.934 4.797C158.824 5.56457 160.329 6.82436 161.451 8.57641C162.932 11.2409 164.487 13.8574 166.114 16.426C172.144 27.0568 176.175 38.3951 178.209 50.4407Z" fill="#080915"/>
<path fill-rule="evenodd" clip-rule="evenodd" d="M86.4086 44.3354C86.5057 44.3354 86.603 44.3354 86.7001 44.3354C86.3302 46.026 85.8444 47.4796 85.2429 48.6963C85.502 47.1764 85.8905 45.7228 86.4086 44.3354Z" fill="#4F6F7D"/>
<path fill-rule="evenodd" clip-rule="evenodd" d="M174.42 54.5107C174.613 55.6637 174.71 56.8266 174.711 57.9994C172.506 49.6068 169.738 41.3697 166.406 33.2879C166.618 35.318 166.909 37.353 167.28 39.3931C167.474 40.362 167.474 41.3313 167.28 42.3003C165.007 32.1532 161.559 22.4624 156.934 13.2279C156.921 12.3359 156.775 11.4637 156.497 10.6114C154.743 12.0919 152.703 12.7703 150.377 12.6465C147.872 12.4275 145.395 12.0399 142.946 11.4836C141.862 11.1406 140.794 10.7529 139.74 10.3207C144.095 10.8625 148.466 11.0078 152.854 10.7567C154.088 10.3589 155.302 9.92277 156.497 9.44849C157.124 9.49009 157.61 9.78081 157.954 10.3207C158.488 12.2594 159.266 14.1007 160.286 15.8444C167.737 27.7264 172.448 40.6153 174.42 54.5107Z" fill="#EDF0F1"/>
<path fill-rule="evenodd" clip-rule="evenodd" d="M124.003 9.44849C115.892 11.966 108.412 16.2784 101.563 22.3857C101.66 22.4342 101.757 22.4826 101.854 22.5311C104.511 21.0501 107.328 20.1295 110.306 19.7692C109.191 20.2768 108.122 20.8582 107.1 21.5135C102.685 25.0459 98.751 29.0675 95.2973 33.5786C95.3028 32.7808 95.4972 32.0055 95.8801 31.2528C96.8745 29.0793 97.8458 26.9472 98.7944 24.8569C93.1614 30.337 89.1298 36.83 86.7001 44.3354C86.6031 44.3354 86.5057 44.3354 86.4087 44.3354C89.1102 32.9739 95.1332 23.816 104.477 16.8619C110.26 12.5317 116.769 10.0606 124.003 9.44849Z" fill="#F0F3F4"/>
<path fill-rule="evenodd" clip-rule="evenodd" d="M156.934 13.2279C161.559 22.4624 165.008 32.1532 167.28 42.3003C167.474 41.3313 167.474 40.362 167.28 39.3931C166.909 37.3531 166.618 35.318 166.406 33.2879C169.738 41.3697 172.506 49.6068 174.712 57.9994C175.049 60.3705 175.097 62.7934 174.857 65.2675C173.867 63.1958 172.799 61.1607 171.652 59.1623C166.917 52.6245 162.934 45.6471 159.703 38.2302C157.752 32.6864 155.712 27.1626 153.583 21.6589C152.745 19.9369 151.725 18.3379 150.523 16.862C151.689 16.3774 152.854 15.8929 154.02 15.4083C154.961 14.6114 155.932 13.8846 156.934 13.2279Z" fill="#0E2E3F"/>
<path fill-rule="evenodd" clip-rule="evenodd" d="M123.129 14.6815C126.563 14.518 129.963 14.7602 133.329 15.4083C137.895 16.9585 142.072 19.1874 145.86 22.095C142.662 20.6742 139.359 19.4144 135.951 18.3156C129.08 16.4152 122.183 16.2213 115.26 17.7341C115.566 17.3315 115.955 17.0408 116.426 16.8619C118.678 16.0847 120.912 15.3578 123.129 14.6815Z" fill="#28555F"/>
<path fill-rule="evenodd" clip-rule="evenodd" d="M156.934 13.228C155.932 13.8847 154.961 14.6115 154.02 15.4084C152.854 15.8929 151.688 16.3775 150.523 16.862C151.725 18.338 152.745 19.9369 153.583 21.659C155.711 27.1626 157.751 32.6864 159.703 38.2302C162.934 45.6472 166.917 52.6246 171.651 59.1624C172.799 61.1608 173.867 63.1959 174.857 65.2676C175.097 62.7935 175.048 60.3706 174.711 57.9995C174.71 56.8267 174.613 55.6638 174.42 54.5108C174.711 54.5108 175.003 54.5108 175.294 54.5108C175.294 54.9954 175.294 55.4798 175.294 55.9644C175.601 55.9211 175.892 55.9693 176.168 56.1098C175.867 56.5479 175.915 56.984 176.314 57.418C176.378 56.9999 176.524 56.6124 176.751 56.2551C177.151 56.8337 177.443 57.4637 177.626 58.1448C177.48 58.2902 177.334 58.4355 177.188 58.5809C176.947 59.7557 176.996 60.9186 177.334 62.0696C177.513 60.691 177.756 59.3342 178.063 57.9995C178.083 60.1247 178.326 62.2083 178.791 64.25C178.107 64.5658 178.107 64.9533 178.791 65.4129C178.839 66.3505 178.742 67.3195 178.5 68.3202C178.648 68.851 178.891 68.8996 179.228 68.4655C179.45 69.5485 179.401 70.6146 179.083 71.6635C179.255 72.2106 179.45 72.7435 179.666 73.2625C179.729 73.9 179.632 74.5786 179.374 75.2975C179.976 76.7762 180.462 78.3751 180.831 80.0945C180.938 80.5814 181.23 80.8722 181.706 80.9667C183.116 89.5067 184.622 98.0348 186.223 106.55C187.291 105.678 188.36 104.806 189.428 103.934C189.488 103.026 189.683 102.154 190.011 101.317C190.65 102.834 191.136 102.737 191.468 101.027C192.738 100.148 193.806 99.082 194.674 97.8286C194.951 97.9804 195.194 98.1743 195.403 98.4101C196.304 97.9641 197.081 97.3827 197.734 96.6657C198.429 95.9724 199.206 95.3909 200.066 94.9214C200.51 95.1174 200.898 95.4081 201.231 95.7936C201.717 95.0194 202.3 94.3411 202.98 93.7585C203.199 94.0132 203.344 94.3039 203.417 94.6307C204.709 93.3881 206.117 92.3223 207.643 91.4327C208.142 91.7551 208.337 91.5612 208.226 90.8513C209.128 90.8766 209.226 90.7312 208.517 90.4152C208.894 90.2727 209.283 90.2242 209.683 90.2698C209.683 90.6574 209.683 91.0452 209.683 91.4327C210.673 91.3397 211.645 91.4365 212.597 91.7234C213.855 91.963 215.02 92.5444 216.094 93.4678C216.97 95.4863 216.824 97.4242 215.657 99.2823C209.1 105.048 202.543 110.814 195.986 116.58C191.949 119.706 187.869 122.759 183.746 125.738C185.66 122.99 187.652 120.277 189.72 117.598C190.301 116.488 190.738 115.325 191.031 114.109C190.675 113.785 190.286 113.737 189.866 113.964C181.033 121.273 171.805 128.008 162.18 134.169C164.154 132.359 166.194 130.614 168.3 128.936C172.895 125.081 177.461 121.156 181.997 117.162C181.479 117.175 180.993 117.368 180.54 117.743C176.586 120.964 172.603 124.113 168.591 127.192C159.841 133.592 151.195 140.133 142.654 146.816C142.892 147.391 143.28 147.827 143.82 148.124C144.354 150.499 145.811 151.855 148.191 152.194C148.132 152.918 148.278 153.596 148.628 154.229C153.61 150.994 158.516 147.65 163.346 144.199C170.012 139.049 176.715 133.961 183.454 128.936C184.434 129.027 185.405 128.737 186.368 128.064C186.717 128.586 187.202 128.877 187.826 128.936C187.826 129.13 187.826 129.324 187.826 129.518C186.468 130.293 185.205 131.214 184.037 132.279C194.997 138.958 205.391 146.419 215.22 154.665C219.367 158.218 222.621 162.433 224.983 167.312C225.151 168.609 225.005 169.869 224.546 171.091C224.536 171.944 224.778 172.719 225.274 173.417C228.591 177.404 231.797 181.474 234.891 185.627C237.233 189.291 238.738 193.264 239.408 197.547C239.214 197.644 239.02 197.741 238.826 197.838C234.293 196.586 229.727 195.472 225.128 194.494C221.097 193.533 217.017 193.145 212.888 193.331C212.03 193.566 211.253 193.953 210.557 194.494C208.312 197.186 206.174 199.948 204.146 202.78C197.758 211.434 191.298 220.058 184.766 228.654C184.042 229.657 183.217 230.578 182.288 231.416C181.997 231.61 181.706 231.61 181.414 231.416C178.454 229.989 175.54 228.486 172.671 226.91C162.82 234.102 152.718 240.934 142.363 247.406C133.334 252.808 124.203 253.002 114.968 247.988C103.937 241.372 93.1544 234.395 82.6198 227.055C82.3284 226.862 82.037 226.862 81.7455 227.055C79.2698 228.338 76.8414 229.695 74.4598 231.126C73.877 231.32 73.2941 231.32 72.7112 231.126C64.5842 220.208 56.5699 209.209 48.6684 198.128C47.4202 196.848 46.2058 195.54 45.0255 194.204C43.3247 193.174 41.4788 192.738 39.4884 192.895C31.2316 193.612 23.1689 195.26 15.2998 197.838C15.4162 195.143 16.0476 192.526 17.1941 189.988C19.8342 184.527 23.3313 179.681 27.6855 175.452C27.7827 174.677 27.8798 173.902 27.9769 173.126C28.7055 172.254 29.4341 171.382 30.1627 170.51C29.2584 169.427 29.1128 168.264 29.7255 167.021C30.8434 164.55 32.2035 162.224 33.8055 160.044C43.9516 149.348 55.1716 139.996 67.4655 131.989C68.2911 131.165 69.117 130.341 69.9427 129.518C71.3439 126.054 72.1698 122.468 72.4198 118.761C72.379 116.608 72.4761 114.524 72.7112 112.51C72.4347 112.331 72.1919 112.379 71.9827 112.656C72.0086 111.745 71.9599 110.873 71.837 110.039C71.7344 109.334 72.0258 108.898 72.7112 108.731C72.7226 107.722 72.7226 106.705 72.7112 105.678C72.8502 105.394 73.0443 105.152 73.2941 104.951C73.197 104.855 73.0997 104.757 73.0027 104.661C73.204 104.35 73.3498 104.011 73.4398 103.643C73.5369 103.934 73.6342 104.225 73.7312 104.515C73.9236 103.775 73.8749 103.048 73.5855 102.335C73.9603 101.628 74.2517 100.902 74.4598 100.154C74.2611 99.4739 74.0667 98.7956 73.877 98.1194C74.4677 98.1665 75.0505 98.1179 75.6255 97.974C74.9287 97.5934 74.9287 97.3027 75.6255 97.1018C75.2621 96.678 75.2621 96.2419 75.6255 95.7936C75.2959 95.4726 75.0529 95.5694 74.897 96.0843C74.8483 95.9389 74.7999 95.7936 74.7512 95.6482C75.2012 95.1871 75.5413 94.6539 75.7712 94.0492C75.8683 94.2431 75.9656 94.4368 76.0627 94.6307C76.2084 94.2914 76.4511 94.0492 76.7912 93.9039C76.6377 92.5194 77.0261 91.2594 77.957 90.1245C77.8238 90.0041 77.7264 89.8587 77.6655 89.6884C77.764 88.6237 78.1041 88.4298 78.6855 89.1069C78.8811 88.8883 79.1238 88.7912 79.4141 88.8162C77.3753 95.3528 75.7237 101.991 74.4598 108.731C75.3851 113.784 76.5508 118.774 77.957 123.703C77.783 123.771 77.6859 123.917 77.6655 124.139C78.6176 128.218 80.3175 131.949 82.7655 135.332C86.1656 139.596 89.5654 143.86 92.9655 148.124C93.6384 149.06 94.4641 149.544 95.4427 149.578C94.9793 148.358 94.6392 147.098 94.4227 145.798C91.8494 142.215 89.4206 138.533 87.137 134.751C84.4984 129.195 81.6327 123.768 78.5398 118.47C78.242 118.222 77.9992 117.931 77.8112 117.598C77.7436 117.958 77.5979 118.248 77.3741 118.47C76.2241 113.62 76.2241 108.774 77.3741 103.934C84.2702 92.4383 92.3818 81.7784 101.708 71.9542C106.356 65.8824 111.214 59.9711 116.28 54.22C119.909 50.2592 123.843 46.6734 128.083 43.4633C129.582 44.6198 131.04 45.8312 132.454 47.0973C141.969 56.934 151.246 66.9639 160.286 77.1872C165.074 82.9328 169.64 88.8441 173.983 94.9214C175.698 98.3546 177.689 101.553 179.957 104.515C180.598 106.433 181.18 108.371 181.706 110.33C182.01 106.812 181.767 103.323 180.977 99.8637C179.365 93.1396 177.616 86.4529 175.731 79.8038C174.379 75.317 172.776 70.9562 170.923 66.7212C170.378 64.9547 169.747 63.2104 169.028 61.4881C165.994 55.3376 162.886 49.2324 159.703 43.1725C157.431 37.1499 155.391 31.0447 153.583 24.8569C151.583 19.1357 148.037 14.6779 142.946 11.4836C145.394 12.04 147.872 12.4276 150.377 12.6465C152.703 12.7704 154.743 12.092 156.497 10.6115C156.775 11.4638 156.92 12.336 156.934 13.228Z" fill="#060716"/>
<path fill-rule="evenodd" clip-rule="evenodd" d="M194.528 94.3399C194.313 94.3019 194.119 94.3504 193.946 94.4853C192.895 96.5111 191.243 97.3832 188.991 97.1018C188.324 95.0793 187.935 92.9956 187.826 90.8513C192.54 81.5408 197.203 72.1408 201.814 62.651C195.887 62.2094 189.962 61.8219 184.037 61.4881C183.94 61.4881 183.843 61.4881 183.746 61.4881C183.563 59.1452 183.271 56.8194 182.871 54.5108C194.236 54.1715 205.602 54.1232 216.968 54.3654C209.935 66.8959 203.086 79.5424 196.423 92.3049C195.731 92.9453 195.1 93.6239 194.528 94.3399Z" fill="#07222A"/>
<path fill-rule="evenodd" clip-rule="evenodd" d="M184.037 61.4882C189.962 61.8219 195.887 62.2094 201.814 62.6511C197.203 72.1409 192.54 81.5408 187.826 90.8513C187.312 88.5537 186.924 86.2279 186.66 83.8739C186.915 83.912 187.11 83.8152 187.243 83.5832C189.501 78.4478 191.638 73.2634 193.654 68.0294C193.612 67.805 193.515 67.6111 193.363 67.448C190.357 67.0608 187.345 66.7218 184.329 66.4305C184.064 64.8007 183.967 63.1531 184.037 61.4882Z" fill="#0A8795"/>
<path fill-rule="evenodd" clip-rule="evenodd" d="M145.86 38.5209C150.889 43.8972 155.212 49.8085 158.829 56.255C160.383 59.1623 161.937 62.0695 163.492 64.9768C165.012 68.8669 166.421 72.7917 167.717 76.7511C167.475 76.9511 167.281 76.9025 167.134 76.6057C163.214 68.7832 159.28 60.9337 155.332 53.0571C152.414 47.9839 149.257 43.1387 145.86 38.5209Z" fill="#050B19"/>
<path fill-rule="evenodd" clip-rule="evenodd" d="M83.7856 82.4203C85.3433 77.1771 87.1889 72.0408 89.3228 67.0119C89.5125 67.1837 89.7069 67.3773 89.9056 67.5934C95.0782 58.7266 100.761 50.1985 106.954 42.0096C107.003 42.1065 107.051 42.2036 107.1 42.3004C104.692 45.6518 102.506 49.1405 100.543 52.7664C95.084 63.0784 89.6439 73.3506 84.2228 83.5832C84.1033 83.1759 83.9576 82.7883 83.7856 82.4203Z" fill="#080E1A"/>
<path fill-rule="evenodd" clip-rule="evenodd" d="M82.6201 70.7913C83.0678 67.0078 83.5536 63.2284 84.0773 59.453C84.7324 56.9636 85.6553 54.541 86.8458 52.1849C86.8945 52.3788 86.9429 52.5725 86.9915 52.7664C85.7256 59.0239 84.2684 65.0323 82.6201 70.7913Z" fill="#DEE6E4"/>
<path fill-rule="evenodd" clip-rule="evenodd" d="M184.329 66.4304C187.345 66.7217 190.357 67.0607 193.363 67.448C193.515 67.611 193.612 67.805 193.654 68.0294C191.638 73.2633 189.501 78.4478 187.243 83.5831C187.11 83.8151 186.915 83.9119 186.66 83.8739C186.148 82.2028 185.808 80.4584 185.64 78.6408C185.25 74.5631 184.813 70.493 184.329 66.4304Z" fill="#07232C"/>
<path fill-rule="evenodd" clip-rule="evenodd" d="M127.5 67.884C127.569 72.924 127.667 77.9631 127.791 83.0017C127.607 83.4224 127.266 83.616 126.771 83.5831C125.772 83.4965 124.946 83.109 124.294 82.4202C125.875 81.9551 126.798 80.889 127.063 79.2223C127.257 78.0594 127.257 76.8965 127.063 75.7336C126.723 75.0068 126.188 74.4739 125.46 74.1346C121.345 73.4578 117.265 73.6514 113.22 74.716C112.021 75.0614 110.953 75.5943 110.014 76.315C108.43 75.8714 106.876 75.3385 105.351 74.716C112.073 70.3735 119.456 68.0963 127.5 67.884Z" fill="#A2685B"/>
<path fill-rule="evenodd" clip-rule="evenodd" d="M81.4545 46.6612C80.0944 57.1288 78.6856 67.5948 77.2288 78.0594C75.8932 84.7449 74.2903 91.3348 72.4202 97.8287C72.3054 96.4099 71.9656 95.0534 71.4002 93.7585C71.1056 94.0019 70.7655 94.0987 70.3802 94.0492C70.3802 94.4368 70.3802 94.8246 70.3802 95.2121C69.6374 95.195 69.0545 95.4857 68.6316 96.0843C68.39 97.6257 68.2443 99.1765 68.1945 100.736C67.9482 101.35 67.7055 101.931 67.4659 102.48C67.7148 100.645 67.9092 98.804 68.0488 96.9565C62.2056 98.3665 56.6685 100.547 51.4373 103.498C39.2551 110.712 27.3065 118.271 15.5916 126.174C11.3518 128.531 7.07752 130.808 2.76878 133.006C9.35442 135.744 15.9601 138.36 22.5859 140.856C22.035 140.797 21.5979 140.99 21.2745 141.437C20.6045 140.847 19.876 140.653 19.0888 140.856C19.445 141.576 20.0279 141.867 20.8373 141.728C20.7785 142.44 20.8756 143.119 21.1288 143.763C18.5868 142.204 15.9639 140.799 13.2602 139.548C8.70075 137.598 4.23216 135.515 -0.145508 133.297C-0.145508 133.2 -0.145508 133.103 -0.145508 133.006C12.7661 124.142 25.6861 115.275 38.6145 106.405C42.1606 104.2 45.7548 102.068 49.3973 100.009C50.8323 99.2983 52.2895 98.6683 53.7688 98.1194C53.5161 97.1286 53.1763 96.1593 52.7488 95.2121C45.4631 80.9667 38.1773 66.7212 30.8916 52.4757C30.5154 51.2628 30.8555 50.3421 31.9116 49.7138C46.6772 49.5685 61.4427 49.5199 76.2088 49.5685C61.6863 49.8106 47.1149 49.956 32.4945 50.0046C32.3974 50.1014 32.3001 50.1985 32.2031 50.2953C32.4793 50.4357 32.7708 50.484 33.0773 50.4406C33.0339 50.7465 33.0823 51.0372 33.2231 51.3128C33.3463 50.8895 33.5891 50.7442 33.9516 50.8767C33.7573 51.1675 33.5632 51.4582 33.3688 51.7489C34.0939 52.6624 34.628 53.6799 34.9716 54.8015C35.0687 54.5108 35.166 54.2201 35.2631 53.9293C35.8421 55.0536 35.9878 55.0536 35.7002 53.9293C35.8459 53.8325 35.9916 53.7354 36.1373 53.6386C36.5488 53.9834 36.8889 54.3709 37.1573 54.8015C44.0671 68.2966 50.9157 81.8638 57.7031 95.5029C58.2061 95.8157 58.7403 95.8642 59.3059 95.6482C61.5834 94.8435 63.8178 94.0199 66.0088 93.1771C67.0025 93.1896 67.9739 93.0442 68.9231 92.741C63.3848 87.8443 60.3731 81.6906 59.8888 74.28C60.2816 69.9863 60.8645 65.7223 61.6373 61.4882C61.7982 60.4604 62.138 59.4915 62.6573 58.5809C64.4246 56.961 66.2218 55.4106 68.0488 53.9293C67.927 53.7194 67.7329 53.5741 67.4659 53.4932C68.2041 53.2456 68.787 53.4392 69.2145 54.0747C69.0201 54.1715 68.826 54.2686 68.6316 54.3654C68.9021 54.4782 69.0965 54.6721 69.2145 54.9469C69.009 55.3603 68.9117 55.7478 68.9231 56.1098C69.6172 56.9627 70.2001 56.8174 70.6716 55.6737C70.579 55.3402 70.3849 55.0978 70.0888 54.9469C70.623 54.8015 70.9631 54.4622 71.1088 53.9293C71.2058 54.1232 71.3032 54.3169 71.4002 54.5108C72.0976 53.816 72.6805 53.0406 73.1488 52.185C73.3367 52.5182 73.5795 52.8089 73.8773 53.0572C73.8164 53.2275 73.7191 53.3729 73.5859 53.4932C73.9657 53.5543 74.3541 53.5057 74.7516 53.3479C75.2386 53.3967 75.6271 53.5906 75.9173 53.9293C76.11 54.2834 76.3044 54.671 76.5002 55.0922C76.8773 54.3765 77.3145 53.6982 77.8116 53.0572C78.032 53.7284 77.8862 54.3099 77.3745 54.8015C77.6342 55.1184 77.9256 55.1184 78.2488 54.8015C78.3458 54.9954 78.4432 55.189 78.5402 55.383C78.6722 56.9767 78.9153 58.5274 79.2688 60.0345C79.1301 58.6923 79.1301 57.3357 79.2688 55.9644C79.3658 56.449 79.4632 56.9334 79.5602 57.418C79.6616 55.5751 79.6132 53.7337 79.4145 51.8943C79.7059 51.8943 79.9973 51.8943 80.2888 51.8943C80.2442 50.5959 80.1471 49.2876 79.9973 47.9695C80.1431 47.2427 80.2888 46.5159 80.4345 45.7891C80.5753 46.0647 80.6236 46.3554 80.5802 46.6612C80.8716 46.6612 81.1631 46.6612 81.4545 46.6612Z" fill="#EEBF80"/>
<path fill-rule="evenodd" clip-rule="evenodd" d="M61.6373 61.4882C60.8644 65.7223 60.2815 69.9863 59.8887 74.28C59.6485 75.3883 59.5028 76.5512 59.4515 77.7687C59.3399 77.9303 59.1942 78.0272 59.0144 78.0594C56.423 72.9857 53.8972 67.8495 51.4373 62.6511C54.8406 62.2629 58.2407 61.8754 61.6373 61.4882Z" fill="#0C8793"/>
<path fill-rule="evenodd" clip-rule="evenodd" d="M75.9172 53.9293C75.538 58.303 75.0522 62.6638 74.46 67.0119C72.3892 69.0574 71.0294 71.5286 70.38 74.4254C71.0279 76.0549 71.7078 77.6539 72.42 79.2223C71.9535 82.0423 71.4193 84.8528 70.8172 87.6533C69.5471 86.5788 68.4785 85.3188 67.6115 83.8739C66.3816 81.6147 65.313 79.2889 64.4058 76.8965C64.6051 72.2054 65.188 67.5538 66.1543 62.9418C66.463 62.0353 66.8514 61.1631 67.32 60.3252C69.9688 57.8692 72.8348 55.7373 75.9172 53.9293Z" fill="#08222B"/>
<path fill-rule="evenodd" clip-rule="evenodd" d="M68.0487 53.9293C66.2217 55.4106 64.4245 56.961 62.6572 58.5809C62.1379 59.4915 61.7981 60.4604 61.6372 61.4881C58.2406 61.8754 54.8405 62.2629 51.4372 62.651C53.8972 67.8495 56.423 72.9857 59.0144 78.0594C60.4945 81.3056 61.903 84.6004 63.2401 87.944C64.0983 89.7549 65.0213 91.4993 66.0087 93.1771C63.8177 94.0199 61.5833 94.8435 59.3058 95.6482C58.7401 95.8642 58.2059 95.8157 57.7029 95.5029C50.9156 81.8638 44.067 68.2966 37.1572 54.8015C47.3531 54.2506 57.6505 53.9598 68.0487 53.9293Z" fill="#07222A"/>
<path fill-rule="evenodd" clip-rule="evenodd" d="M147.609 76.315C147.647 76.0604 147.55 75.8664 147.317 75.7336C142.025 73.7616 136.585 73.2287 130.997 74.1346C130.546 74.4875 130.206 74.9236 129.977 75.4429C129.576 77.5951 129.867 79.6302 130.852 81.5481C131.483 81.8353 132.017 82.2228 132.454 82.711C131.677 83.1805 130.802 83.4712 129.832 83.5831C129.077 83.2898 128.689 82.7083 128.666 81.8388C128.393 78.1603 128.393 74.4777 128.666 70.7913C128.666 69.8223 128.666 68.853 128.666 67.884C137.053 68.0861 144.825 70.3633 151.98 74.716C150.526 75.2801 149.069 75.8132 147.609 76.315Z" fill="#A16A5D"/>
<path fill-rule="evenodd" clip-rule="evenodd" d="M124.294 82.4203C119.643 80.1494 114.883 78.1144 110.014 76.3151C110.953 75.5944 112.021 75.0615 113.22 74.7161C117.265 73.6515 121.345 73.4578 125.46 74.1346C126.188 74.4739 126.723 75.0068 127.063 75.7336C127.257 76.8965 127.257 78.0594 127.063 79.2223C126.798 80.889 125.875 81.9551 124.294 82.4203Z" fill="#F4C185"/>
<path fill-rule="evenodd" clip-rule="evenodd" d="M147.609 76.315C142.426 78.1245 137.374 80.2566 132.454 82.7109C132.017 82.2228 131.483 81.8353 130.852 81.548C129.867 79.6301 129.576 77.595 129.977 75.4428C130.206 74.9236 130.546 74.4875 130.997 74.1346C136.585 73.2287 142.025 73.7616 147.317 75.7335C147.55 75.8664 147.647 76.0603 147.609 76.315Z" fill="#F3C186"/>
<path fill-rule="evenodd" clip-rule="evenodd" d="M74.4599 67.0118C73.7776 71.1189 73.0977 75.189 72.4199 79.2222C71.7076 77.6538 71.0277 76.0548 70.3799 74.4253C71.0292 71.5285 72.389 69.0574 74.4599 67.0118Z" fill="#1C818B"/>
<path fill-rule="evenodd" clip-rule="evenodd" d="M106.808 89.1069C105.331 88.2737 103.777 87.5954 102.146 87.0718C101.242 87.1134 100.708 87.598 100.543 88.5255C100.363 91.5737 101.383 94.142 103.603 96.2296C103.98 96.3721 104.368 96.4206 104.768 96.375C103.951 96.7058 103.077 96.7544 102.146 96.5204C101.212 95.6863 100.386 94.7658 99.6684 93.7585C99.6556 94.6234 99.7043 95.4956 99.8142 96.375C98.0198 95.7915 96.9998 94.5318 96.7542 92.5956C96.0996 87.6475 97.2653 83.1898 100.251 79.2223C101.105 81.3274 102.076 83.3625 103.166 85.3275C104.243 86.741 105.457 88.001 106.808 89.1069Z" fill="#A1685A"/>
<path fill-rule="evenodd" clip-rule="evenodd" d="M127.5 67.884C127.742 69.9642 127.887 72.0963 127.937 74.28C128.091 73.0592 128.334 71.8963 128.666 70.7913C128.393 74.4777 128.393 78.1603 128.666 81.8388C128.435 81.5164 128.29 81.1288 128.229 80.6759C128.175 81.5088 128.03 82.2839 127.791 83.0017C127.667 77.9631 127.569 72.924 127.5 67.884Z" fill="#312126"/>
<path fill-rule="evenodd" clip-rule="evenodd" d="M152.563 96.3751C154.043 96.1149 155.063 95.2427 155.623 93.7585C156.638 91.6345 156.589 89.5509 155.477 87.508C154.894 87.3141 154.312 87.3141 153.729 87.508C152.492 88.4639 151.132 89.1907 149.649 89.6884C152.913 86.962 155.244 83.5704 156.643 79.5131C157.834 81.4036 158.951 83.3419 159.994 85.3275C160.71 88.4912 160.516 91.5921 159.412 94.6307C158.974 95.6308 158.245 96.2122 157.226 96.3751C158.316 93.6742 158.656 90.8638 158.246 87.9441C158.148 91.1458 157.128 94.0045 155.186 96.5204C154.254 96.7544 153.38 96.7059 152.563 96.3751Z" fill="#A0685A"/>
<path fill-rule="evenodd" clip-rule="evenodd" d="M118.466 89.3976C118.746 89.1467 118.746 88.9528 118.466 88.8161C116.211 89.5682 113.977 89.5682 111.763 88.8161C108.765 88.0556 107.551 86.2142 108.12 83.2924C109.181 82.6743 110.298 82.5775 111.471 83.0017C109.432 84.6178 109.626 86.0229 112.054 87.2172C113.904 87.9376 115.604 87.6954 117.154 86.4904C117.406 86.029 117.6 85.5443 117.737 85.0367C118.216 85.854 118.847 86.5322 119.631 87.0718C120.014 86.8354 120.354 86.5447 120.651 86.1996C120.655 87.7387 119.926 88.8045 118.466 89.3976Z" fill="#EDEFF0"/>
<path fill-rule="evenodd" clip-rule="evenodd" d="M141.197 89.6883C141.586 89.8822 141.974 90.0758 142.363 90.2698C140.146 90.4215 138.397 89.6462 137.117 87.944C136.967 86.6848 137.453 86.2488 138.574 86.6357C138.832 86.1662 139.124 85.7301 139.449 85.3275C139.466 85.1696 139.563 85.0728 139.74 85.0367C140.698 87.25 142.349 87.9768 144.694 87.2172C147.884 86.3953 148.273 84.9417 145.86 82.8563C148.936 82.0824 150.053 83.1967 149.211 86.1996C146.267 89.3578 142.721 90.2782 138.574 88.9615C139.394 89.4118 140.268 89.654 141.197 89.6883Z" fill="#EDEFF0"/>
<path fill-rule="evenodd" clip-rule="evenodd" d="M139.449 85.3275C139.124 85.7302 138.832 86.1663 138.574 86.6358C137.453 86.2488 136.967 86.6849 137.117 87.944C136.559 87.6053 136.316 87.1207 136.389 86.4904C137.438 86.1346 138.458 85.7467 139.449 85.3275Z" fill="#313440"/>
<path fill-rule="evenodd" clip-rule="evenodd" d="M89.3228 67.0119C87.189 72.0408 85.3434 77.177 83.7857 82.4202C81.3639 89.4773 79.2269 96.6483 77.3742 103.934C76.2243 108.774 76.2243 113.62 77.3742 118.47C77.9221 120.379 78.2622 122.317 78.3942 124.284C78.3132 124.018 78.1675 123.825 77.9571 123.703C76.551 118.774 75.3852 113.784 74.46 108.731C75.7239 101.991 77.3754 95.3528 79.4142 88.8162C79.8619 87.4762 80.2506 86.1194 80.58 84.746C83.6545 76.5741 87.2974 68.6277 91.5085 60.9067C91.6991 60.5589 91.8448 60.5589 91.9457 60.9067C91.0125 62.9263 90.1382 64.9614 89.3228 67.0119Z" fill="#EDF0EF"/>
<path fill-rule="evenodd" clip-rule="evenodd" d="M106.809 89.1068C108.154 90.2133 109.709 90.9402 111.471 91.2873C113.815 91.3524 116.147 91.5463 118.466 91.8687C114.058 93.8675 109.492 95.3696 104.769 96.3749C104.368 96.4206 103.98 96.372 103.603 96.2296C101.383 94.1419 100.363 91.5736 100.543 88.5254C100.708 87.598 101.243 87.1134 102.146 87.0718C103.777 87.5954 105.332 88.2736 106.809 89.1068Z" fill="#F6C185"/>
<path fill-rule="evenodd" clip-rule="evenodd" d="M152.563 96.3751C147.686 95.4988 143.023 93.9967 138.574 91.8688C142.474 92.0689 146.165 91.3421 149.649 89.6884C151.132 89.1907 152.492 88.4639 153.729 87.508C154.311 87.3141 154.894 87.3141 155.477 87.508C156.589 89.5509 156.638 91.6345 155.623 93.7585C155.063 95.2427 154.043 96.1149 152.563 96.3751Z" fill="#F2BE86"/>
<path fill-rule="evenodd" clip-rule="evenodd" d="M111.763 88.8162C113.977 89.5683 116.211 89.5683 118.466 88.8162C118.746 88.9528 118.746 89.1467 118.466 89.3976C117.139 89.5595 115.876 89.8503 114.677 90.2698C113.621 89.9131 112.552 89.5738 111.471 89.2522C111.633 89.1409 111.731 88.9955 111.763 88.8162Z" fill="#2D3137"/>
<path fill-rule="evenodd" clip-rule="evenodd" d="M118.466 89.3976C117.331 90.0883 116.068 90.3791 114.677 90.2698C115.876 89.8502 117.139 89.5595 118.466 89.3976Z" fill="#BDC1C3"/>
<path fill-rule="evenodd" clip-rule="evenodd" d="M141.197 89.6883C142.077 89.6403 142.951 89.6889 143.82 89.8337C143.311 89.936 142.825 90.0814 142.363 90.2697C141.975 90.0758 141.586 89.8822 141.197 89.6883Z" fill="#616B6F"/>
<path fill-rule="evenodd" clip-rule="evenodd" d="M170.923 66.7212C172.776 70.9562 174.379 75.317 175.731 79.8038C177.616 86.4529 179.365 93.1396 180.977 99.8637C181.767 103.323 182.011 106.812 181.706 110.33C181.181 108.371 180.598 106.433 179.957 104.515C176.804 94.7429 174.521 84.7615 173.109 74.5707C172.348 71.9574 171.62 69.3409 170.923 66.7212Z" fill="#EEF1F1"/>
<path fill-rule="evenodd" clip-rule="evenodd" d="M59.8887 74.28C60.373 81.6906 63.3847 87.8443 68.923 92.741C67.9738 93.0442 67.0025 93.1896 66.0087 93.1771C65.0213 91.4993 64.0984 89.755 63.2401 87.9441C61.903 84.6004 60.4946 81.3057 59.0144 78.0594C59.1942 78.0272 59.3399 77.9304 59.4515 77.7687C59.5028 76.5512 59.6486 75.3883 59.8887 74.28Z" fill="#238585"/>
<path fill-rule="evenodd" clip-rule="evenodd" d="M154.02 123.994C154.866 122.565 155.449 121.015 155.769 119.342C155.769 119.245 155.769 119.148 155.769 119.052C156.245 118.688 156.585 118.204 156.789 117.598C156.98 116.788 157.223 116.013 157.517 115.272C157.859 114.977 158.053 114.59 158.1 114.109C158.461 113.611 158.655 113.029 158.683 112.365C159.102 111.758 159.297 111.08 159.266 110.33C160.362 107.967 159.974 105.883 158.1 104.079C155.462 102.985 152.742 102.162 149.94 101.608C143.844 100.017 137.918 97.9333 132.163 95.3575C129.308 94.3301 126.491 94.4272 123.711 95.6482C118.448 98.1252 113.008 100.112 107.391 101.608C105.568 102.087 103.722 102.523 101.854 102.916C100.154 103.258 98.7459 104.081 97.6286 105.388C97.4342 106.647 97.4342 107.907 97.6286 109.167C97.6962 109.527 97.8419 109.817 98.0657 110.039C98.1803 110.558 98.3744 111.042 98.6486 111.493C98.996 112.598 99.3845 113.664 99.8143 114.691C100.009 115.078 100.203 115.466 100.397 115.854C100.621 116.914 101.009 117.883 101.563 118.761C101.681 119.695 101.972 120.568 102.437 121.377C102.298 122.505 102.59 123.474 103.311 124.285C103.349 124.783 103.446 125.268 103.603 125.738C103.937 127.174 104.423 128.531 105.06 129.808C106.031 132.13 107.44 134.165 109.286 135.914C109.486 136.155 109.438 136.349 109.14 136.495C106.607 134.986 104.616 132.951 103.166 130.39C100.647 125.08 98.4125 119.653 96.4629 114.109C96.0004 112.578 95.6119 111.027 95.2972 109.458C95.0305 107.584 95.1279 105.743 95.5886 103.934C96.682 103.024 97.8964 102.297 99.2315 101.753C107.417 100.065 115.286 97.4487 122.837 93.9039C125.981 92.4948 129.187 92.3011 132.454 93.3225C136.148 94.9383 139.888 96.4405 143.674 97.8287C148.646 99.3471 153.649 100.752 158.683 102.044C160.25 102.457 161.367 103.378 162.034 104.806C162.43 108.452 161.848 111.941 160.286 115.272C158.366 120.266 156.131 125.111 153.583 129.808C152.66 130.729 151.737 131.649 150.814 132.57C147.406 134.948 143.909 137.177 140.323 139.257C139.949 139.456 139.609 139.407 139.303 139.111C139.042 138.377 139.187 137.747 139.74 137.222C144.013 135.551 147.85 133.176 151.251 130.099C152.65 128.291 153.573 126.256 154.02 123.994Z" fill="#F2F3F4"/>
<path fill-rule="evenodd" clip-rule="evenodd" d="M149.94 101.608C152.742 102.162 155.462 102.985 158.1 104.079C159.974 105.883 160.362 107.966 159.266 110.33C159.275 110.04 159.129 109.846 158.829 109.748C155.111 110.226 151.371 110.468 147.609 110.475C142.496 111.425 137.348 112.103 132.163 112.51C137.074 113.357 142.028 113.696 147.026 113.528C149.843 113.479 152.66 113.431 155.477 113.382C156.466 112.82 157.534 112.481 158.683 112.365C158.655 113.029 158.461 113.611 158.1 114.109C158.032 113.936 157.886 113.839 157.663 113.818C155.967 114.68 154.17 115.213 152.272 115.417C148.114 117.302 143.937 119.144 139.74 120.941C137.797 121.167 135.951 121.699 134.203 122.54C135.651 122.878 137.108 122.927 138.574 122.686C143.47 121.806 148.23 120.449 152.854 118.615C154.594 117.705 156.148 116.591 157.517 115.272C157.223 116.013 156.98 116.788 156.789 117.598C156.586 118.204 156.245 118.688 155.769 119.052C155.764 118.607 155.569 118.462 155.186 118.615C150.67 121.595 146.104 124.503 141.489 127.337C139.148 128.408 136.817 129.474 134.494 130.535C139.213 129.786 143.779 128.429 148.192 126.465C149.558 125.686 150.821 124.766 151.98 123.703C153.149 122.151 154.412 120.697 155.769 119.342C155.449 121.015 154.866 122.565 154.02 123.994C154.058 123.779 154.01 123.585 153.874 123.412C146.678 130.758 137.984 134.924 127.792 135.913C127.44 135.7 127.051 135.603 126.626 135.623C126.043 135.72 125.46 135.817 124.877 135.913C122.643 133.408 119.826 132.099 116.426 131.989C111.644 130.069 107.272 127.501 103.312 124.285C102.59 123.474 102.299 122.505 102.437 121.377C104.752 123.405 107.18 125.295 109.723 127.046C112.187 128.593 114.859 129.417 117.737 129.518C118.811 129.555 119.831 129.41 120.797 129.081C117.761 127.781 114.75 126.425 111.763 125.011C108.529 122.625 105.129 120.541 101.563 118.761C101.009 117.883 100.621 116.914 100.397 115.854C104.017 118.774 108.097 120.857 112.637 122.104C115.581 123.007 118.592 123.686 121.672 124.139C123.042 124.38 124.402 124.332 125.752 123.994C121.816 122.41 117.833 120.908 113.803 119.488C109.342 117.197 104.727 115.308 99.9601 113.818C99.8194 114.094 99.771 114.385 99.8144 114.691C99.3846 113.664 98.9961 112.598 98.6487 111.493C99.7608 112.367 101.024 112.997 102.437 113.382C109.835 113.662 117.217 113.565 124.586 113.092C115.792 110.863 106.952 109.845 98.0658 110.039C97.842 109.817 97.6963 109.527 97.6287 109.167C97.4343 107.907 97.4343 106.647 97.6287 105.387C98.746 104.081 100.155 103.258 101.854 102.916C103.722 102.523 105.568 102.087 107.392 101.608C107.682 101.947 108.07 102.141 108.557 102.19C114.337 100.865 119.874 98.8787 125.169 96.2297C127.525 95.618 129.857 95.7148 132.163 96.5204C136.444 98.4139 140.815 100.061 145.277 101.463C146.635 101.719 147.995 101.961 149.357 102.19C149.711 102.118 149.905 101.924 149.94 101.608Z" fill="#27525C"/>
<path fill-rule="evenodd" clip-rule="evenodd" d="M67.4657 102.48C67.2553 103.83 67.0122 105.187 66.7371 106.55C66.4314 107.018 65.9943 107.211 65.4257 107.132C63.7176 106.933 62.5519 106.013 61.9286 104.37C61.4926 104.222 61.1525 104.368 60.9086 104.806C60.6186 105.569 60.5215 106.345 60.6171 107.132C61.1268 106.899 61.5153 107.093 61.7828 107.713C62.243 110.511 62.4374 113.321 62.3657 116.144C60.2123 113.317 58.1723 110.41 56.2457 107.422C56.0131 106.911 56.0618 106.426 56.3914 105.969C57.2736 105.534 57.7107 104.856 57.7028 103.934C52.8861 106.166 48.2719 108.734 43.86 111.638C44.5886 111.895 45.2685 112.235 45.9 112.656C48.037 117.695 50.1744 122.734 52.3114 127.773C53.4824 128.304 53.9195 129.176 53.6228 130.39C52.7226 131.31 52.2368 132.376 52.1657 133.588C55.2228 131.287 58.3315 129.059 61.4914 126.901C60.2488 124.846 60.7832 123.247 63.0943 122.104C64.0513 121.819 64.8286 122.061 65.4257 122.831C64.9568 123.54 64.2766 123.879 63.3857 123.848C63.4827 123.945 63.5801 124.042 63.6771 124.139C64.7362 124.428 65.8048 124.574 66.8828 124.575C66.6832 125.948 66.1974 127.208 65.4257 128.355C61.7301 130.682 58.1356 133.153 54.6428 135.768C48.4602 140.48 42.5343 145.52 36.8657 150.886C35.5618 151.75 34.2991 152.671 33.0771 153.648C32.6942 153.411 32.3541 153.121 32.0571 152.775C29.6287 149.093 27.2 145.411 24.7714 141.728C24.1518 141.182 23.4233 140.892 22.5857 140.856C15.9599 138.36 9.3542 135.744 2.76855 133.006C7.0773 130.808 11.3516 128.531 15.5914 126.174C27.3063 118.271 39.2548 110.712 51.4371 103.498C56.6683 100.547 62.2054 98.3664 68.0486 96.9564C67.909 98.804 67.7146 100.645 67.4657 102.48Z" fill="#0A212B"/>
<path fill-rule="evenodd" clip-rule="evenodd" d="M207.06 94.6307C207.35 94.6057 207.593 94.7028 207.788 94.9214C208.402 96.7451 209.616 97.908 211.431 98.4101C213.373 98.072 214.49 96.9091 214.783 94.9214C214.977 95.9875 214.977 97.0533 214.783 98.1194C214.054 98.8462 213.326 99.573 212.597 100.3C211.957 100.699 211.277 100.796 210.557 100.591C208.66 99.3773 207.3 97.7298 206.477 95.6482C206.616 95.2694 206.811 94.9304 207.06 94.6307Z" fill="#4995AD"/>
<path fill-rule="evenodd" clip-rule="evenodd" d="M149.94 101.608C149.905 101.924 149.711 102.118 149.357 102.19C147.995 101.961 146.635 101.719 145.277 101.463C140.815 100.061 136.444 98.4139 132.163 96.5204C129.857 95.7148 127.525 95.618 125.168 96.2297C119.874 98.8788 114.337 100.865 108.557 102.19C108.07 102.141 107.682 101.947 107.391 101.608C113.008 100.112 118.448 98.1252 123.711 95.6482C126.49 94.4272 129.308 94.3301 132.163 95.3575C137.918 97.9333 143.844 100.017 149.94 101.608Z" fill="#0F1821"/>
<path fill-rule="evenodd" clip-rule="evenodd" d="M183.746 61.4881C183.843 61.4881 183.94 61.4881 184.037 61.4881C183.967 63.1531 184.064 64.8006 184.328 66.4304C184.813 70.493 185.25 74.5631 185.64 78.6408C185.808 80.4584 186.148 82.2028 186.66 83.8738C186.924 86.2278 187.312 88.5536 187.826 90.8512C187.935 92.9956 188.324 95.0792 188.991 97.1018C191.244 97.3832 192.895 96.511 193.946 94.4853C194.119 94.3504 194.313 94.3018 194.528 94.3399C194.462 95.9723 195.19 96.5538 196.714 96.0842C197.028 96.3543 197.368 96.5482 197.734 96.6657C197.081 97.3826 196.304 97.9641 195.403 98.41C195.194 98.1743 194.951 97.9804 194.674 97.8286C193.806 99.0819 192.738 100.148 191.468 101.027C191.136 102.737 190.65 102.834 190.011 101.317C189.683 102.154 189.489 103.026 189.428 103.934C188.36 104.806 187.291 105.678 186.223 106.55C184.622 98.0347 183.116 89.5066 181.706 80.9666C180.367 70.8104 179.201 60.6351 178.208 50.4406C178.432 50.6624 178.578 50.9531 178.646 51.3128C178.743 50.8281 178.84 50.3438 178.937 49.8591C179.926 52.1419 180.266 54.4191 179.957 56.6911C180.031 57.0766 180.226 57.3674 180.54 57.5633C180.388 57.7264 180.291 57.9203 180.248 58.1448C180.397 58.6756 180.64 58.7242 180.977 58.2901C181.024 59.6373 181.267 60.9456 181.706 62.2149C181.171 63.1048 181.074 64.0252 181.414 64.9768C181.664 63.9357 181.955 63.8874 182.288 64.8314C182.055 65.7809 181.666 66.6531 181.123 67.4479C181.268 67.884 181.414 68.3201 181.56 68.7562C181.901 67.8826 182.241 67.0104 182.58 66.1397C182.774 66.4304 182.968 66.7211 183.163 67.0118C183.674 65.2111 183.868 63.3699 183.746 61.4881Z" fill="#F0C184"/>
<path fill-rule="evenodd" clip-rule="evenodd" d="M205.02 99.5729C203.238 100.622 201.489 101.737 199.774 102.916C199.371 102.604 198.691 102.458 197.734 102.48C198.236 101.541 198.916 100.717 199.774 100.009C200.794 99.1854 201.814 98.3615 202.834 97.5378C203.708 98.0707 204.437 98.749 205.02 99.5729Z" fill="#5CAECE"/>
<path fill-rule="evenodd" clip-rule="evenodd" d="M205.02 99.573C206.633 100.839 207.361 102.487 207.206 104.515C205.743 105.83 204.237 107.09 202.689 108.295C201.308 106.12 199.657 104.182 197.734 102.48C198.691 102.458 199.371 102.604 199.774 102.916C201.489 101.737 203.238 100.623 205.02 99.573Z" fill="#498BA7"/>
<path fill-rule="evenodd" clip-rule="evenodd" d="M118.757 102.771C119.927 102.723 121.093 102.771 122.254 102.916C117.375 104.506 112.518 106.154 107.683 107.859C105.882 108.474 104.037 108.813 102.146 108.876C102.191 108.477 102.143 108.089 102 107.713C101.395 107.255 100.957 106.674 100.688 105.969C106.841 105.45 112.864 104.384 118.757 102.771Z" fill="#060B17"/>
<path fill-rule="evenodd" clip-rule="evenodd" d="M133.911 103.062C138.621 103.078 143.284 103.805 147.9 105.242C150.814 105.339 153.729 105.436 156.643 105.533C155.975 106.526 155.343 107.543 154.749 108.585C154.439 108.759 154.099 108.856 153.729 108.876C147.013 107.298 140.408 105.36 133.911 103.062Z" fill="#070E19"/>
<path fill-rule="evenodd" clip-rule="evenodd" d="M212.014 108.876C211.626 108.876 211.237 108.876 210.849 108.876C210.951 109.615 210.951 110.293 210.849 110.911C210.58 110.678 210.288 110.629 209.974 110.766C204.793 115.839 199.353 120.588 193.654 125.011C193.435 125.206 193.338 125.449 193.363 125.738C192.963 125.692 192.574 125.741 192.197 125.883C190.775 126.965 189.318 127.983 187.826 128.936C187.203 128.877 186.717 128.586 186.369 128.064C185.405 128.737 184.434 129.027 183.454 128.936C195.037 119.955 206.16 110.361 216.823 100.154C218.356 97.9522 218.55 95.6264 217.406 93.1771C215.838 90.6856 213.652 89.8619 210.849 90.7059C213.053 90.8361 214.801 91.7566 216.094 93.4678C215.021 92.5444 213.855 91.963 212.597 91.7234C211.645 91.4365 210.673 91.3397 209.683 91.4327C209.683 91.0452 209.683 90.6574 209.683 90.2698C209.283 90.2242 208.894 90.2727 208.517 90.4152C209.226 90.7312 209.129 90.8766 208.226 90.8513C208.337 91.5612 208.142 91.7551 207.643 91.4327C206.117 92.3223 204.709 93.3881 203.417 94.6307C203.345 94.3039 203.199 94.0132 202.98 93.7585C202.3 94.3411 201.717 95.0194 201.231 95.7936C200.899 95.4081 200.51 95.1173 200.066 94.9214C200.345 94.4964 200.685 94.1088 201.086 93.7585C201.229 93.3826 201.277 92.9948 201.231 92.5956C201.866 92.6206 202.449 92.8145 202.98 93.1771C204.48 92.0206 205.937 90.8091 207.351 89.543C210.022 87.9318 212.743 87.8347 215.511 89.2523C220.926 92.9977 221.557 97.4071 217.406 102.48C215.754 103.934 214.103 105.387 212.451 106.841C212.101 107.474 211.955 108.153 212.014 108.876Z" fill="#0B0C16"/>
<path fill-rule="evenodd" clip-rule="evenodd" d="M65.4256 107.132C65.3035 108.374 65.4979 109.537 66.0084 110.62C65.7292 110.489 65.4862 110.295 65.2799 110.039C64.6343 112.905 64.4403 115.813 64.697 118.761C65.6692 119.972 66.6892 121.135 67.757 122.249C67.9528 123.25 67.6614 124.025 66.8827 124.575C65.8047 124.574 64.7361 124.428 63.677 124.139C63.58 124.042 63.4826 123.945 63.3856 123.848C64.2765 123.88 64.9567 123.54 65.4256 122.831C64.8284 122.061 64.0512 121.819 63.0941 122.104C60.7831 123.247 60.2486 124.846 61.4913 126.901C58.3313 129.059 55.2227 131.287 52.1656 133.588C52.2367 132.377 52.7225 131.31 53.6227 130.39C53.9194 129.176 53.4823 128.304 52.3113 127.773C50.1742 122.734 48.0369 117.695 45.8999 112.656C45.2683 112.235 44.5884 111.895 43.8599 111.638C48.2718 108.734 52.886 106.166 57.7027 103.934C57.7106 104.856 57.2734 105.534 56.3913 105.969C56.0617 106.427 56.013 106.911 56.2456 107.423C58.1722 110.41 60.2122 113.318 62.3656 116.144C62.4373 113.321 62.2429 110.511 61.7827 107.713C61.5152 107.093 61.1267 106.9 60.617 107.132C60.5214 106.345 60.6185 105.569 60.9084 104.806C61.1524 104.368 61.4925 104.223 61.9284 104.37C62.5518 106.013 63.7175 106.933 65.4256 107.132Z" fill="#F5F7F7"/>
<path fill-rule="evenodd" clip-rule="evenodd" d="M49.9799 108.585C50.7877 108.504 51.5163 108.698 52.1656 109.167C54.2056 113.818 56.2456 118.47 58.2856 123.122C58.7703 124.283 59.4015 125.349 60.1799 126.32C59.623 127.398 58.7974 127.786 57.7028 127.482C55.1609 122.007 52.7324 116.483 50.417 110.911C50.1026 110.166 49.9569 109.391 49.9799 108.585Z" fill="#0B222D"/>
<path fill-rule="evenodd" clip-rule="evenodd" d="M212.014 108.876C214.724 110.228 217.347 111.73 219.883 113.382C230.052 120.539 240.64 127.032 251.649 132.861C244.635 136.033 237.446 138.746 230.083 141.001C226.981 145.499 223.775 149.908 220.466 154.229C215.93 150.237 211.267 146.409 206.477 142.745C200.288 138.263 194.071 133.854 187.826 129.518C187.826 129.324 187.826 129.13 187.826 128.936C189.318 127.982 190.775 126.965 192.197 125.883C192.574 125.741 192.963 125.692 193.363 125.738C193.785 125.922 193.979 126.262 193.946 126.756C193.626 127.705 193.238 128.625 192.78 129.518C198.173 132.858 203.419 136.443 208.517 140.274C208.809 140.177 209.003 139.984 209.1 139.693C208.24 139.223 207.463 138.642 206.769 137.948C206.498 137.58 206.449 137.192 206.623 136.786C207.681 136.021 208.653 135.149 209.537 134.169C210.874 131.987 212.137 129.759 213.326 127.482C213.577 127.944 213.771 128.428 213.909 128.936C214.103 131.456 214.103 133.975 213.909 136.495C213.824 136.944 213.63 137.331 213.326 137.658C212.921 137.351 212.484 137.303 212.014 137.512C210.549 138.452 209.821 139.76 209.829 141.437C213.131 143.957 216.434 146.476 219.737 148.996C219.426 147.988 218.941 147.019 218.28 146.089C219.537 143.885 220.897 141.656 222.36 139.402C223.103 138.113 223.686 136.756 224.109 135.332C224.715 134.86 225.346 134.424 226.003 134.024C227.79 131.381 229.392 128.619 230.811 125.738C231.876 126.979 232.411 128.433 232.414 130.099C234.006 129.536 235.561 128.858 237.077 128.064C235.911 127.289 234.746 126.513 233.58 125.738C233.009 126.101 232.572 126.586 232.269 127.192C232.068 126.59 232.117 126.009 232.414 125.447C232.177 125.065 231.886 124.726 231.54 124.43C228.471 122.289 225.363 120.206 222.214 118.179C222.058 120.106 221.766 121.995 221.34 123.848C219.072 124.83 216.741 125.508 214.346 125.883C216.022 122.908 218.062 120.243 220.466 117.889C219.179 116.462 217.673 115.299 215.949 114.4C215.291 114.571 214.805 114.959 214.491 115.563C211.331 121.775 208.125 127.88 204.874 133.878C205.774 134.752 205.725 135.624 204.729 136.495C203.197 135.747 202.225 134.584 201.814 133.006C202.405 133.053 202.988 133.005 203.563 132.861C202.857 132.279 202.614 131.552 202.834 130.68C205.943 125.253 209.051 119.827 212.16 114.4C213.014 113.945 213.937 113.702 214.929 113.673C213.398 112.961 212.038 112.041 210.849 110.911C210.951 110.293 210.951 109.615 210.849 108.876C211.237 108.876 211.626 108.876 212.014 108.876Z" fill="#0A202A"/>
<path fill-rule="evenodd" clip-rule="evenodd" d="M159.266 110.33C159.297 111.08 159.102 111.758 158.683 112.365C157.534 112.481 156.466 112.82 155.477 113.382C152.66 113.431 149.843 113.479 147.026 113.528C142.028 113.696 137.074 113.357 132.163 112.51C137.347 112.103 142.496 111.425 147.609 110.475C151.371 110.468 155.111 110.226 158.829 109.748C159.129 109.846 159.274 110.04 159.266 110.33Z" fill="#060B18"/>
<path fill-rule="evenodd" clip-rule="evenodd" d="M98.6485 111.493C98.3743 111.042 98.1802 110.558 98.0657 110.039C106.952 109.845 115.792 110.863 124.586 113.092C117.217 113.565 109.834 113.662 102.437 113.382C101.023 112.997 99.7606 112.367 98.6485 111.493Z" fill="#060A18"/>
<path fill-rule="evenodd" clip-rule="evenodd" d="M66.0085 110.621C66.9151 112.506 67.741 114.444 68.4856 116.435C68.5221 118.439 68.279 120.377 67.7571 122.249C66.6893 121.135 65.6693 119.973 64.6971 118.761C64.4403 115.813 64.6344 112.905 65.2799 110.039C65.4862 110.295 65.7293 110.489 66.0085 110.621Z" fill="#0F242E"/>
<path fill-rule="evenodd" clip-rule="evenodd" d="M42.6944 112.074C42.9847 112.049 43.2275 112.146 43.423 112.365C45.623 118.367 48.0515 124.278 50.7087 130.099C51.0727 132.652 50.1501 133.378 47.9402 132.279C47.3086 131.649 46.6774 131.02 46.0459 130.39C43.8928 125.884 41.8528 121.329 39.9259 116.726C39.6473 116.412 39.4045 116.073 39.1973 115.708C38.5384 115.639 37.9555 115.59 37.4487 115.563C39.2058 114.397 40.9543 113.234 42.6944 112.074Z" fill="#F6F8F7"/>
<path fill-rule="evenodd" clip-rule="evenodd" d="M183.746 125.738C175.853 132.053 167.887 138.304 159.849 144.49C156.071 147.244 152.186 149.812 148.191 152.194C145.811 151.855 144.354 150.499 143.82 148.124C149.885 143.403 156.005 138.751 162.18 134.169C171.805 128.008 181.034 121.273 189.866 113.964C190.287 113.737 190.675 113.785 191.031 114.109C190.739 115.325 190.301 116.488 189.72 117.598C187.652 120.277 185.66 122.99 183.746 125.738Z" fill="#4A8CA8"/>
<path fill-rule="evenodd" clip-rule="evenodd" d="M100.397 115.854C100.203 115.466 100.009 115.078 99.8142 114.691C99.7708 114.385 99.8192 114.094 99.9599 113.818C104.727 115.308 109.341 117.197 113.803 119.488C117.833 120.908 121.816 122.41 125.751 123.994C124.402 124.332 123.042 124.38 121.671 124.139C118.592 123.686 115.581 123.007 112.637 122.104C108.096 120.857 104.016 118.774 100.397 115.854Z" fill="#060B18"/>
<path fill-rule="evenodd" clip-rule="evenodd" d="M158.1 114.109C158.053 114.59 157.859 114.977 157.517 115.272C156.148 116.591 154.594 117.705 152.854 118.615C148.23 120.449 143.469 121.806 138.574 122.686C137.108 122.927 135.65 122.878 134.203 122.54C135.951 121.699 137.796 121.167 139.74 120.941C143.937 119.144 148.114 117.302 152.271 115.417C154.17 115.213 155.967 114.68 157.663 113.818C157.886 113.839 158.032 113.936 158.1 114.109Z" fill="#070C1A"/>
<path fill-rule="evenodd" clip-rule="evenodd" d="M59.5972 117.307C59.6147 117.149 59.7117 117.052 59.8886 117.016C61.0937 118.214 62.162 119.474 63.0943 120.796C62.5913 120.887 62.1055 120.936 61.6372 120.941C60.9902 119.697 60.3103 118.486 59.5972 117.307Z" fill="#192F3A"/>
<path fill-rule="evenodd" clip-rule="evenodd" d="M101.563 118.761C105.128 120.541 108.528 122.624 111.763 125.011C114.75 126.425 117.761 127.781 120.797 129.081C119.831 129.41 118.811 129.555 117.737 129.518C114.858 129.417 112.187 128.593 109.723 127.046C107.18 125.294 104.751 123.405 102.437 121.377C101.972 120.568 101.681 119.695 101.563 118.761Z" fill="#070A19"/>
<path fill-rule="evenodd" clip-rule="evenodd" d="M155.769 119.051C155.769 119.148 155.769 119.245 155.769 119.342C154.412 120.697 153.149 122.151 151.98 123.703C150.821 124.766 149.558 125.686 148.192 126.465C143.779 128.429 139.213 129.786 134.494 130.535C136.817 129.474 139.148 128.408 141.489 127.337C146.104 124.503 150.67 121.595 155.186 118.615C155.569 118.462 155.764 118.607 155.769 119.051Z" fill="#080A19"/>
<path fill-rule="evenodd" clip-rule="evenodd" d="M168.3 128.936C168.268 128.757 168.171 128.611 168.009 128.5C168.456 128.177 168.651 127.741 168.591 127.192C172.603 124.113 176.586 120.964 180.54 117.743C180.993 117.368 181.479 117.175 181.997 117.162C177.461 121.156 172.896 125.081 168.3 128.936Z" fill="#D7D9DD"/>
<path fill-rule="evenodd" clip-rule="evenodd" d="M32.4944 118.47C32.7858 118.47 33.0772 118.47 33.3686 118.47C33.3095 119.092 33.0181 119.576 32.4944 119.924C34.6206 124.9 36.8063 129.842 39.0515 134.751C39.6935 136.275 40.5191 137.68 41.5286 138.966C43.4824 139.245 44.4053 138.421 44.2972 136.495C42.8511 135.432 41.394 134.366 39.9258 133.297C39.1602 132.012 38.4316 130.704 37.7401 129.372C37.8371 129.324 37.9345 129.275 38.0315 129.227C42.1946 131.127 46.3716 132.968 50.5629 134.751C46.8609 138.104 43.0237 141.302 39.0515 144.344C38.9664 143.814 39.0151 143.281 39.1972 142.745C39.215 142.248 39.0206 141.86 38.6144 141.583C36.1859 140.08 33.7571 138.578 31.3286 137.076C31.0311 137.222 30.9824 137.416 31.1829 137.658C33.6067 139.976 35.6954 142.545 37.4486 145.362C36.4403 146.756 35.2259 147.967 33.8058 148.996C33.9407 148.045 34.3292 147.173 34.9715 146.379C35.1659 145.798 35.1659 145.217 34.9715 144.635C33.9803 144.094 33.1061 143.416 32.3486 142.6C31.0451 139.612 29.5879 136.704 27.9772 133.878C25.821 132.392 23.5382 131.18 21.1286 130.244C20.1572 129.566 19.1858 128.887 18.2144 128.209C20.4972 126.707 22.7801 125.205 25.0629 123.703C25.5001 123.945 25.8401 124.284 26.0829 124.721C24.9225 124.945 24.4368 125.575 24.6258 126.61C27.8373 128.838 31.1401 130.825 34.5344 132.57C32.7715 129.489 31.12 126.34 29.5801 123.122C28.9486 122.701 28.2686 122.361 27.5401 122.104C29.2111 120.886 30.8626 119.675 32.4944 118.47Z" fill="#F6F8F7"/>
<path opacity="0.994" fill-rule="evenodd" clip-rule="evenodd" d="M72.42 97.8287C71.8421 101.3 71.3563 104.789 70.9629 108.295C71.2616 111.846 71.7474 115.334 72.42 118.761C72.17 122.468 71.344 126.054 69.9429 129.518C69.1172 130.341 68.2913 131.165 67.4657 131.989C55.1718 139.996 43.9518 149.348 33.8057 160.044C32.2037 162.224 30.8436 164.55 29.7257 167.021C29.113 168.264 29.2585 169.427 30.1629 170.51C29.4343 171.382 28.7057 172.254 27.9771 173.126C27.88 173.902 27.7828 174.677 27.6857 175.452C23.3315 179.681 19.8344 184.527 17.1943 189.988C16.0478 192.526 15.4164 195.143 15.3 197.838C23.1691 195.26 31.2318 193.612 39.4886 192.895C41.479 192.738 43.3249 193.174 45.0257 194.204C46.206 195.54 47.4204 196.848 48.6686 198.128C56.5701 209.209 64.5844 220.208 72.7114 231.126C73.2943 231.32 73.8771 231.32 74.46 231.126C76.8416 229.695 79.27 228.338 81.7457 227.055C82.0371 226.862 82.3286 226.862 82.62 227.055C93.1546 234.395 103.937 241.372 114.969 247.988C124.203 253.002 133.334 252.808 142.363 247.406C152.718 240.934 162.821 234.102 172.671 226.91C175.54 228.486 178.454 229.989 181.414 231.416C181.706 231.61 181.997 231.61 182.289 231.416C183.217 230.578 184.042 229.657 184.766 228.654C191.298 220.058 197.758 211.434 204.146 202.78C204.108 203.035 204.205 203.229 204.437 203.361C205.719 202.425 206.739 202.619 207.497 203.943C207.937 203.24 208.568 202.949 209.391 203.071C209.087 201.628 209.573 201.143 210.849 201.617C203.057 212.023 195.334 222.489 187.68 233.015C186.854 234.033 185.931 234.954 184.911 235.777C183.48 236.211 182.023 236.308 180.54 236.068C178.274 235.107 175.991 234.186 173.691 233.306C173.4 233.403 173.109 233.5 172.817 233.597C163.011 240.07 153.151 246.418 143.237 252.639C139.307 254.834 135.13 256.24 130.706 256.855C129.249 256.855 127.791 256.855 126.334 256.855C121.177 256.245 116.32 254.646 111.763 252.058C101.757 245.759 91.7513 239.46 81.7457 233.161C81.4543 232.967 81.1629 232.967 80.8714 233.161C78.8005 234.291 76.6635 235.26 74.46 236.068C70.3217 236.692 67.6502 234.996 66.4457 230.98C61.5573 224.747 56.8944 218.351 52.4571 211.792C49.1392 207.611 45.9335 203.347 42.84 199.001C42.4862 198.55 42.0491 198.211 41.5286 197.983C37.8965 197.77 34.3023 198.06 30.7457 198.855C24.7171 200.242 18.6943 201.647 12.6771 203.071C11.7234 202.911 10.9948 202.426 10.4914 201.617C10.2971 199.485 10.2971 197.353 10.4914 195.221C11.3837 192.938 12.1609 190.613 12.8229 188.244C14.4008 185.386 16.0522 182.575 17.7771 179.813C20.3029 176.712 22.8286 173.611 25.3543 170.51C25.0945 168.767 25.1916 167.023 25.6457 165.277C27.0203 162.744 28.6231 160.37 30.4543 158.154C27.3069 153.375 24.1983 148.578 21.1286 143.763C20.8754 143.119 20.7783 142.44 20.8371 141.728C20.0277 141.867 19.4448 141.576 19.0886 140.856C19.8757 140.653 20.6043 140.847 21.2743 141.437C21.5977 140.99 22.0348 140.797 22.5857 140.856C23.4233 140.892 24.1518 141.182 24.7714 141.728C27.2 145.411 29.6287 149.093 32.0571 152.776C32.3541 153.121 32.6942 153.411 33.0771 153.648C34.2991 152.671 35.5619 151.75 36.8657 150.886C42.5343 145.52 48.4602 140.481 54.6429 135.768C58.1356 133.153 61.7301 130.682 65.4257 128.355C66.1974 127.208 66.6832 125.948 66.8829 124.575C67.6616 124.026 67.953 123.25 67.7571 122.249C68.2791 120.377 68.5221 118.439 68.4857 116.435C67.7411 114.444 66.9152 112.506 66.0086 110.621C65.498 109.537 65.3036 108.374 65.4257 107.132C65.9943 107.211 66.4314 107.018 66.7371 106.55C67.0122 105.187 67.2553 103.83 67.4657 102.48C67.7053 101.931 67.948 101.35 68.1943 100.736C68.2441 99.1765 68.3898 97.6258 68.6314 96.0843C69.0543 95.4857 69.6371 95.195 70.38 95.2122C70.38 94.8246 70.38 94.4368 70.38 94.0493C70.7653 94.0987 71.1054 94.0019 71.4 93.7585C71.9654 95.0534 72.3052 96.4099 72.42 97.8287Z" fill="#EDC07D"/>
<path fill-rule="evenodd" clip-rule="evenodd" d="M103.603 125.738C104.112 126.59 104.695 127.414 105.351 128.209C105.087 128.703 104.99 129.236 105.06 129.808C104.423 128.531 103.937 127.174 103.603 125.738Z" fill="#444C5D"/>
<path fill-rule="evenodd" clip-rule="evenodd" d="M210.849 110.911C212.038 112.041 213.398 112.961 214.929 113.673C213.937 113.702 213.014 113.945 212.16 114.4C209.051 119.827 205.943 125.253 202.834 130.68C202.614 131.552 202.857 132.279 203.563 132.861C202.988 133.005 202.405 133.053 201.814 133.006C202.226 134.584 203.197 135.747 204.729 136.495C205.725 135.624 205.774 134.752 204.874 133.878C208.125 127.88 211.331 121.775 214.491 115.563C214.805 114.959 215.291 114.571 215.949 114.4C217.673 115.299 219.179 116.462 220.466 117.889C218.062 120.243 216.022 122.908 214.346 125.883C216.741 125.508 219.072 124.83 221.34 123.848C221.766 121.995 222.058 120.106 222.214 118.179C225.363 120.206 228.471 122.289 231.54 124.43C231.886 124.726 232.177 125.065 232.414 125.447C232.117 126.009 232.068 126.591 232.269 127.192C232.572 126.586 233.009 126.101 233.58 125.738C234.746 126.513 235.911 127.289 237.077 128.064C235.561 128.858 234.006 129.536 232.414 130.099C232.411 128.433 231.876 126.979 230.811 125.738C229.392 128.619 227.79 131.381 226.003 134.024C225.346 134.424 224.715 134.86 224.109 135.332C223.686 136.756 223.103 138.113 222.36 139.402C220.897 141.656 219.537 143.885 218.28 146.089C218.941 147.019 219.427 147.988 219.737 148.996C216.434 146.476 213.131 143.957 209.829 141.437C209.821 139.76 210.549 138.452 212.014 137.512C212.484 137.303 212.921 137.351 213.326 137.658C213.63 137.331 213.824 136.944 213.909 136.495C214.103 133.975 214.103 131.456 213.909 128.936C213.771 128.428 213.577 127.944 213.326 127.482C212.137 129.759 210.874 131.988 209.537 134.169C208.653 135.149 207.681 136.021 206.623 136.786C206.449 137.192 206.498 137.58 206.769 137.949C207.463 138.642 208.24 139.223 209.1 139.693C209.003 139.984 208.809 140.177 208.517 140.274C203.419 136.443 198.173 132.858 192.78 129.518C193.238 128.625 193.626 127.705 193.946 126.756C193.979 126.262 193.785 125.922 193.363 125.738C193.338 125.449 193.435 125.206 193.654 125.011C199.353 120.588 204.793 115.839 209.974 110.766C210.288 110.629 210.58 110.678 210.849 110.911Z" fill="#F5F7F6"/>
<path fill-rule="evenodd" clip-rule="evenodd" d="M216.094 127.773C217.041 127.748 217.867 128.039 218.571 128.645C218.49 129.381 218.101 129.962 217.406 130.39C216.5 129.746 216.063 128.874 216.094 127.773Z" fill="#182B35"/>
<path fill-rule="evenodd" clip-rule="evenodd" d="M225.711 123.122C226.342 123.01 226.828 123.204 227.169 123.703C225.844 126.637 224.435 129.544 222.943 132.425C222.152 133.364 221.132 133.897 219.883 134.024C218.747 135.193 218.115 136.598 217.989 138.239C217.891 139.693 217.794 141.147 217.697 142.6C217.132 143.442 216.403 144.12 215.511 144.635C214.608 144.171 213.83 143.541 213.18 142.746C214.856 139.45 216.41 136.107 217.843 132.716C218.407 132.524 218.941 132.427 219.446 132.425C220.903 130.002 222.36 127.579 223.817 125.157C224.321 124.334 224.952 123.656 225.711 123.122Z" fill="#0B212C"/>
<path fill-rule="evenodd" clip-rule="evenodd" d="M205.02 118.47C205.194 118.538 205.291 118.684 205.311 118.906C204.41 122.26 203.487 125.604 202.543 128.936C201.036 130.122 199.336 130.752 197.443 130.826C196.775 130.451 196.192 129.966 195.694 129.372C197.139 127.411 198.547 125.424 199.92 123.412C201.59 121.698 203.29 120.05 205.02 118.47Z" fill="#0B212B"/>
<path fill-rule="evenodd" clip-rule="evenodd" d="M105.934 128.936C107.732 130.486 109.578 131.988 111.471 133.442C110.714 133.406 110.034 133.115 109.431 132.57C108.342 131.519 107.225 130.501 106.08 129.517C105.945 129.345 105.896 129.151 105.934 128.936Z" fill="#264254"/>
<path fill-rule="evenodd" clip-rule="evenodd" d="M123.42 141.147C122.585 139.044 121.42 137.154 119.923 135.477C117.542 134.897 116.474 135.818 116.717 138.239C115.562 135.073 116.728 133.764 120.214 134.314C122.337 136.51 123.746 139.078 124.44 142.019C124.106 141.688 123.766 141.398 123.42 141.147Z" fill="#E8E1D4"/>
<path fill-rule="evenodd" clip-rule="evenodd" d="M123.42 141.146C121.751 141.142 120.1 141.19 118.466 141.292C117.618 140.424 117.035 139.406 116.717 138.239C116.473 135.818 117.542 134.897 119.923 135.477C121.42 137.154 122.585 139.044 123.42 141.146Z" fill="#EFB689"/>
<path fill-rule="evenodd" clip-rule="evenodd" d="M126.626 135.623C131.684 141.157 136.104 147.166 139.886 153.648C146.056 161.839 151.884 170.27 157.371 178.941C157.549 179.421 157.694 179.906 157.809 180.394C157.709 180.638 157.515 180.735 157.226 180.685C157.165 179.676 156.824 179.676 156.206 180.685C155.848 181.688 155.411 182.657 154.894 183.592C154.669 183.944 154.426 183.944 154.166 183.592C150.278 177.19 146.1 170.987 141.634 164.986C140.114 161.953 138.754 158.852 137.554 155.683C136.735 153.854 135.764 152.11 134.64 150.45C132.821 148.936 130.83 147.676 128.666 146.67C128.43 144.828 128.188 142.986 127.937 141.146C126.987 139.346 125.967 137.602 124.877 135.913C125.46 135.817 126.043 135.719 126.626 135.623Z" fill="#0D3140"/>
<path fill-rule="evenodd" clip-rule="evenodd" d="M77.9571 123.703C78.1675 123.825 78.3133 124.018 78.3943 124.285C78.2623 122.317 77.9222 120.379 77.3743 118.47C77.5981 118.248 77.7438 117.958 77.8114 117.598C77.9994 117.931 78.2421 118.222 78.54 118.47C81.6329 123.768 84.4985 129.195 87.1371 134.751C89.4208 138.533 91.8495 142.215 94.4228 145.798C94.6394 147.098 94.9795 148.358 95.4428 149.578C94.4642 149.544 93.6386 149.06 92.9657 148.124C89.5656 143.86 86.1658 139.596 82.7657 135.332C80.3177 131.949 78.6178 128.218 77.6657 124.139C77.6861 123.917 77.7831 123.771 77.9571 123.703Z" fill="#0D2D3C"/>
<path fill-rule="evenodd" clip-rule="evenodd" d="M64.26 152.194C63.6929 151.975 63.4501 151.587 63.5314 151.031C64.0266 151.294 64.561 151.391 65.1343 151.322C65.0751 150.772 65.2692 150.336 65.7171 150.014C69.1732 148.892 71.4562 146.614 72.5657 143.181C72.9647 141.68 73.4018 140.227 73.8771 138.821C74.1482 139.841 74.0511 140.859 73.5857 141.873C73.7343 142.404 73.9774 142.453 74.3143 142.019C75.3264 139.143 76.2494 136.236 77.0828 133.297C80.8429 140.85 84.34 148.554 87.5743 156.409C84.4207 152.651 81.6521 148.338 79.2686 143.472C78.4558 141.101 77.8729 138.678 77.52 136.204C77.3434 138.829 77.4404 141.445 77.8114 144.054C79.6975 150.474 81.9319 156.773 84.5143 162.951C84.813 166.085 84.6189 169.186 83.9314 172.254C82.6133 170.402 81.1561 168.658 79.56 167.021C75.5858 161.022 70.7285 155.886 64.9886 151.612C64.6094 151.653 64.3666 151.847 64.26 152.194Z" fill="#0E2F3F"/>
<path fill-rule="evenodd" clip-rule="evenodd" d="M114.969 138.821C115.575 139.897 116.158 141.011 116.717 142.164C114.086 143.766 111.463 145.365 108.849 146.961C108.766 146.732 108.62 146.538 108.411 146.38C108.217 144.829 108.217 143.278 108.411 141.728C109.738 140.377 111.341 139.457 113.22 138.966C113.795 138.822 114.378 138.774 114.969 138.821Z" fill="#EEB587"/>
<path fill-rule="evenodd" clip-rule="evenodd" d="M179.957 138.239C180.152 138.821 180.346 139.402 180.54 139.984C179.787 143.291 178.864 146.587 177.772 149.868C177.256 152.08 176.965 154.309 176.897 156.555C178.41 152.113 179.478 147.558 180.103 142.891C180.31 142.463 180.65 142.269 181.123 142.309C181.659 143.521 182.144 144.781 182.58 146.089C182.025 147.817 181.928 149.561 182.289 151.322C181.94 152.607 181.503 153.867 180.977 155.101C177.559 162.018 174.062 168.898 170.486 175.743C170.097 176.13 169.709 176.518 169.32 176.906C168.911 175.196 168.328 173.548 167.572 171.963C167.782 169.183 168.365 166.469 169.32 163.823C171.515 156.961 174.332 150.372 177.772 144.054C178.375 142.033 179.104 140.096 179.957 138.239Z" fill="#0D2E3F"/>
<path fill-rule="evenodd" clip-rule="evenodd" d="M168.591 127.192C168.651 127.741 168.457 128.177 168.009 128.5C168.171 128.611 168.268 128.757 168.3 128.936C166.194 130.614 164.154 132.359 162.18 134.169C156.005 138.751 149.885 143.403 143.82 148.124C143.28 147.827 142.892 147.391 142.654 146.816C151.195 140.133 159.841 133.592 168.591 127.192Z" fill="#EEF5F6"/>
<path fill-rule="evenodd" clip-rule="evenodd" d="M183.454 128.936C176.715 133.961 170.012 139.049 163.346 144.199C158.516 147.65 153.61 150.994 148.629 154.229C148.278 153.596 148.133 152.918 148.191 152.194C152.185 149.812 156.071 147.244 159.849 144.49C167.887 138.303 175.853 132.053 183.746 125.738C187.869 122.759 191.949 119.706 195.986 116.58C202.543 110.814 209.1 105.048 215.657 99.2822C216.824 97.4242 216.97 95.4862 216.094 93.4677C214.801 91.7565 213.053 90.8361 210.849 90.7058C213.652 89.8619 215.838 90.6855 217.406 93.177C218.55 95.6263 218.355 97.9521 216.823 100.154C206.16 110.361 195.037 119.955 183.454 128.936Z" fill="#F0F3F5"/>
<path fill-rule="evenodd" clip-rule="evenodd" d="M114.969 138.821C114.378 138.774 113.795 138.822 113.22 138.966C111.341 139.457 109.738 140.377 108.411 141.728C108.217 143.278 108.217 144.829 108.411 146.38C108.62 146.538 108.766 146.732 108.849 146.961C108.587 147.28 108.344 147.28 108.12 146.961C107.322 144.848 107.224 142.716 107.829 140.565C109.831 138.931 112.113 138.107 114.677 138.094C114.896 138.289 114.994 138.531 114.969 138.821Z" fill="#E5E0DC"/>
<path fill-rule="evenodd" clip-rule="evenodd" d="M123.42 146.961C123.838 147.349 124.226 147.785 124.586 148.269C123.443 148.792 122.277 149.228 121.089 149.578C118.537 149.754 116.302 150.674 114.386 152.339C113.803 152.436 113.22 152.533 112.637 152.63C112.425 153.037 112.28 153.473 112.2 153.938C111.7 154.244 111.409 154.051 111.326 153.357C111.311 154.009 111.068 154.494 110.597 154.811C110.549 153.16 110.597 151.513 110.743 149.868C110.972 148.972 111.506 148.342 112.346 147.979C114.516 146.627 116.848 145.707 119.34 145.217C120.676 145.329 121.793 145.91 122.691 146.961C122.916 146.642 123.159 146.642 123.42 146.961Z" fill="#F4B784"/>
<path fill-rule="evenodd" clip-rule="evenodd" d="M216.969 166.73C216.127 164.577 214.767 162.784 212.889 161.352C210.243 159.009 207.231 157.264 203.854 156.119C202.98 155.925 202.106 155.925 201.231 156.119C199.451 156.817 197.702 157.495 195.986 158.154C197.657 156.972 199.406 155.906 201.231 154.956C196.277 153.115 191.323 151.273 186.369 149.432C184.788 148.989 183.622 148.068 182.871 146.67C182.774 146.476 182.677 146.283 182.58 146.089C182.144 144.781 181.658 143.521 181.123 142.309C180.928 141.534 180.734 140.759 180.54 139.984C180.346 139.402 180.152 138.821 179.957 138.239C179.865 137.346 179.962 136.474 180.249 135.623C181.88 138.198 183.288 140.912 184.474 143.763C185.079 144.949 185.905 145.966 186.951 146.816C192.348 148.902 197.788 150.937 203.271 152.921C209.533 155.974 214.827 160.189 219.154 165.567C219.533 166.38 219.97 167.155 220.466 167.893C220.417 167.99 220.369 168.087 220.32 168.184C219.286 167.498 218.169 167.014 216.969 166.73Z" fill="#F3F4F5"/>
<path fill-rule="evenodd" clip-rule="evenodd" d="M123.42 146.961C123.159 146.642 122.916 146.642 122.692 146.961C121.793 145.91 120.676 145.329 119.34 145.217C116.848 145.707 114.516 146.627 112.346 147.978C111.506 148.342 110.972 148.972 110.743 149.868C110.598 151.513 110.549 153.16 110.597 154.81C109.562 154.146 109.076 153.176 109.14 151.903C109.079 150.135 109.759 148.73 111.18 147.688C113.75 145.92 116.567 144.806 119.632 144.344C121.551 144.283 122.814 145.156 123.42 146.961Z" fill="#EADFD7"/>
<path fill-rule="evenodd" clip-rule="evenodd" d="M106.517 146.961C106.878 147.459 107.072 148.041 107.1 148.705C107.152 149.969 106.618 150.938 105.497 151.613C104.739 152.835 104.059 154.095 103.457 155.392C102.952 155.959 102.32 156.25 101.563 156.264C101.368 156.07 101.174 155.877 100.98 155.683C100.454 153.875 100.066 152.034 99.8142 150.159C100.084 148.126 101.25 146.915 103.311 146.525C104.449 146.267 105.517 146.412 106.517 146.961Z" fill="#F4B882"/>
<path fill-rule="evenodd" clip-rule="evenodd" d="M180.54 139.984C180.734 140.759 180.929 141.534 181.123 142.309C180.65 142.269 180.31 142.463 180.103 142.891C179.478 147.558 178.41 152.113 176.897 156.555C176.965 154.309 177.256 152.08 177.772 149.868C178.864 146.587 179.787 143.292 180.54 139.984Z" fill="#08111C"/>
<path fill-rule="evenodd" clip-rule="evenodd" d="M182.58 146.089C182.677 146.283 182.774 146.476 182.872 146.67C182.646 147.987 182.452 149.344 182.289 150.74C182.289 150.934 182.289 151.128 182.289 151.322C181.928 149.561 182.025 147.817 182.58 146.089Z" fill="#9FB9BF"/>
<path fill-rule="evenodd" clip-rule="evenodd" d="M106.517 146.961C105.517 146.412 104.449 146.267 103.311 146.525C101.25 146.915 100.084 148.127 99.8143 150.159C100.066 152.034 100.454 153.875 100.98 155.683C99.7426 154.648 99.1111 153.292 99.0857 151.613C98.5335 146.639 100.719 144.556 105.643 145.362C106.127 145.795 106.418 146.328 106.517 146.961Z" fill="#EEE3DC"/>
<path fill-rule="evenodd" clip-rule="evenodd" d="M73.877 138.821C73.4016 140.227 72.9645 141.68 72.5655 143.182C71.4561 146.614 69.173 148.892 65.717 150.014C65.269 150.336 65.0749 150.772 65.1341 151.322C64.5609 151.391 64.0264 151.294 63.5312 151.031C63.4499 151.587 63.6927 151.975 64.2598 152.194C65.6199 153.357 66.8827 154.617 68.0484 155.973C66.7297 155.226 65.3696 154.305 63.9684 153.211C62.9647 152.614 61.896 152.178 60.7627 151.903C52.3401 153.517 45.2001 157.394 39.3427 163.532C38.4964 164.446 37.9619 165.512 37.7398 166.73C37.3636 166.661 37.0722 166.758 36.8655 167.021C35.9129 167.133 35.0869 167.52 34.3884 168.184C34.3397 168.038 34.2913 167.893 34.2427 167.748C38.2417 160.368 44.1673 155.135 52.0198 152.049C55.7207 150.592 59.5092 149.429 63.3855 148.56C65.8405 147.605 67.7348 146.006 69.0684 143.763C71.4377 138.513 73.2836 133.086 74.6055 127.482C74.7011 131.282 74.4581 135.062 73.877 138.821Z" fill="#F2F5F5"/>
<path fill-rule="evenodd" clip-rule="evenodd" d="M107.1 148.705C107.258 150.4 107.306 152.144 107.246 153.938C107.672 155.089 108.303 156.058 109.14 156.846C108.984 157.556 108.741 158.234 108.411 158.881C105.592 159.438 103.31 158.566 101.563 156.264C102.32 156.25 102.952 155.959 103.457 155.392C104.059 154.095 104.739 152.835 105.497 151.613C106.618 150.938 107.152 149.969 107.1 148.705Z" fill="#A97461"/>
<path fill-rule="evenodd" clip-rule="evenodd" d="M131.289 154.52C130.368 151.91 128.523 150.795 125.751 151.176C122.673 151.99 119.759 153.153 117.009 154.665C114.995 156.377 114.024 158.557 114.094 161.206C114.094 161.4 114.191 161.497 114.386 161.497C113.94 162.188 113.503 162.188 113.074 161.497C112.392 158.302 113.412 155.831 116.134 154.084C119.252 152.272 122.555 150.915 126.043 150.014C129.602 149.612 131.836 151.162 132.746 154.665C132.251 154.777 131.766 154.729 131.289 154.52Z" fill="#EAE3D9"/>
<path fill-rule="evenodd" clip-rule="evenodd" d="M68.0483 155.973C68.2282 155.941 68.3739 155.844 68.4855 155.683C68.7105 156.075 69.0506 156.317 69.5055 156.41C72.8257 161.533 75.497 167.008 77.5198 172.835C77.8421 173.888 77.9391 174.955 77.8112 176.033C76.8661 178.21 75.8461 180.342 74.7512 182.429C71.3354 177.709 68.081 172.864 64.9883 167.893C64.017 166.73 63.0454 165.567 62.0741 164.404C64.0435 167.749 65.8894 171.238 67.6112 174.871C67.5144 176.911 67.2717 178.946 66.8826 180.976C62.9023 176.374 58.968 171.723 55.0798 167.021C57.0603 172.746 59.3917 178.367 62.0741 183.883C62.499 184.598 63.0331 185.228 63.6769 185.773C60.2768 185.869 56.877 185.967 53.4769 186.063C49.167 186.654 44.8926 187.429 40.6541 188.389C35.6464 188.777 30.6438 189.213 25.6455 189.697C25.2419 189.693 24.9019 189.596 24.6255 189.407C25.5569 187.821 26.9169 186.706 28.7055 186.063C31.5944 185.535 34.5087 185.244 37.4483 185.191C34.8345 184.679 32.2117 184.243 29.5798 183.883C29.2161 183.009 29.2161 182.137 29.5798 181.266C30.5383 180.649 31.4126 179.971 32.2026 179.231C32.1939 179.521 32.3396 179.715 32.6398 179.813C37.4215 181.042 42.2301 182.06 47.0655 182.865C42.9502 180.667 38.6758 178.874 34.2426 177.487C34.6853 177.222 35.1708 176.98 35.6998 176.76C37.7398 176.663 39.7798 176.566 41.8198 176.469C40.0665 176.032 38.318 175.839 36.5741 175.888C38.2629 175.214 40.0115 175.021 41.8198 175.307C43.6712 175.677 45.5168 175.967 47.3569 176.179C43.9414 175.036 40.4442 174.261 36.8655 173.853C36.1282 173.594 35.4483 173.255 34.8255 172.835C35.4795 171.101 36.7422 170.132 38.6141 169.928C42.0313 170.355 45.4312 170.791 48.8141 171.236C45.7095 169.639 42.5038 168.283 39.1969 167.166C38.4258 167.022 37.6486 166.973 36.8655 167.021C37.0721 166.758 37.3635 166.661 37.7398 166.73C37.9618 165.512 38.4963 164.446 39.3426 163.532C45.2001 157.394 52.3401 153.517 60.7626 151.903C61.896 152.178 62.9647 152.614 63.9683 153.212C65.3695 154.305 66.7296 155.226 68.0483 155.973Z" fill="#0D2F3F"/>
<path fill-rule="evenodd" clip-rule="evenodd" d="M121.089 149.578C119.555 150.171 118.001 150.8 116.426 151.467C114.791 152.859 113.042 154.07 111.18 155.101C110.913 155.089 110.719 154.992 110.597 154.811C111.068 154.494 111.311 154.009 111.326 153.357C111.409 154.051 111.7 154.244 112.2 153.938C112.28 153.473 112.425 153.037 112.637 152.63C113.22 152.533 113.803 152.436 114.386 152.339C116.302 150.674 118.537 149.754 121.089 149.578Z" fill="#D39A79"/>
<path fill-rule="evenodd" clip-rule="evenodd" d="M131.289 154.52C129.77 154.551 128.313 154.842 126.917 155.392C124.845 155.84 122.805 156.469 120.797 157.282C118.441 158.454 116.206 159.763 114.094 161.206C114.024 158.557 114.995 156.377 117.009 154.665C119.759 153.153 122.673 151.99 125.752 151.176C128.523 150.795 130.368 151.91 131.289 154.52Z" fill="#F0B785"/>
<path fill-rule="evenodd" clip-rule="evenodd" d="M175.003 140.274C175.161 140.292 175.258 140.389 175.294 140.565C171.009 147.795 166.104 154.579 160.577 160.916C160.485 160.506 160.582 160.119 160.869 159.753C165.726 153.354 170.437 146.862 175.003 140.274Z" fill="#0E2531"/>
<path fill-rule="evenodd" clip-rule="evenodd" d="M182.871 146.67C183.622 148.068 184.788 148.989 186.369 149.432C191.323 151.273 196.277 153.115 201.231 154.956C199.406 155.907 197.657 156.972 195.986 158.154C197.702 157.495 199.451 156.817 201.231 156.119C202.106 155.925 202.98 155.925 203.854 156.119C207.231 157.264 210.243 159.009 212.889 161.352C214.767 162.785 216.127 164.577 216.969 166.73C215.085 167.114 213.24 167.647 211.431 168.329C209.191 169.526 206.86 170.495 204.437 171.236C206.761 171.03 209.092 170.74 211.431 170.364C213.374 170.17 215.317 170.17 217.26 170.364C217.81 171.001 218.442 171.534 219.154 171.963C219.295 172.239 219.343 172.53 219.3 172.835C218.444 173.462 217.472 173.898 216.386 174.144C213.153 174.272 210.044 174.95 207.06 176.179C209.367 175.812 211.698 175.473 214.054 175.161C215.028 175.259 216 175.356 216.969 175.452C215.651 175.838 214.291 176.177 212.889 176.469C214.537 176.615 216.189 176.663 217.843 176.615C218.713 176.732 219.49 177.023 220.174 177.487C216.155 178.832 212.27 180.528 208.517 182.575C209.1 182.769 209.683 182.769 210.266 182.575C214.335 181.584 218.318 180.567 222.214 179.522C223.173 180.137 224.096 180.816 224.983 181.557C225.128 182.326 225.176 183.102 225.129 183.883C222.363 184.036 219.644 184.472 216.969 185.191C220.003 185.255 223.015 185.546 226.003 186.063C227.672 186.809 229.032 187.923 230.083 189.407C229.477 189.581 228.846 189.678 228.189 189.697C223.384 189.299 218.575 188.96 213.763 188.68C206.326 186.662 198.749 185.645 191.031 185.627C193.521 180.491 195.463 175.258 196.86 169.928C195.901 171.031 194.881 172.096 193.8 173.126C191.134 177.338 188.026 181.214 184.474 184.755C183.842 182.278 183.648 179.759 183.891 177.196C184.672 173.894 185.352 170.599 185.931 167.312C183.414 172.044 181.131 176.889 179.083 181.848C177.917 181.557 176.751 181.266 175.586 180.976C176.629 176.038 178.038 171.193 179.811 166.44C180.665 162.723 181.637 159.04 182.726 155.392C182.92 154.035 182.92 152.679 182.726 151.322C182.645 151.056 182.499 150.862 182.289 150.74C182.452 149.343 182.646 147.987 182.871 146.67Z" fill="#0D3040"/>
<path fill-rule="evenodd" clip-rule="evenodd" d="M98.6486 155.683C98.9036 156.284 99.2434 156.865 99.6686 157.427C101.341 158.562 102.652 160.016 103.603 161.788C100.839 162.461 98.7986 164.06 97.4828 166.585C97.2098 166.786 97.0157 166.738 96.9 166.44C95.3132 163.619 94.9247 160.663 95.7343 157.572C96.7744 157.008 97.7457 156.378 98.6486 155.683Z" fill="#BB7D63"/>
<path fill-rule="evenodd" clip-rule="evenodd" d="M126.917 155.392C122.855 157.66 118.678 159.695 114.386 161.497C114.191 161.497 114.094 161.4 114.094 161.206C116.206 159.763 118.441 158.454 120.797 157.282C122.805 156.469 124.845 155.84 126.917 155.392Z" fill="#BA7F60"/>
<path fill-rule="evenodd" clip-rule="evenodd" d="M130.997 156.555C131.87 157.019 132.696 157.601 133.474 158.299C134.269 159.663 134.804 161.116 135.077 162.66C132.22 161.14 129.208 160.801 126.043 161.642C124.175 162.132 122.329 162.665 120.506 163.241C120.703 162.556 120.945 161.877 121.234 161.206C122.391 160.221 123.605 159.349 124.877 158.59C126.753 157.514 128.793 156.836 130.997 156.555Z" fill="#EDB486"/>
<path fill-rule="evenodd" clip-rule="evenodd" d="M124.877 158.59C123.605 159.349 122.391 160.221 121.234 161.206C120.945 161.877 120.703 162.556 120.506 163.242C119.11 163.985 117.653 164.664 116.134 165.277C115.746 164.792 115.357 164.308 114.969 163.823C118.023 161.621 121.325 159.877 124.877 158.59Z" fill="#F3D0AB"/>
<path fill-rule="evenodd" clip-rule="evenodd" d="M130.997 156.555C132.373 156.28 133.491 156.667 134.348 157.718C135.465 159.509 135.95 161.447 135.806 163.532C135.501 163.278 135.258 162.988 135.077 162.66C134.804 161.116 134.27 159.663 133.474 158.299C132.696 157.601 131.87 157.019 130.997 156.555Z" fill="#E4DFD8"/>
<path fill-rule="evenodd" clip-rule="evenodd" d="M126.626 135.623C127.051 135.603 127.439 135.7 127.791 135.913C129.032 136.713 130.149 137.682 131.143 138.821C136.957 146.656 142.882 154.409 148.92 162.079C152.822 167.425 156.611 172.852 160.286 178.359C160.43 178.834 160.478 179.319 160.431 179.813C159.722 181.819 158.993 183.854 158.246 185.918C158.196 184.024 158.05 182.183 157.809 180.394C157.694 179.906 157.549 179.421 157.371 178.941C151.884 170.27 146.056 161.839 139.886 153.648C136.104 147.166 131.684 141.157 126.626 135.623Z" fill="#F1F3F4"/>
<path fill-rule="evenodd" clip-rule="evenodd" d="M98.6486 155.683C97.7458 156.378 96.7744 157.008 95.7343 157.572C94.9247 160.663 95.3132 163.619 96.9 166.44C95.6143 165.882 94.7884 164.913 94.4229 163.532C92.5575 158.901 93.9659 155.994 98.6486 154.811C98.6486 155.101 98.6486 155.392 98.6486 155.683Z" fill="#F1E9E0"/>
<path fill-rule="evenodd" clip-rule="evenodd" d="M103.311 178.359C103.48 177.536 103.869 176.858 104.477 176.324C107.334 173.814 110.151 171.246 112.929 168.62C116.27 166.663 119.767 165.016 123.42 163.678C125.835 163.255 128.263 163.158 130.706 163.387C132.554 164.072 134.06 165.186 135.223 166.73C135.417 167.409 135.417 168.087 135.223 168.765C135.059 168.917 134.865 169.014 134.64 169.056C133.159 167.228 131.265 166.113 128.957 165.713C123.264 165.732 118.019 167.282 113.22 170.364C109.793 173.007 106.538 175.865 103.457 178.941C103.322 178.768 103.273 178.574 103.311 178.359Z" fill="#0B2E3E"/>
<path fill-rule="evenodd" clip-rule="evenodd" d="M102.146 164.404C102.848 164.299 103.286 164.59 103.457 165.277C103.648 166.548 103.308 167.663 102.437 168.62C100.461 169.165 99.5381 168.438 99.6686 166.439C100.326 165.513 101.152 164.834 102.146 164.404Z" fill="#B57962"/>
<path fill-rule="evenodd" clip-rule="evenodd" d="M104.477 176.324C103.869 176.858 103.48 177.536 103.312 178.359C101.823 181.145 101.046 184.149 100.98 187.372C100.739 188.772 100.594 190.225 100.543 191.732C99.8129 191.202 99.3758 190.524 99.2315 189.697C98.8002 182.797 100.986 176.886 105.789 171.963C107.886 169.774 110.072 167.69 112.346 165.713C112.822 165.569 113.308 165.521 113.803 165.567C113.849 165.966 113.8 166.354 113.657 166.73C109.835 169.234 106.775 172.432 104.477 176.324Z" fill="#EBEDED"/>
<path fill-rule="evenodd" clip-rule="evenodd" d="M219.3 172.835C221.611 175.482 223.991 178.099 226.44 180.685C226.701 181.554 226.945 182.426 227.169 183.302C229.547 185.045 231.296 187.274 232.414 189.988C231.498 190.329 230.721 190.135 230.083 189.407C229.032 187.923 227.673 186.809 226.003 186.063C223.015 185.546 220.004 185.255 216.969 185.191C219.644 184.472 222.364 184.036 225.129 183.883C225.176 183.102 225.128 182.326 224.983 181.557C224.096 180.816 223.173 180.137 222.214 179.522C222.117 178.262 221.437 177.584 220.174 177.487C219.49 177.023 218.713 176.732 217.843 176.615C217.721 176.405 217.527 176.26 217.26 176.179C217.913 175.886 217.816 175.644 216.969 175.452C216 175.356 215.028 175.259 214.054 175.161C211.698 175.473 209.367 175.812 207.06 176.179C210.045 174.95 213.153 174.272 216.386 174.144C217.473 173.898 218.444 173.462 219.3 172.835Z" fill="#F0F3F4"/>
<path fill-rule="evenodd" clip-rule="evenodd" d="M216.969 175.452C217.816 175.643 217.913 175.886 217.26 176.179C217.527 176.26 217.721 176.405 217.843 176.615C216.189 176.663 214.537 176.615 212.889 176.469C214.291 176.177 215.651 175.838 216.969 175.452Z" fill="#BDC0C7"/>
<path fill-rule="evenodd" clip-rule="evenodd" d="M34.8258 172.835C35.4486 173.255 36.1285 173.594 36.8658 173.853C40.4445 174.261 43.9417 175.036 47.3572 176.179C45.5171 175.967 43.6715 175.677 41.8201 175.307C40.0118 175.021 38.2632 175.214 36.5744 175.888C38.3183 175.839 40.0668 176.032 41.8201 176.469C39.7801 176.566 37.7401 176.663 35.7001 176.76C35.1711 176.98 34.6856 177.222 34.2429 177.487C33.1061 177.608 32.4262 178.189 32.2029 179.231C31.4129 179.971 30.5386 180.649 29.5801 181.266C29.2164 182.137 29.2164 183.009 29.5801 183.883C32.212 184.243 34.8348 184.679 37.4486 185.191C34.509 185.244 31.5947 185.535 28.7058 186.063C26.9172 186.706 25.5572 187.821 24.6258 189.407C23.8218 190.02 22.9475 190.213 22.0029 189.988C23.2786 187.446 24.9786 185.217 27.1029 183.302C27.3828 182.197 27.7714 181.131 28.2686 180.104C30.7324 177.879 32.9181 175.456 34.8258 172.835Z" fill="#EDF1F3"/>
<path fill-rule="evenodd" clip-rule="evenodd" d="M34.243 177.487C38.6762 178.874 42.9506 180.667 47.0659 182.865C42.2305 182.06 37.4219 181.042 32.6402 179.813C32.34 179.715 32.1943 179.521 32.203 179.231C32.4262 178.189 33.1061 177.608 34.243 177.487Z" fill="#050B17"/>
<path fill-rule="evenodd" clip-rule="evenodd" d="M96.6085 197.547C94.8072 199.876 92.6701 201.863 90.1971 203.507C85.3561 206.115 80.3048 208.246 75.0428 209.903C78.7669 209.489 82.4585 208.811 86.1171 207.868C86.857 207.636 87.5369 207.685 88.1571 208.013C81.4492 210.324 74.6977 212.553 67.9028 214.7C67.435 214.525 67.0466 214.234 66.7371 213.827C64.0597 209.838 61.3882 205.864 58.7228 201.908C58.2381 200.166 57.7523 198.421 57.2656 196.675C68.7663 193.747 79.2577 188.805 88.7399 181.848C90.0155 181.116 91.3756 180.534 92.8199 180.103C90.9052 183.204 90.5651 186.499 91.7999 189.988C91.5542 186.419 92.1858 183.027 93.6942 179.813C94.3569 179.273 95.0855 179.176 95.8799 179.522C95.5156 185.553 95.7584 191.562 96.6085 197.547Z" fill="#27535D"/>
<path fill-rule="evenodd" clip-rule="evenodd" d="M220.174 177.487C221.437 177.584 222.117 178.262 222.214 179.522C218.318 180.567 214.335 181.584 210.266 182.575C209.683 182.769 209.1 182.769 208.517 182.575C212.27 180.528 216.155 178.832 220.174 177.487Z" fill="#050A17"/>
<path fill-rule="evenodd" clip-rule="evenodd" d="M93.6944 179.813C92.1859 183.027 91.5544 186.419 91.8001 189.988C90.5653 186.499 90.9054 183.204 92.8201 180.103C93.0798 179.926 93.3712 179.829 93.6944 179.813Z" fill="#E4EDEE"/>
<path fill-rule="evenodd" clip-rule="evenodd" d="M164.803 179.813C165.512 181.579 165.901 183.421 165.969 185.336C165.791 187.495 165.548 189.627 165.24 191.732C166.526 188.855 167.352 185.851 167.717 182.72C173.259 186.261 178.991 189.507 184.911 192.459C189.326 194.675 193.989 195.983 198.9 196.384C198.669 197.85 198.378 199.303 198.026 200.745C195.05 205.562 191.747 210.165 188.117 214.554C187.631 214.748 187.146 214.748 186.66 214.554C180.788 212.64 174.959 210.653 169.174 208.594C169.501 208.404 169.89 208.307 170.34 208.304C173.438 208.9 176.547 209.336 179.666 209.612C172.17 207.062 165.515 203.137 159.703 197.838C159.148 197.273 158.906 196.595 158.974 195.803C160.186 192.997 161.4 190.186 162.617 187.372C163.5 185.021 164.083 182.598 164.366 180.103C164.477 179.942 164.623 179.845 164.803 179.813Z" fill="#28525D"/>
<path fill-rule="evenodd" clip-rule="evenodd" d="M160.432 179.813C160.745 183.165 160.113 186.363 158.537 189.407C155.978 195.096 152.966 200.522 149.503 205.687C149.444 204.306 149.638 202.949 150.086 201.617C152.617 194.672 154.997 187.695 157.226 180.685C157.515 180.735 157.709 180.638 157.809 180.394C158.05 182.183 158.196 184.024 158.246 185.918C158.993 183.854 159.722 181.819 160.432 179.813Z" fill="#244B56"/>
<path fill-rule="evenodd" clip-rule="evenodd" d="M88.7401 181.848C79.2579 188.805 68.7664 193.748 57.2658 196.675C57.7525 198.421 58.2383 200.166 58.7229 201.908C56.7409 199.511 54.8953 196.991 53.1858 194.349C59.1385 193.204 64.9671 191.605 70.6715 189.552C76.802 187.221 82.825 184.653 88.7401 181.848Z" fill="#F2F5F5"/>
<path fill-rule="evenodd" clip-rule="evenodd" d="M164.803 179.813C176.455 186.932 188.987 191.874 202.397 194.64C201.036 196.768 199.579 198.803 198.026 200.745C198.378 199.303 198.669 197.85 198.9 196.384C193.989 195.983 189.326 194.675 184.911 192.459C178.991 189.507 173.259 186.261 167.717 182.72C167.352 185.851 166.526 188.855 165.24 191.732C165.548 189.627 165.791 187.495 165.968 185.336C165.901 183.421 165.512 181.579 164.803 179.813Z" fill="#F1F5F5"/>
<path fill-rule="evenodd" clip-rule="evenodd" d="M100.98 187.372C100.952 191.951 101.195 196.506 101.709 201.036C100.428 197.35 99.6021 193.57 99.2314 189.697C99.3757 190.524 99.8128 191.202 100.543 191.732C100.594 190.225 100.739 188.772 100.98 187.372Z" fill="#325C61"/>
<path fill-rule="evenodd" clip-rule="evenodd" d="M158.974 195.803C158.906 196.595 159.148 197.273 159.703 197.838C165.515 203.137 172.17 207.062 179.666 209.612C176.547 209.336 173.438 208.9 170.34 208.304C169.89 208.307 169.501 208.404 169.174 208.594C164.447 207.002 159.687 205.452 154.894 203.943C156.105 201.14 157.465 198.426 158.974 195.803Z" fill="#0A2335"/>
<path fill-rule="evenodd" clip-rule="evenodd" d="M96.6087 197.547C97.3839 199.621 97.821 201.753 97.9201 203.943C94.8074 205.666 91.5533 207.022 88.1573 208.013C87.5371 207.685 86.8572 207.636 86.1173 207.868C82.4587 208.811 78.7671 209.489 75.043 209.903C80.305 208.246 85.3563 206.115 90.1973 203.507C92.6703 201.863 94.8074 199.876 96.6087 197.547Z" fill="#0A2334"/>
<path fill-rule="evenodd" clip-rule="evenodd" d="M131.58 200.745C131.887 200.702 132.178 200.75 132.454 200.89C137.636 206.047 142.785 211.231 147.9 216.444C144.79 219.547 141.584 222.551 138.283 225.456C132.878 220.404 127.729 215.122 122.837 209.612C125.795 206.71 128.709 203.754 131.58 200.745Z" fill="#222235"/>
<path fill-rule="evenodd" clip-rule="evenodd" d="M153.146 206.559C154.04 206.573 154.914 206.718 155.768 206.995C164.306 211.496 172.952 215.76 181.706 219.787C178.8 220.175 175.885 220.271 172.963 220.078C165.66 216.775 158.569 213.092 151.688 209.03C151.411 208.822 151.363 208.58 151.543 208.304C152.017 207.634 152.551 207.052 153.146 206.559Z" fill="#222135"/>
<path fill-rule="evenodd" clip-rule="evenodd" d="M117.883 209.757C123.708 215.472 129.342 221.383 134.786 227.491C129.449 233.154 123.864 238.581 118.029 243.772C115.479 242.488 113.002 241.083 110.597 239.557C105.546 236.262 100.494 232.967 95.4429 229.672C98.2059 227.352 100.926 224.978 103.603 222.549C107.304 224.587 110.898 226.768 114.386 229.09C115.131 229.563 115.908 229.854 116.717 229.963C112.988 227.163 109.394 224.207 105.934 221.096C109.983 217.381 113.965 213.602 117.883 209.757Z" fill="#222235"/>
<path fill-rule="evenodd" clip-rule="evenodd" d="M101.271 206.269C102.612 206.235 103.73 206.72 104.623 207.722C104.817 208.013 104.817 208.304 104.623 208.594C97.7646 212.909 90.6246 216.737 83.2028 220.078C79.9 220.659 76.5969 220.659 73.2942 220.078C81.1272 216.559 88.8987 212.876 96.6085 209.03C98.2824 208.275 99.8369 207.354 101.271 206.269Z" fill="#232235"/>
<path fill-rule="evenodd" clip-rule="evenodd" d="M150.231 217.898C154.416 220.954 158.399 224.298 162.18 227.928C158.008 231.168 153.636 234.124 149.066 236.795C147.371 235.444 145.72 234.039 144.111 232.579C142.738 231.306 141.475 229.95 140.323 228.509C143.682 225.013 146.985 221.476 150.231 217.898Z" fill="#222235"/>
<path fill-rule="evenodd" clip-rule="evenodd" d="M135.369 232.724C135.783 232.785 136.172 232.931 136.534 233.161C138.704 235.713 141.084 238.087 143.674 240.283C143.869 240.477 143.869 240.671 143.674 240.865C139.87 243.424 135.741 245.313 131.289 246.534C128.521 246.842 125.8 246.648 123.129 245.952C127.391 241.655 131.471 237.246 135.369 232.724Z" fill="#212135"/>
</g>
<defs>
<clipPath id="clip0_5_2">
<rect width="255" height="257" fill="white"/>
</clipPath>
</defs>
</svg>
