<?xml version="1.0" encoding="UTF-8"?>
<!DOCTYPE svg PUBLIC "-//W3C//DTD SVG 1.1//EN" "http://www.w3.org/Graphics/SVG/1.1/DTD/svg11.dtd">
<svg xmlns="http://www.w3.org/2000/svg" version="1.1" width="875px" height="884px" style="shape-rendering:geometricPrecision; text-rendering:geometricPrecision; image-rendering:optimizeQuality; fill-rule:evenodd; clip-rule:evenodd" xmlns:xlink="http://www.w3.org/1999/xlink">
<g><path style="opacity:1" fill="#dbb57e" d="M 423.5,0.5 C 416.945,2.30438 410.278,3.80438 403.5,5C 395.685,7.63827 387.852,10.8049 380,14.5C 377.945,14.152 375.945,14.8186 374,16.5C 373.667,16.1667 373.333,15.8333 373,15.5C 372.5,16.6667 371.667,17.5 370.5,18C 366.715,18.4074 363.048,19.2407 359.5,20.5C 379.105,8.71885 400.439,2.05218 423.5,0.5 Z"/></g>
<g><path style="opacity:1" fill="#0d2f3f" d="M 425.5,32.5 C 443.623,30.9371 461.623,31.9371 479.5,35.5C 483.116,36.9869 486.783,38.3202 490.5,39.5C 507.971,50.4873 520.138,65.8206 527,85.5C 533.206,106.784 540.206,127.784 548,148.5C 558.922,169.344 569.589,190.344 580,211.5C 582.466,217.424 584.632,223.424 586.5,229.5C 588.891,238.511 591.391,247.511 594,256.5C 598.847,291.553 606.681,325.886 617.5,359.5C 609.719,349.309 602.885,338.309 597,326.5C 582.099,305.596 566.432,285.263 550,265.5C 518.981,230.335 487.148,195.835 454.5,162C 449.646,157.645 444.646,153.478 439.5,149.5C 424.952,160.542 411.452,172.876 399,186.5C 381.616,206.282 364.949,226.615 349,247.5C 316.997,281.292 289.163,317.959 265.5,357.5C 271.857,332.44 279.19,307.774 287.5,283.5C 288.09,284.766 288.59,286.099 289,287.5C 307.602,252.303 326.269,216.97 345,181.5C 351.736,169.028 359.236,157.028 367.5,145.5C 367.333,145.167 367.167,144.833 367,144.5C 345.749,172.667 326.249,202.001 308.5,232.5C 307.818,231.757 307.151,231.091 306.5,230.5C 309.298,223.447 312.298,216.447 315.5,209.5C 315.154,208.304 314.654,208.304 314,209.5C 299.55,236.058 287.05,263.391 276.5,291.5C 276.196,290.85 275.863,290.183 275.5,289.5C 276.609,287.615 277.443,285.615 278,283.5C 279.382,269.959 281.215,256.626 283.5,243.5C 289.156,223.691 294.156,203.024 298.5,181.5C 298.333,180.833 298.167,180.167 298,179.5C 293.915,187.604 290.748,195.937 288.5,204.5C 288.132,192.058 289.465,179.724 292.5,167.5C 294.564,163.315 296.231,158.315 297.5,152.5C 305.837,126.684 319.671,104.35 339,85.5C 335.745,92.6903 332.412,100.024 329,107.5C 327.686,110.089 327.019,112.756 327,115.5C 338.851,99.9834 352.351,86.1501 367.5,74C 371.007,71.746 374.673,69.746 378.5,68C 368.281,69.2392 358.615,72.4058 349.5,77.5C 349.167,77.3333 348.833,77.1667 348.5,77C 372.002,55.9927 397.669,41.1593 425.5,32.5 Z"/></g>
<g><path style="opacity:0.991" fill="#f1c07e" d="M 423.5,-0.5 C 435.167,-0.5 446.833,-0.5 458.5,-0.5C 475.971,2.52081 493.638,5.18747 511.5,7.5C 520.32,7.00451 528.32,4.33785 535.5,-0.5C 538.167,-0.5 540.833,-0.5 543.5,-0.5C 552.355,4.1826 559.522,10.8493 565,19.5C 596.709,64.7663 617.209,114.766 626.5,169.5C 671.488,171.495 716.821,172.162 762.5,171.5C 764.95,171.874 765.95,173.374 765.5,176C 765.369,178.253 764.869,180.419 764,182.5C 743.37,219.435 723.036,256.435 703,293.5C 702.333,294.833 702.333,296.167 703,297.5C 715.684,287.707 729.517,285.874 744.5,292C 769.125,306.21 775.959,326.376 765,352.5C 761.646,359.207 757.313,365.207 752,370.5C 751.251,371.635 751.417,372.635 752.5,373.5C 784.527,393.514 815.527,415.014 845.5,438C 855.195,444.177 864.862,450.344 874.5,456.5C 874.5,456.833 874.5,457.167 874.5,457.5C 852.252,468.57 829.919,479.237 807.5,489.5C 803.208,493.29 799.042,497.29 795,501.5C 785.52,514.969 776.687,528.802 768.5,543C 775.974,551.82 781.808,561.653 786,572.5C 786.438,577.87 786.438,583.203 786,588.5C 803.092,607.258 817.426,627.925 829,650.5C 835.689,664.953 837.689,679.953 835,695.5C 834.5,696 834,696.5 833.5,697C 829.5,697.667 825.5,697.667 821.5,697C 794.036,689.574 766.202,684.074 738,680.5C 736.112,680.796 734.278,681.296 732.5,682C 729.842,686.175 726.842,690.008 723.5,693.5C 719.124,691.869 717.457,693.536 718.5,698.5C 715.675,698.081 713.509,699.081 712,701.5C 709.397,696.946 705.897,696.279 701.5,699.5C 700.702,699.043 700.369,698.376 700.5,697.5C 707.462,687.759 714.795,678.259 722.5,669C 724.888,667.139 727.554,665.806 730.5,665C 744.668,664.36 758.668,665.693 772.5,669C 788.28,672.362 803.947,676.195 819.5,680.5C 820.167,680.167 820.833,679.833 821.5,679.5C 819.2,664.769 814.034,651.103 806,638.5C 795.381,624.213 784.381,610.213 773,596.5C 771.299,594.1 770.466,591.433 770.5,588.5C 772.076,584.297 772.576,579.964 772,575.5C 763.896,558.719 752.73,544.219 738.5,532C 704.775,503.637 669.108,477.971 631.5,455C 635.508,451.335 639.841,448.168 644.5,445.5C 665.931,460.415 687.264,475.582 708.5,491C 724.937,503.6 740.937,516.767 756.5,530.5C 767.855,515.637 778.855,500.47 789.5,485C 814.767,477.244 839.434,467.911 863.5,457C 825.727,436.95 789.394,414.617 754.5,390C 745.799,384.316 736.799,379.149 727.5,374.5C 727.298,372.011 727.798,369.677 729,367.5C 734.667,362.5 740.333,357.5 746,352.5C 760.245,335.05 758.078,319.883 739.5,307C 729.999,302.124 720.665,302.458 711.5,308C 706.646,312.355 701.646,316.522 696.5,320.5C 694.677,319.253 692.677,318.586 690.5,318.5C 690.657,319.873 690.49,321.207 690,322.5C 688.624,323.705 687.458,325.038 686.5,326.5C 683.55,328.115 680.884,330.115 678.5,332.5C 677.244,332.096 676.077,331.429 675,330.5C 669.771,332.115 667.271,330.115 667.5,324.5C 669.461,322.037 671.628,319.703 674,317.5C 696.864,273.601 720.364,230.101 744.5,187C 705.496,186.167 666.496,186.333 627.5,187.5C 628.872,195.441 629.872,203.441 630.5,211.5C 630.919,217.973 630.253,224.306 628.5,230.5C 627.833,229.5 627.167,228.5 626.5,227.5C 625.336,230.495 624.17,233.495 623,236.5C 622.5,235 622,233.5 621.5,232C 623.365,229.266 624.699,226.266 625.5,223C 624.356,219.753 623.356,219.919 622.5,223.5C 621.331,220.227 621.665,217.061 623.5,214C 621.994,209.634 621.161,205.134 621,200.5C 619.844,201.993 619.01,201.826 618.5,200C 618.645,199.228 618.978,198.561 619.5,198C 618.422,197.326 617.755,196.326 617.5,195C 618.559,187.185 617.393,179.352 614,171.5C 613.667,173.167 613.333,174.833 613,176.5C 612.768,175.263 612.268,174.263 611.5,173.5C 604.522,132.067 590.689,93.0668 570,56.5C 564.415,47.665 559.081,38.665 554,29.5C 550.15,23.4735 544.983,19.1402 538.5,16.5C 534.355,18.0734 530.355,19.9067 526.5,22C 520.88,22.9829 515.213,23.4829 509.5,23.5C 490.48,21.5525 471.48,19.3859 452.5,17C 386.239,14.7101 336.072,41.8768 302,98.5C 290.844,117.818 283.344,138.484 279.5,160.5C 278.5,160.5 277.5,160.5 276.5,160.5C 276.649,159.448 276.483,158.448 276,157.5C 275.5,160 275,162.5 274.5,165C 275.014,169.534 275.347,174.034 275.5,178.5C 274.5,178.5 273.5,178.5 272.5,178.5C 273.182,184.827 273.348,191.161 273,197.5C 272.667,195.833 272.333,194.167 272,192.5C 271.524,197.217 271.524,201.883 272,206.5C 270.787,201.316 269.953,195.982 269.5,190.5C 269.167,189.833 268.833,189.167 268.5,188.5C 267.391,189.59 266.391,189.59 265.5,188.5C 267.256,186.809 267.756,184.809 267,182.5C 265.294,184.705 263.794,187.038 262.5,189.5C 261.828,188.051 261.161,186.718 260.5,185.5C 259.504,184.335 258.171,183.668 256.5,183.5C 255.136,184.043 253.803,184.21 252.5,184C 252.957,183.586 253.291,183.086 253.5,182.5C 252.478,181.646 251.645,180.646 251,179.5C 249.393,182.443 247.393,185.11 245,187.5C 244.667,186.833 244.333,186.167 244,185.5C 243.5,187.333 242.333,188.5 240.5,189C 241.516,189.519 242.182,190.353 242.5,191.5C 240.882,195.434 238.882,195.934 236.5,193C 236.461,191.755 236.795,190.422 237.5,189C 237.095,188.055 236.428,187.388 235.5,187C 236.167,186.667 236.833,186.333 237.5,186C 236.033,183.814 234.033,183.148 231.5,184C 232.416,184.278 233.082,184.778 233.5,185.5C 197.82,185.605 162.486,186.605 127.5,188.5C 126.579,187.019 125.412,185.686 124,184.5C 123.5,184.833 123,185.167 122.5,185.5C 123.487,189.367 122.987,189.367 121,185.5C 120.667,186.5 120.333,187.5 120,188.5C 118.821,184.642 116.988,181.142 114.5,178C 115.167,177 115.833,176 116.5,175C 115.256,174.544 114.423,175.044 114,176.5C 113.517,175.552 113.351,174.552 113.5,173.5C 112.448,173.649 111.448,173.483 110.5,173C 110.833,172.667 111.167,172.333 111.5,172C 161.668,171.833 211.668,171.333 261.5,170.5C 266.488,140.187 276.321,111.52 291,84.5C 305.901,62.5443 324.068,43.711 345.5,28C 350.075,25.2417 354.742,22.7417 359.5,20.5C 363.048,19.2407 366.715,18.4074 370.5,18C 371.667,17.5 372.5,16.6667 373,15.5C 373.333,15.8333 373.667,16.1667 374,16.5C 375.945,14.8186 377.945,14.152 380,14.5C 387.852,10.8049 395.685,7.63827 403.5,5C 410.278,3.80438 416.945,2.30438 423.5,0.5C 423.5,0.166667 423.5,-0.166667 423.5,-0.5 Z"/></g>
<g><path style="opacity:0.275" fill="#846a52" d="M 626.5,169.5 C 671.931,170.162 717.264,170.828 762.5,171.5C 716.821,172.162 671.488,171.495 626.5,169.5 Z"/></g>
<g><path style="opacity:1" fill="#080915" d="M 611.5,173.5 C 614.907,208.566 618.907,243.566 623.5,278.5C 621.868,278.175 620.868,277.175 620.5,275.5C 619.234,269.586 617.567,264.086 615.5,259C 616.384,256.527 616.717,254.193 616.5,252C 615.76,250.215 615.093,248.382 614.5,246.5C 615.593,242.892 615.76,239.225 615,235.5C 613.844,236.993 613.01,236.826 612.5,235C 613.33,231.558 613.663,228.225 613.5,225C 611.153,223.419 611.153,222.086 613.5,221C 611.902,213.977 611.069,206.81 611,199.5C 609.947,204.091 609.114,208.758 608.5,213.5C 607.34,209.541 607.173,205.541 608,201.5C 608.5,201 609,200.5 609.5,200C 608.873,197.657 607.873,195.49 606.5,193.5C 605.719,194.729 605.219,196.062 605,197.5C 603.632,196.007 603.465,194.507 604.5,193C 603.552,192.517 602.552,192.351 601.5,192.5C 601.5,190.833 601.5,189.167 601.5,187.5C 600.5,187.5 599.5,187.5 598.5,187.5C 591.735,139.704 575.569,95.3703 550,54.5C 546.5,48.5021 543.833,42.1688 542,35.5C 540.818,33.6431 539.151,32.6431 537,32.5C 532.899,34.1314 528.733,35.6314 524.5,37C 509.442,37.8637 494.442,37.3637 479.5,35.5C 461.623,31.9371 443.623,30.9371 425.5,32.5C 400.677,34.6054 378.344,43.1054 358.5,58C 326.437,81.9198 305.77,113.42 296.5,152.5C 294.722,157.272 293.389,162.272 292.5,167.5C 289.465,179.724 288.132,192.058 288.5,204.5C 286.703,217.486 285.036,230.486 283.5,243.5C 281.215,256.626 279.382,269.959 278,283.5C 277.443,285.615 276.609,287.615 275.5,289.5C 275.863,290.183 276.196,290.85 276.5,291.5C 275.37,296.224 274.036,300.891 272.5,305.5C 271.504,305.414 270.671,305.748 270,306.5C 268.005,304.171 266.838,304.838 266.5,308.5C 266.709,309.086 267.043,309.586 267.5,310C 264.306,313.904 262.973,318.238 263.5,323C 262.333,323.5 261.5,324.333 261,325.5C 260.667,324.833 260.333,324.167 260,323.5C 259.211,325.58 258.044,327.414 256.5,329C 256.667,329.5 256.833,330 257,330.5C 257.535,328.729 258.369,328.396 259.5,329.5C 258.253,331.042 258.253,332.542 259.5,334C 257.109,334.691 257.109,335.691 259.5,337C 257.527,337.495 255.527,337.662 253.5,337.5C 254.151,339.826 254.818,342.159 255.5,344.5C 254.786,347.07 253.786,349.57 252.5,352C 253.493,354.453 253.66,356.953 253,359.5C 252.667,358.5 252.333,357.5 252,356.5C 251.691,357.766 251.191,358.933 250.5,360C 250.833,360.333 251.167,360.667 251.5,361C 250.643,361.689 249.977,362.522 249.5,363.5C 249.539,367.031 249.539,370.531 249.5,374C 247.148,374.576 246.148,376.076 246.5,378.5C 246.922,381.369 247.089,384.369 247,387.5C 247.718,386.549 248.551,386.383 249.5,387C 248.693,393.927 248.36,401.094 248.5,408.5C 246.192,396.714 244.525,384.714 243.5,372.5C 244.85,360.44 246.517,348.44 248.5,336.5C 254.917,314.163 260.417,291.496 265,268.5C 269.999,232.505 274.833,196.505 279.5,160.5C 283.344,138.484 290.844,117.818 302,98.5C 336.072,41.8768 386.239,14.7101 452.5,17C 471.48,19.3859 490.48,21.5525 509.5,23.5C 515.213,23.4829 520.88,22.9829 526.5,22C 530.355,19.9067 534.355,18.0734 538.5,16.5C 544.983,19.1402 550.15,23.4735 554,29.5C 559.081,38.665 564.415,47.665 570,56.5C 590.689,93.0668 604.522,132.067 611.5,173.5 Z"/></g>
<g><path style="opacity:1" fill="#4f6f7d" d="M 296.5,152.5 C 296.833,152.5 297.167,152.5 297.5,152.5C 296.231,158.315 294.564,163.315 292.5,167.5C 293.389,162.272 294.722,157.272 296.5,152.5 Z"/></g>
<g><path style="opacity:1" fill="#edf0f1" d="M 598.5,187.5 C 599.162,191.466 599.495,195.466 599.5,199.5C 591.933,170.632 582.433,142.299 571,114.5C 571.727,121.483 572.727,128.483 574,135.5C 574.667,138.833 574.667,142.167 574,145.5C 566.202,110.597 554.368,77.2639 538.5,45.5C 538.453,42.4318 537.953,39.4318 537,36.5C 530.98,41.5926 523.98,43.926 516,43.5C 507.403,42.7469 498.903,41.4136 490.5,39.5C 486.783,38.3202 483.116,36.9869 479.5,35.5C 494.442,37.3637 509.442,37.8637 524.5,37C 528.733,35.6314 532.899,34.1314 537,32.5C 539.151,32.6431 540.818,33.6431 542,35.5C 543.833,42.1688 546.5,48.5021 550,54.5C 575.569,95.3703 591.735,139.704 598.5,187.5 Z"/></g>
<g><path style="opacity:1" fill="#f0f3f4" d="M 425.5,32.5 C 397.669,41.1593 372.002,55.9927 348.5,77C 348.833,77.1667 349.167,77.3333 349.5,77.5C 358.615,72.4058 368.281,69.2392 378.5,68C 374.673,69.746 371.007,71.746 367.5,74C 352.351,86.1501 338.851,99.9834 327,115.5C 327.019,112.756 327.686,110.089 329,107.5C 332.412,100.024 335.745,92.6903 339,85.5C 319.671,104.35 305.837,126.684 297.5,152.5C 297.167,152.5 296.833,152.5 296.5,152.5C 305.77,113.42 326.437,81.9198 358.5,58C 378.344,43.1054 400.677,34.6054 425.5,32.5 Z"/></g>
<g><path style="opacity:1" fill="#0e2e3f" d="M 538.5,45.5 C 554.368,77.2639 566.202,110.597 574,145.5C 574.667,142.167 574.667,138.833 574,135.5C 572.727,128.483 571.727,121.483 571,114.5C 582.433,142.299 591.933,170.632 599.5,199.5C 600.657,207.656 600.823,215.99 600,224.5C 596.603,217.374 592.937,210.374 589,203.5C 572.754,181.012 559.087,157.012 548,131.5C 541.304,112.431 534.304,93.4309 527,74.5C 524.124,68.5768 520.624,63.0768 516.5,58C 520.5,56.3333 524.5,54.6667 528.5,53C 531.729,50.2589 535.062,47.7589 538.5,45.5 Z"/></g>
<g><path style="opacity:1" fill="#28555f" d="M 422.5,50.5 C 434.286,49.9375 445.953,50.7708 457.5,53C 473.169,58.3323 487.503,65.9989 500.5,76C 489.525,71.113 478.191,66.7797 466.5,63C 442.923,56.4632 419.257,55.7965 395.5,61C 396.551,59.6152 397.884,58.6152 399.5,58C 407.227,55.3264 414.893,52.8264 422.5,50.5 Z"/></g>
<g><path style="opacity:1" fill="#060716" d="M 538.5,45.5 C 535.062,47.7589 531.729,50.2589 528.5,53C 524.5,54.6667 520.5,56.3333 516.5,58C 520.624,63.0768 524.124,68.5768 527,74.5C 534.304,93.4309 541.304,112.431 548,131.5C 559.087,157.012 572.754,181.012 589,203.5C 592.937,210.374 596.603,217.374 600,224.5C 600.823,215.99 600.657,207.656 599.5,199.5C 599.495,195.466 599.162,191.466 598.5,187.5C 599.5,187.5 600.5,187.5 601.5,187.5C 601.5,189.167 601.5,190.833 601.5,192.5C 602.552,192.351 603.552,192.517 604.5,193C 603.465,194.507 603.632,196.007 605,197.5C 605.219,196.062 605.719,194.729 606.5,193.5C 607.873,195.49 608.873,197.657 609.5,200C 609,200.5 608.5,201 608,201.5C 607.173,205.541 607.34,209.541 608.5,213.5C 609.114,208.758 609.947,204.091 611,199.5C 611.069,206.81 611.902,213.977 613.5,221C 611.153,222.086 611.153,223.419 613.5,225C 613.663,228.225 613.33,231.558 612.5,235C 613.01,236.826 613.844,236.993 615,235.5C 615.76,239.225 615.593,242.892 614.5,246.5C 615.093,248.382 615.76,250.215 616.5,252C 616.717,254.193 616.384,256.527 615.5,259C 617.567,264.086 619.234,269.586 620.5,275.5C 620.868,277.175 621.868,278.175 623.5,278.5C 628.341,307.875 633.508,337.209 639,366.5C 642.667,363.5 646.333,360.5 650,357.5C 650.206,354.377 650.873,351.377 652,348.5C 654.192,353.716 655.859,353.383 657,347.5C 661.355,344.478 665.022,340.811 668,336.5C 668.95,337.022 669.784,337.689 670.5,338.5C 673.593,336.966 676.26,334.966 678.5,332.5C 680.884,330.115 683.55,328.115 686.5,326.5C 688.024,327.174 689.358,328.174 690.5,329.5C 692.166,326.837 694.166,324.504 696.5,322.5C 697.251,323.376 697.751,324.376 698,325.5C 702.432,321.226 707.265,317.56 712.5,314.5C 714.214,315.609 714.881,314.942 714.5,312.5C 717.598,312.587 717.932,312.087 715.5,311C 716.793,310.51 718.127,310.343 719.5,310.5C 719.5,311.833 719.5,313.167 719.5,314.5C 722.898,314.18 726.232,314.513 729.5,315.5C 733.816,316.324 737.816,318.324 741.5,321.5C 744.505,328.443 744.005,335.109 740,341.5C 717.5,361.333 695,381.167 672.5,401C 658.649,411.752 644.649,422.252 630.5,432.5C 637.07,423.048 643.904,413.715 651,404.5C 652.995,400.683 654.495,396.683 655.5,392.5C 654.277,391.386 652.944,391.219 651.5,392C 621.194,417.14 589.527,440.307 556.5,461.5C 563.274,455.273 570.274,449.273 577.5,443.5C 593.269,430.239 608.936,416.739 624.5,403C 622.721,403.044 621.055,403.711 619.5,405C 605.934,416.078 592.267,426.911 578.5,437.5C 548.473,459.515 518.806,482.015 489.5,505C 490.315,506.98 491.648,508.48 493.5,509.5C 495.332,517.669 500.332,522.335 508.5,523.5C 508.298,525.989 508.798,528.323 510,530.5C 527.094,519.371 543.927,507.871 560.5,496C 583.376,478.284 606.376,460.784 629.5,443.5C 632.861,443.814 636.194,442.814 639.5,440.5C 640.695,442.297 642.362,443.297 644.5,443.5C 644.5,444.167 644.5,444.833 644.5,445.5C 639.841,448.168 635.508,451.335 631.5,455C 669.108,477.971 704.775,503.637 738.5,532C 752.73,544.219 763.896,558.719 772,575.5C 772.576,579.964 772.076,584.297 770.5,588.5C 770.466,591.433 771.299,594.1 773,596.5C 784.381,610.213 795.381,624.213 806,638.5C 814.034,651.103 819.2,664.769 821.5,679.5C 820.833,679.833 820.167,680.167 819.5,680.5C 803.947,676.195 788.28,672.362 772.5,669C 758.668,665.693 744.668,664.36 730.5,665C 727.554,665.806 724.888,667.139 722.5,669C 714.795,678.259 707.462,687.759 700.5,697.5C 678.582,727.266 656.415,756.932 634,786.5C 631.518,789.949 628.685,793.116 625.5,796C 624.5,796.667 623.5,796.667 622.5,796C 612.343,791.089 602.343,785.922 592.5,780.5C 558.698,805.237 524.032,828.737 488.5,851C 457.52,869.58 426.187,870.247 394.5,853C 356.648,830.245 319.648,806.245 283.5,781C 282.5,780.333 281.5,780.333 280.5,781C 272.005,785.413 263.672,790.08 255.5,795C 253.5,795.667 251.5,795.667 249.5,795C 221.613,757.447 194.113,719.613 167,681.5C 162.717,677.095 158.55,672.595 154.5,668C 148.664,664.458 142.33,662.958 135.5,663.5C 107.168,665.966 79.5018,671.633 52.5,680.5C 52.8994,671.23 55.0661,662.23 59,653.5C 68.0591,634.715 80.0591,618.048 95,603.5C 95.3333,600.833 95.6667,598.167 96,595.5C 98.5,592.5 101,589.5 103.5,586.5C 100.397,582.777 99.8975,578.777 102,574.5C 105.836,566.001 110.503,558.001 116,550.5C 150.815,513.711 189.315,481.544 231.5,454C 234.333,451.167 237.167,448.333 240,445.5C 244.808,433.585 247.642,421.252 248.5,408.5C 248.36,401.094 248.693,393.927 249.5,387C 248.551,386.383 247.718,386.549 247,387.5C 247.089,384.369 246.922,381.369 246.5,378.5C 246.148,376.076 247.148,374.576 249.5,374C 249.539,370.531 249.539,367.031 249.5,363.5C 249.977,362.522 250.643,361.689 251.5,361C 251.167,360.667 250.833,360.333 250.5,360C 251.191,358.933 251.691,357.766 252,356.5C 252.333,357.5 252.667,358.5 253,359.5C 253.66,356.953 253.493,354.453 252.5,352C 253.786,349.57 254.786,347.07 255.5,344.5C 254.818,342.159 254.151,339.826 253.5,337.5C 255.527,337.662 257.527,337.495 259.5,337C 257.109,335.691 257.109,334.691 259.5,334C 258.253,332.542 258.253,331.042 259.5,329.5C 258.369,328.396 257.535,328.729 257,330.5C 256.833,330 256.667,329.5 256.5,329C 258.044,327.414 259.211,325.58 260,323.5C 260.333,324.167 260.667,324.833 261,325.5C 261.5,324.333 262.333,323.5 263.5,323C 262.973,318.238 264.306,313.904 267.5,310C 267.043,309.586 266.709,309.086 266.5,308.5C 266.838,304.838 268.005,304.171 270,306.5C 270.671,305.748 271.504,305.414 272.5,305.5C 265.504,327.984 259.837,350.818 255.5,374C 258.675,391.381 262.675,408.547 267.5,425.5C 266.903,425.735 266.57,426.235 266.5,427C 269.767,441.031 275.6,453.864 284,465.5C 295.667,480.167 307.333,494.833 319,509.5C 321.309,512.719 324.142,514.385 327.5,514.5C 325.91,510.305 324.743,505.972 324,501.5C 315.17,489.176 306.836,476.509 299,463.5C 289.946,444.391 280.113,425.724 269.5,407.5C 268.478,406.646 267.645,405.646 267,404.5C 266.768,405.737 266.268,406.737 265.5,407.5C 261.554,390.816 261.554,374.15 265.5,357.5C 289.163,317.959 316.997,281.292 349,247.5C 364.949,226.615 381.616,206.282 399,186.5C 411.452,172.876 424.952,160.542 439.5,149.5C 444.646,153.478 449.646,157.645 454.5,162C 487.148,195.835 518.981,230.335 550,265.5C 566.432,285.263 582.099,305.596 597,326.5C 602.885,338.309 609.719,349.309 617.5,359.5C 619.698,366.095 621.698,372.762 623.5,379.5C 624.546,367.4 623.712,355.4 621,343.5C 615.468,320.371 609.468,297.371 603,274.5C 598.359,259.067 592.859,244.067 586.5,229.5C 584.632,223.424 582.466,217.424 580,211.5C 569.589,190.344 558.922,169.344 548,148.5C 540.206,127.784 533.206,106.784 527,85.5C 520.138,65.8206 507.971,50.4873 490.5,39.5C 498.903,41.4136 507.403,42.7469 516,43.5C 523.98,43.926 530.98,41.5926 537,36.5C 537.953,39.4318 538.453,42.4318 538.5,45.5 Z"/></g>
<g><path style="opacity:1" fill="#07222a" d="M 667.5,324.5 C 666.761,324.369 666.094,324.536 665.5,325C 661.895,331.968 656.228,334.968 648.5,334C 646.209,327.043 644.876,319.876 644.5,312.5C 660.678,280.475 676.678,248.142 692.5,215.5C 672.162,213.981 651.829,212.648 631.5,211.5C 631.167,211.5 630.833,211.5 630.5,211.5C 629.872,203.441 628.872,195.441 627.5,187.5C 666.496,186.333 705.496,186.167 744.5,187C 720.364,230.101 696.864,273.601 674,317.5C 671.628,319.703 669.461,322.037 667.5,324.5 Z"/></g>
<g><path style="opacity:1" fill="#0a8795" d="M 631.5,211.5 C 651.829,212.648 672.162,213.981 692.5,215.5C 676.678,248.142 660.678,280.475 644.5,312.5C 642.738,304.597 641.405,296.597 640.5,288.5C 641.376,288.631 642.043,288.298 642.5,287.5C 650.249,269.836 657.582,252.003 664.5,234C 664.355,233.228 664.022,232.561 663.5,232C 653.185,230.668 642.851,229.502 632.5,228.5C 631.593,222.894 631.26,217.227 631.5,211.5 Z"/></g>
<g><path style="opacity:1" fill="#050b19" d="M 500.5,132.5 C 517.757,150.993 532.59,171.326 545,193.5C 550.333,203.5 555.667,213.5 561,223.5C 566.218,236.881 571.052,250.381 575.5,264C 574.668,264.688 574.002,264.521 573.5,263.5C 560.047,236.593 546.547,209.593 533,182.5C 522.99,165.05 512.156,148.384 500.5,132.5 Z"/></g>
<g><path style="opacity:1" fill="#080e1a" d="M 287.5,283.5 C 292.845,265.465 299.178,247.798 306.5,230.5C 307.151,231.091 307.818,231.757 308.5,232.5C 326.249,202.001 345.749,172.667 367,144.5C 367.167,144.833 367.333,145.167 367.5,145.5C 359.236,157.028 351.736,169.028 345,181.5C 326.269,216.97 307.602,252.303 289,287.5C 288.59,286.099 288.09,284.766 287.5,283.5 Z"/></g>
<g><path style="opacity:1" fill="#dee6e4" d="M 283.5,243.5 C 285.036,230.486 286.703,217.486 288.5,204.5C 290.748,195.937 293.915,187.604 298,179.5C 298.167,180.167 298.333,180.833 298.5,181.5C 294.156,203.024 289.156,223.691 283.5,243.5 Z"/></g>
<g><path style="opacity:1" fill="#07232c" d="M 632.5,228.5 C 642.851,229.502 653.185,230.668 663.5,232C 664.022,232.561 664.355,233.228 664.5,234C 657.582,252.003 650.249,269.836 642.5,287.5C 642.043,288.298 641.376,288.631 640.5,288.5C 638.743,282.752 637.577,276.752 637,270.5C 635.663,256.474 634.163,242.474 632.5,228.5 Z"/></g>
<g><path style="opacity:1" fill="#a2685b" d="M 437.5,233.5 C 437.738,250.836 438.072,268.169 438.5,285.5C 437.866,286.947 436.699,287.613 435,287.5C 431.571,287.202 428.737,285.869 426.5,283.5C 431.926,281.9 435.093,278.233 436,272.5C 436.667,268.5 436.667,264.5 436,260.5C 434.833,258 433,256.167 430.5,255C 416.381,252.672 402.381,253.338 388.5,257C 384.387,258.188 380.72,260.021 377.5,262.5C 372.065,260.974 366.731,259.141 361.5,257C 384.565,242.063 409.899,234.23 437.5,233.5 Z"/></g>
<g><path style="opacity:1" fill="#eebf80" d="M 279.5,160.5 C 274.833,196.505 269.999,232.505 265,268.5C 260.417,291.496 254.917,314.163 248.5,336.5C 248.106,331.62 246.94,326.954 245,322.5C 243.989,323.337 242.822,323.67 241.5,323.5C 241.5,324.833 241.5,326.167 241.5,327.5C 238.951,327.441 236.951,328.441 235.5,330.5C 234.671,335.802 234.171,341.136 234,346.5C 233.155,348.611 232.322,350.611 231.5,352.5C 232.354,346.188 233.021,339.855 233.5,333.5C 213.45,338.35 194.45,345.85 176.5,356C 134.698,380.815 93.6982,406.815 53.5,434C 38.9516,442.107 24.2849,449.94 9.5,457.5C 32.0978,466.916 54.7644,475.916 77.5,484.5C 75.6096,484.297 74.1096,484.963 73,486.5C 70.7011,484.468 68.2011,483.801 65.5,484.5C 66.7224,486.978 68.7224,487.978 71.5,487.5C 71.298,489.95 71.6314,492.283 72.5,494.5C 63.7774,489.139 54.7774,484.306 45.5,480C 29.8548,473.295 14.5214,466.129 -0.5,458.5C -0.5,458.167 -0.5,457.833 -0.5,457.5C 43.8044,427.01 88.1378,396.51 132.5,366C 144.668,358.415 157.001,351.082 169.5,344C 174.424,341.555 179.424,339.388 184.5,337.5C 183.633,334.092 182.467,330.758 181,327.5C 156,278.5 131,229.5 106,180.5C 104.709,176.328 105.876,173.161 109.5,171C 160.166,170.5 210.832,170.333 261.5,170.5C 211.668,171.333 161.668,171.833 111.5,172C 111.167,172.333 110.833,172.667 110.5,173C 111.448,173.483 112.448,173.649 113.5,173.5C 113.351,174.552 113.517,175.552 114,176.5C 114.423,175.044 115.256,174.544 116.5,175C 115.833,176 115.167,177 114.5,178C 116.988,181.142 118.821,184.642 120,188.5C 120.333,187.5 120.667,186.5 121,185.5C 122.987,189.367 123.487,189.367 122.5,185.5C 123,185.167 123.5,184.833 124,184.5C 125.412,185.686 126.579,187.019 127.5,188.5C 151.21,234.919 174.71,281.586 198,328.5C 199.726,329.576 201.559,329.743 203.5,329C 211.315,326.232 218.982,323.399 226.5,320.5C 229.91,320.543 233.243,320.043 236.5,319C 217.496,302.157 207.162,280.99 205.5,255.5C 206.848,240.731 208.848,226.064 211.5,211.5C 212.052,207.965 213.218,204.632 215,201.5C 221.064,195.928 227.231,190.595 233.5,185.5C 233.082,184.778 232.416,184.278 231.5,184C 234.033,183.148 236.033,183.814 237.5,186C 236.833,186.333 236.167,186.667 235.5,187C 236.428,187.388 237.095,188.055 237.5,189C 236.795,190.422 236.461,191.755 236.5,193C 238.882,195.934 240.882,195.434 242.5,191.5C 242.182,190.353 241.516,189.519 240.5,189C 242.333,188.5 243.5,187.333 244,185.5C 244.333,186.167 244.667,186.833 245,187.5C 247.393,185.11 249.393,182.443 251,179.5C 251.645,180.646 252.478,181.646 253.5,182.5C 253.291,183.086 252.957,183.586 252.5,184C 253.803,184.21 255.136,184.043 256.5,183.5C 258.171,183.668 259.504,184.335 260.5,185.5C 261.161,186.718 261.828,188.051 262.5,189.5C 263.794,187.038 265.294,184.705 267,182.5C 267.756,184.809 267.256,186.809 265.5,188.5C 266.391,189.59 267.391,189.59 268.5,188.5C 268.833,189.167 269.167,189.833 269.5,190.5C 269.953,195.982 270.787,201.316 272,206.5C 271.524,201.883 271.524,197.217 272,192.5C 272.333,194.167 272.667,195.833 273,197.5C 273.348,191.161 273.182,184.827 272.5,178.5C 273.5,178.5 274.5,178.5 275.5,178.5C 275.347,174.034 275.014,169.534 274.5,165C 275,162.5 275.5,160 276,157.5C 276.483,158.448 276.649,159.448 276.5,160.5C 277.5,160.5 278.5,160.5 279.5,160.5 Z"/></g>
<g><path style="opacity:1" fill="#0c8793" d="M 211.5,211.5 C 208.848,226.064 206.848,240.731 205.5,255.5C 204.676,259.312 204.176,263.312 204,267.5C 203.617,268.056 203.117,268.389 202.5,268.5C 193.608,251.048 184.941,233.381 176.5,215.5C 188.178,214.165 199.845,212.832 211.5,211.5 Z"/></g>
<g><path style="opacity:1" fill="#08222b" d="M 260.5,185.5 C 259.199,200.544 257.532,215.544 255.5,230.5C 248.394,237.536 243.728,246.036 241.5,256C 243.723,261.605 246.056,267.105 248.5,272.5C 246.899,282.2 245.066,291.867 243,301.5C 238.642,297.804 234.975,293.47 232,288.5C 227.78,280.729 224.113,272.729 221,264.5C 221.684,248.364 223.684,232.364 227,216.5C 228.059,213.382 229.392,210.382 231,207.5C 240.089,199.052 249.923,191.719 260.5,185.5 Z"/></g>
<g><path style="opacity:1" fill="#07222a" d="M 233.5,185.5 C 227.231,190.595 221.064,195.928 215,201.5C 213.218,204.632 212.052,207.965 211.5,211.5C 199.845,212.832 188.178,214.165 176.5,215.5C 184.941,233.381 193.608,251.048 202.5,268.5C 207.579,279.666 212.412,290.999 217,302.5C 219.945,308.729 223.112,314.729 226.5,320.5C 218.982,323.399 211.315,326.232 203.5,329C 201.559,329.743 199.726,329.576 198,328.5C 174.71,281.586 151.21,234.919 127.5,188.5C 162.486,186.605 197.82,185.605 233.5,185.5 Z"/></g>
<g><path style="opacity:1" fill="#a16a5d" d="M 506.5,262.5 C 506.631,261.624 506.298,260.957 505.5,260.5C 487.339,253.717 468.673,251.884 449.5,255C 447.951,256.214 446.785,257.714 446,259.5C 444.622,266.903 445.622,273.903 449,280.5C 451.167,281.488 453,282.821 454.5,284.5C 451.831,286.115 448.831,287.115 445.5,287.5C 442.912,286.491 441.578,284.491 441.5,281.5C 440.565,268.847 440.565,256.18 441.5,243.5C 441.5,240.167 441.5,236.833 441.5,233.5C 470.281,234.195 496.947,242.028 521.5,257C 516.51,258.94 511.51,260.774 506.5,262.5 Z"/></g>
<g><path style="opacity:1" fill="#f4c185" d="M 426.5,283.5 C 410.541,275.689 394.207,268.689 377.5,262.5C 380.72,260.021 384.387,258.188 388.5,257C 402.381,253.338 416.381,252.672 430.5,255C 433,256.167 434.833,258 436,260.5C 436.667,264.5 436.667,268.5 436,272.5C 435.093,278.233 431.926,281.9 426.5,283.5 Z"/></g>
<g><path style="opacity:1" fill="#f3c186" d="M 506.5,262.5 C 488.716,268.724 471.382,276.058 454.5,284.5C 453,282.821 451.167,281.488 449,280.5C 445.622,273.903 444.622,266.903 446,259.5C 446.785,257.714 447.951,256.214 449.5,255C 468.673,251.884 487.339,253.717 505.5,260.5C 506.298,260.957 506.631,261.624 506.5,262.5 Z"/></g>
<g><path style="opacity:1" fill="#1c818b" d="M 255.5,230.5 C 253.159,244.627 250.826,258.627 248.5,272.5C 246.056,267.105 243.723,261.605 241.5,256C 243.728,246.036 248.394,237.536 255.5,230.5 Z"/></g>
<g><path style="opacity:1" fill="#a1685a" d="M 366.5,306.5 C 361.432,303.634 356.099,301.301 350.5,299.5C 347.401,299.643 345.568,301.31 345,304.5C 344.383,314.985 347.883,323.819 355.5,331C 356.793,331.49 358.127,331.657 359.5,331.5C 356.696,332.638 353.696,332.805 350.5,332C 347.296,329.131 344.463,325.965 342,322.5C 341.956,325.475 342.123,328.475 342.5,331.5C 336.343,329.493 332.843,325.16 332,318.5C 329.754,301.48 333.754,286.147 344,272.5C 346.928,279.741 350.261,286.741 354,293.5C 357.697,298.362 361.864,302.696 366.5,306.5 Z"/></g>
<g><path style="opacity:1" fill="#312126" d="M 437.5,233.5 C 438.329,240.655 438.829,247.989 439,255.5C 439.528,251.301 440.361,247.301 441.5,243.5C 440.565,256.18 440.565,268.847 441.5,281.5C 440.71,280.391 440.21,279.058 440,277.5C 439.817,280.365 439.317,283.031 438.5,285.5C 438.072,268.169 437.738,250.836 437.5,233.5 Z"/></g>
<g><path style="opacity:1" fill="#a0685a" d="M 523.5,331.5 C 528.579,330.605 532.079,327.605 534,322.5C 537.483,315.194 537.316,308.027 533.5,301C 531.5,300.333 529.5,300.333 527.5,301C 523.256,304.288 518.59,306.788 513.5,308.5C 524.7,299.122 532.7,287.456 537.5,273.5C 541.586,280.003 545.419,286.67 549,293.5C 551.456,304.382 550.789,315.048 547,325.5C 545.497,328.94 542.997,330.94 539.5,331.5C 543.242,322.21 544.409,312.543 543,302.5C 542.663,313.513 539.163,323.346 532.5,332C 529.304,332.805 526.304,332.638 523.5,331.5 Z"/></g>
<g><path style="opacity:1" fill="#edeff0" d="M 406.5,307.5 C 407.463,306.637 407.463,305.97 406.5,305.5C 398.763,308.087 391.096,308.087 383.5,305.5C 373.214,302.884 369.048,296.55 371,286.5C 374.639,284.374 378.472,284.041 382.5,285.5C 375.501,291.059 376.168,295.892 384.5,300C 390.848,302.478 396.681,301.645 402,297.5C 402.862,295.913 403.529,294.246 404,292.5C 405.644,295.311 407.81,297.644 410.5,299.5C 411.814,298.687 412.981,297.687 414,296.5C 414.011,301.794 411.511,305.46 406.5,307.5 Z"/></g>
<g><path style="opacity:1" fill="#edeff0" d="M 484.5,308.5 C 485.833,309.167 487.167,309.833 488.5,310.5C 480.892,311.022 474.892,308.355 470.5,302.5C 469.985,298.169 471.652,296.669 475.5,298C 476.386,296.385 477.386,294.885 478.5,293.5C 478.56,292.957 478.893,292.624 479.5,292.5C 482.788,300.113 488.454,302.613 496.5,300C 507.446,297.173 508.779,292.173 500.5,285C 511.055,282.338 514.888,286.171 512,296.5C 501.897,307.363 489.73,310.529 475.5,306C 478.312,307.549 481.312,308.382 484.5,308.5 Z"/></g>
<g><path style="opacity:1" fill="#313440" d="M 478.5,293.5 C 477.386,294.885 476.386,296.385 475.5,298C 471.652,296.669 469.985,298.169 470.5,302.5C 468.584,301.335 467.751,299.668 468,297.5C 471.602,296.276 475.102,294.942 478.5,293.5 Z"/></g>
<g><path style="opacity:1" fill="#edf0ef" d="M 306.5,230.5 C 299.178,247.798 292.845,265.465 287.5,283.5C 279.19,307.774 271.857,332.44 265.5,357.5C 261.554,374.15 261.554,390.816 265.5,407.5C 267.38,414.065 268.547,420.732 269,427.5C 268.722,426.584 268.222,425.918 267.5,425.5C 262.675,408.547 258.675,391.381 255.5,374C 259.837,350.818 265.504,327.984 272.5,305.5C 274.036,300.891 275.37,296.224 276.5,291.5C 287.05,263.391 299.55,236.058 314,209.5C 314.654,208.304 315.154,208.304 315.5,209.5C 312.298,216.447 309.298,223.447 306.5,230.5 Z"/></g>
<g><path style="opacity:1" fill="#f6c185" d="M 366.5,306.5 C 371.118,310.306 376.451,312.806 382.5,314C 390.543,314.224 398.543,314.891 406.5,316C 391.375,322.875 375.708,328.042 359.5,331.5C 358.127,331.657 356.793,331.49 355.5,331C 347.883,323.819 344.383,314.985 345,304.5C 345.568,301.31 347.401,299.643 350.5,299.5C 356.099,301.301 361.432,303.634 366.5,306.5 Z"/></g>
<g><path style="opacity:1" fill="#f2be86" d="M 523.5,331.5 C 506.767,328.486 490.767,323.319 475.5,316C 488.881,316.688 501.547,314.188 513.5,308.5C 518.59,306.788 523.256,304.288 527.5,301C 529.5,300.333 531.5,300.333 533.5,301C 537.316,308.027 537.483,315.194 534,322.5C 532.079,327.605 528.579,330.605 523.5,331.5 Z"/></g>
<g><path style="opacity:1" fill="#2d3137" d="M 383.5,305.5 C 391.096,308.087 398.763,308.087 406.5,305.5C 407.463,305.97 407.463,306.637 406.5,307.5C 401.948,308.057 397.615,309.057 393.5,310.5C 389.875,309.273 386.208,308.106 382.5,307C 383.056,306.617 383.389,306.117 383.5,305.5 Z"/></g>
<g><path style="opacity:1" fill="#bdc1c3" d="M 406.5,307.5 C 402.607,309.876 398.273,310.876 393.5,310.5C 397.615,309.057 401.948,308.057 406.5,307.5 Z"/></g>
<g><path style="opacity:1" fill="#616b6f" d="M 484.5,308.5 C 487.518,308.335 490.518,308.502 493.5,309C 491.753,309.352 490.086,309.852 488.5,310.5C 487.167,309.833 485.833,309.167 484.5,308.5 Z"/></g>
<g><path style="opacity:1" fill="#eef1f1" d="M 586.5,229.5 C 592.859,244.067 598.359,259.067 603,274.5C 609.468,297.371 615.468,320.371 621,343.5C 623.712,355.4 624.546,367.4 623.5,379.5C 621.698,372.762 619.698,366.095 617.5,359.5C 606.681,325.886 598.847,291.553 594,256.5C 591.391,247.511 588.891,238.511 586.5,229.5 Z"/></g>
<g><path style="opacity:1" fill="#238585" d="M 205.5,255.5 C 207.162,280.99 217.496,302.157 236.5,319C 233.243,320.043 229.91,320.543 226.5,320.5C 223.112,314.729 219.945,308.729 217,302.5C 212.412,290.999 207.579,279.666 202.5,268.5C 203.117,268.389 203.617,268.056 204,267.5C 204.176,263.312 204.676,259.312 205.5,255.5 Z"/></g>
<g><path style="opacity:1" fill="#f2f3f4" d="M 528.5,426.5 C 531.404,421.586 533.404,416.253 534.5,410.5C 534.5,410.167 534.5,409.833 534.5,409.5C 536.136,408.251 537.303,406.584 538,404.5C 538.658,401.715 539.491,399.049 540.5,396.5C 541.674,395.486 542.34,394.153 542.5,392.5C 543.738,390.786 544.405,388.786 544.5,386.5C 545.939,384.412 546.606,382.079 546.5,379.5C 550.262,371.371 548.929,364.204 542.5,358C 533.448,354.237 524.114,351.404 514.5,349.5C 493.582,344.027 473.249,336.86 453.5,328C 443.703,324.466 434.036,324.8 424.5,329C 406.439,337.52 387.772,344.353 368.5,349.5C 362.242,351.147 355.909,352.647 349.5,354C 343.667,355.174 338.834,358.007 335,362.5C 334.333,366.833 334.333,371.167 335,375.5C 335.232,376.737 335.732,377.737 336.5,378.5C 336.893,380.284 337.559,381.95 338.5,383.5C 339.692,387.302 341.025,390.969 342.5,394.5C 343.167,395.833 343.833,397.167 344.5,398.5C 345.267,402.149 346.6,405.482 348.5,408.5C 348.905,411.715 349.905,414.715 351.5,417.5C 351.024,421.378 352.024,424.712 354.5,427.5C 354.629,429.216 354.962,430.883 355.5,432.5C 356.646,437.438 358.313,442.105 360.5,446.5C 363.833,454.486 368.666,461.486 375,467.5C 375.688,468.332 375.521,468.998 374.5,469.5C 365.809,464.309 358.975,457.309 354,448.5C 345.356,430.236 337.69,411.57 331,392.5C 329.413,387.232 328.08,381.899 327,376.5C 326.085,370.056 326.419,363.723 328,357.5C 331.752,354.371 335.919,351.871 340.5,350C 368.588,344.193 395.588,335.193 421.5,323C 432.287,318.153 443.287,317.487 454.5,321C 467.174,326.558 480.007,331.725 493,336.5C 510.06,341.723 527.227,346.557 544.5,351C 549.877,352.421 553.711,355.587 556,360.5C 557.359,373.041 555.359,385.041 550,396.5C 543.412,413.676 535.745,430.342 527,446.5C 523.833,449.667 520.667,452.833 517.5,456C 505.806,464.178 493.806,471.845 481.5,479C 480.216,479.684 479.049,479.517 478,478.5C 477.104,475.975 477.604,473.808 479.5,472C 494.162,466.252 507.328,458.085 519,447.5C 523.799,441.282 526.966,434.282 528.5,426.5 Z"/></g>
<g><path style="opacity:1" fill="#27525c" d="M 514.5,349.5 C 524.114,351.404 533.448,354.237 542.5,358C 548.929,364.204 550.262,371.371 546.5,379.5C 546.53,378.503 546.03,377.836 545,377.5C 532.242,379.143 519.409,379.976 506.5,380C 488.957,383.268 471.29,385.601 453.5,387C 470.352,389.913 487.352,391.079 504.5,390.5C 514.167,390.333 523.833,390.167 533.5,390C 536.893,388.067 540.559,386.9 544.5,386.5C 544.405,388.786 543.738,390.786 542.5,392.5C 542.265,391.903 541.765,391.57 541,391.5C 535.181,394.465 529.014,396.298 522.5,397C 508.234,403.483 493.9,409.817 479.5,416C 472.831,416.775 466.498,418.608 460.5,421.5C 465.467,422.662 470.467,422.829 475.5,422C 492.297,418.974 508.631,414.307 524.5,408C 530.468,404.868 535.801,401.035 540.5,396.5C 539.491,399.049 538.658,401.715 538,404.5C 537.303,406.584 536.136,408.251 534.5,409.5C 534.483,407.972 533.816,407.472 532.5,408C 517.003,418.25 501.336,428.25 485.5,438C 477.469,441.683 469.469,445.35 461.5,449C 477.692,446.422 493.359,441.755 508.5,435C 513.188,432.322 517.521,429.156 521.5,425.5C 525.512,420.16 529.845,415.16 534.5,410.5C 533.404,416.253 531.404,421.586 528.5,426.5C 528.631,425.761 528.464,425.094 528,424.5C 503.307,449.765 473.474,464.098 438.5,467.5C 437.292,466.766 435.959,466.433 434.5,466.5C 432.5,466.833 430.5,467.167 428.5,467.5C 420.835,458.881 411.168,454.381 399.5,454C 383.091,447.396 368.091,438.562 354.5,427.5C 352.024,424.712 351.024,421.378 351.5,417.5C 359.441,424.474 367.774,430.974 376.5,437C 384.955,442.321 394.122,445.154 404,445.5C 407.684,445.63 411.184,445.13 414.5,444C 404.083,439.527 393.749,434.861 383.5,430C 372.402,421.79 360.735,414.624 348.5,408.5C 346.6,405.482 345.267,402.149 344.5,398.5C 356.919,408.544 370.919,415.711 386.5,420C 396.6,423.107 406.933,425.44 417.5,427C 422.202,427.828 426.869,427.662 431.5,426.5C 417.995,421.052 404.328,415.885 390.5,411C 375.191,403.122 359.358,396.622 343,391.5C 342.517,392.448 342.351,393.448 342.5,394.5C 341.025,390.969 339.692,387.302 338.5,383.5C 342.316,386.507 346.649,388.674 351.5,390C 376.883,390.962 402.216,390.629 427.5,389C 397.326,381.334 366.993,377.834 336.5,378.5C 335.732,377.737 335.232,376.737 335,375.5C 334.333,371.167 334.333,366.833 335,362.5C 338.834,358.007 343.667,355.174 349.5,354C 355.909,352.647 362.242,351.147 368.5,349.5C 369.496,350.665 370.829,351.332 372.5,351.5C 392.332,346.945 411.332,340.112 429.5,331C 437.587,328.896 445.587,329.229 453.5,332C 468.19,338.513 483.19,344.179 498.5,349C 503.16,349.88 507.827,350.713 512.5,351.5C 513.713,351.253 514.38,350.586 514.5,349.5 Z"/></g>
<g><path style="opacity:1" fill="#0a212b" d="M 231.5,352.5 C 230.778,357.142 229.944,361.809 229,366.5C 227.951,368.107 226.451,368.773 224.5,368.5C 218.639,367.817 214.639,364.651 212.5,359C 211.004,358.493 209.837,358.993 209,360.5C 208.005,363.126 207.672,365.793 208,368.5C 209.749,367.701 211.082,368.368 212,370.5C 213.579,380.123 214.246,389.79 214,399.5C 206.611,389.777 199.611,379.777 193,369.5C 192.202,367.741 192.369,366.074 193.5,364.5C 196.527,363.004 198.027,360.671 198,357.5C 181.472,365.178 165.639,374.012 150.5,384C 153,384.885 155.333,386.052 157.5,387.5C 164.833,404.833 172.167,422.167 179.5,439.5C 183.518,441.326 185.018,444.326 184,448.5C 180.911,451.667 179.244,455.334 179,459.5C 189.49,451.588 200.157,443.922 211,436.5C 206.736,429.432 208.57,423.932 216.5,420C 219.784,419.019 222.451,419.853 224.5,422.5C 222.891,424.94 220.557,426.107 217.5,426C 217.833,426.333 218.167,426.667 218.5,427C 222.134,427.995 225.801,428.495 229.5,428.5C 228.815,433.223 227.148,437.557 224.5,441.5C 211.819,449.506 199.485,458.006 187.5,467C 166.285,483.209 145.951,500.542 126.5,519C 122.026,521.973 117.693,525.14 113.5,528.5C 112.186,527.687 111.019,526.687 110,525.5C 101.667,512.833 93.3333,500.167 85,487.5C 82.874,485.623 80.374,484.623 77.5,484.5C 54.7644,475.916 32.0978,466.916 9.5,457.5C 24.2849,449.94 38.9516,442.107 53.5,434C 93.6982,406.815 134.698,380.815 176.5,356C 194.45,345.85 213.45,338.35 233.5,333.5C 233.021,339.855 232.354,346.188 231.5,352.5 Z"/></g>
<g><path style="opacity:1" fill="#4995ad" d="M 710.5,325.5 C 711.496,325.414 712.329,325.748 713,326.5C 715.104,332.773 719.271,336.773 725.5,338.5C 732.161,337.337 735.995,333.337 737,326.5C 737.667,330.167 737.667,333.833 737,337.5C 734.5,340 732,342.5 729.5,345C 727.305,346.373 724.971,346.706 722.5,346C 715.991,341.827 711.324,336.16 708.5,329C 708.978,327.697 709.645,326.531 710.5,325.5 Z"/></g>
<g><path style="opacity:1" fill="#0f1821" d="M 514.5,349.5 C 514.38,350.586 513.713,351.253 512.5,351.5C 507.827,350.713 503.16,349.88 498.5,349C 483.19,344.179 468.19,338.513 453.5,332C 445.587,329.229 437.587,328.896 429.5,331C 411.332,340.112 392.332,346.945 372.5,351.5C 370.829,351.332 369.496,350.665 368.5,349.5C 387.772,344.353 406.439,337.52 424.5,329C 434.036,324.8 443.703,324.466 453.5,328C 473.249,336.86 493.582,344.027 514.5,349.5 Z"/></g>
<g><path style="opacity:1" fill="#f0c184" d="M 630.5,211.5 C 630.833,211.5 631.167,211.5 631.5,211.5C 631.26,217.227 631.593,222.894 632.5,228.5C 634.163,242.474 635.663,256.474 637,270.5C 637.577,276.752 638.743,282.752 640.5,288.5C 641.405,296.597 642.738,304.597 644.5,312.5C 644.876,319.876 646.209,327.043 648.5,334C 656.228,334.968 661.895,331.968 665.5,325C 666.094,324.536 666.761,324.369 667.5,324.5C 667.271,330.115 669.771,332.115 675,330.5C 676.077,331.429 677.244,332.096 678.5,332.5C 676.26,334.966 673.593,336.966 670.5,338.5C 669.784,337.689 668.95,337.022 668,336.5C 665.022,340.811 661.355,344.478 657,347.5C 655.859,353.383 654.192,353.716 652,348.5C 650.873,351.377 650.206,354.377 650,357.5C 646.333,360.5 642.667,363.5 639,366.5C 633.508,337.209 628.341,307.875 623.5,278.5C 618.907,243.566 614.907,208.566 611.5,173.5C 612.268,174.263 612.768,175.263 613,176.5C 613.333,174.833 613.667,173.167 614,171.5C 617.393,179.352 618.559,187.185 617.5,195C 617.755,196.326 618.422,197.326 619.5,198C 618.978,198.561 618.645,199.228 618.5,200C 619.01,201.826 619.844,201.993 621,200.5C 621.161,205.134 621.994,209.634 623.5,214C 621.665,217.061 621.331,220.227 622.5,223.5C 623.356,219.919 624.356,219.753 625.5,223C 624.699,226.266 623.365,229.266 621.5,232C 622,233.5 622.5,235 623,236.5C 624.17,233.495 625.336,230.495 626.5,227.5C 627.167,228.5 627.833,229.5 628.5,230.5C 630.253,224.306 630.919,217.973 630.5,211.5 Z"/></g>
<g><path style="opacity:1" fill="#5caece" d="M 703.5,342.5 C 697.384,346.11 691.384,349.943 685.5,354C 684.115,352.925 681.782,352.425 678.5,352.5C 680.22,349.269 682.553,346.436 685.5,344C 689,341.167 692.5,338.333 696,335.5C 698.998,337.333 701.498,339.666 703.5,342.5 Z"/></g>
<g><path style="opacity:1" fill="#498ba7" d="M 703.5,342.5 C 709.034,346.856 711.534,352.523 711,359.5C 705.98,364.021 700.813,368.355 695.5,372.5C 690.764,365.019 685.097,358.352 678.5,352.5C 681.782,352.425 684.115,352.925 685.5,354C 691.384,349.943 697.384,346.11 703.5,342.5 Z"/></g>
<g><path style="opacity:1" fill="#060b17" d="M 407.5,353.5 C 411.514,353.334 415.514,353.501 419.5,354C 402.759,359.469 386.092,365.136 369.5,371C 363.322,373.118 356.989,374.284 350.5,374.5C 350.657,373.127 350.49,371.793 350,370.5C 347.923,368.924 346.423,366.924 345.5,364.5C 366.613,362.714 387.28,359.047 407.5,353.5 Z"/></g>
<g><path style="opacity:1" fill="#070e19" d="M 459.5,354.5 C 475.662,354.556 491.662,357.056 507.5,362C 517.5,362.333 527.5,362.667 537.5,363C 535.208,366.416 533.041,369.916 531,373.5C 529.938,374.097 528.772,374.43 527.5,374.5C 504.457,369.073 481.791,362.406 459.5,354.5 Z"/></g>
<g><path style="opacity:1" fill="#0b0c16" d="M 727.5,374.5 C 726.167,374.5 724.833,374.5 723.5,374.5C 723.85,377.041 723.85,379.374 723.5,381.5C 722.577,380.697 721.577,380.53 720.5,381C 702.722,398.451 684.055,414.785 664.5,430C 663.748,430.671 663.414,431.504 663.5,432.5C 662.127,432.343 660.793,432.51 659.5,433C 654.62,436.72 649.62,440.22 644.5,443.5C 642.362,443.297 640.695,442.297 639.5,440.5C 636.194,442.814 632.861,443.814 629.5,443.5C 669.245,412.607 707.412,379.607 744,344.5C 749.259,336.925 749.926,328.925 746,320.5C 740.62,311.93 733.12,309.097 723.5,312C 731.063,312.448 737.063,315.614 741.5,321.5C 737.816,318.324 733.816,316.324 729.5,315.5C 726.232,314.513 722.898,314.18 719.5,314.5C 719.5,313.167 719.5,311.833 719.5,310.5C 718.127,310.343 716.793,310.51 715.5,311C 717.932,312.087 717.598,312.587 714.5,312.5C 714.881,314.942 714.214,315.609 712.5,314.5C 707.265,317.56 702.432,321.226 698,325.5C 697.751,324.376 697.251,323.376 696.5,322.5C 694.166,324.504 692.166,326.837 690.5,329.5C 689.358,328.174 688.024,327.174 686.5,326.5C 687.458,325.038 688.624,323.705 690,322.5C 690.49,321.207 690.657,319.873 690.5,318.5C 692.677,318.586 694.677,319.253 696.5,320.5C 701.646,316.522 706.646,312.355 711.5,308C 720.665,302.458 729.999,302.124 739.5,307C 758.078,319.883 760.245,335.05 746,352.5C 740.333,357.5 734.667,362.5 729,367.5C 727.798,369.677 727.298,372.011 727.5,374.5 Z"/></g>
<g><path style="opacity:1" fill="#f5f7f7" d="M 224.5,368.5 C 224.081,372.773 224.748,376.773 226.5,380.5C 225.542,380.047 224.708,379.381 224,378.5C 221.785,388.359 221.119,398.359 222,408.5C 225.336,412.668 228.836,416.668 232.5,420.5C 233.172,423.942 232.172,426.609 229.5,428.5C 225.801,428.495 222.134,427.995 218.5,427C 218.167,426.667 217.833,426.333 217.5,426C 220.557,426.107 222.891,424.94 224.5,422.5C 222.451,419.853 219.784,419.019 216.5,420C 208.57,423.932 206.736,429.432 211,436.5C 200.157,443.922 189.49,451.588 179,459.5C 179.244,455.334 180.911,451.667 184,448.5C 185.018,444.326 183.518,441.326 179.5,439.5C 172.167,422.167 164.833,404.833 157.5,387.5C 155.333,386.052 153,384.885 150.5,384C 165.639,374.012 181.472,365.178 198,357.5C 198.027,360.671 196.527,363.004 193.5,364.5C 192.369,366.074 192.202,367.741 193,369.5C 199.611,379.777 206.611,389.777 214,399.5C 214.246,389.79 213.579,380.123 212,370.5C 211.082,368.368 209.749,367.701 208,368.5C 207.672,365.793 208.005,363.126 209,360.5C 209.837,358.993 211.004,358.493 212.5,359C 214.639,364.651 218.639,367.817 224.5,368.5 Z"/></g>
<g><path style="opacity:1" fill="#0b222d" d="M 171.5,373.5 C 174.272,373.22 176.772,373.887 179,375.5C 186,391.5 193,407.5 200,423.5C 201.663,427.496 203.829,431.163 206.5,434.5C 204.589,438.21 201.756,439.544 198,438.5C 189.278,419.666 180.945,400.666 173,381.5C 171.921,378.937 171.421,376.271 171.5,373.5 Z"/></g>
<g><path style="opacity:1" fill="#0a202a" d="M 727.5,374.5 C 736.799,379.149 745.799,384.316 754.5,390C 789.394,414.617 825.727,436.95 863.5,457C 839.434,467.911 814.767,477.244 789.5,485C 778.855,500.47 767.855,515.637 756.5,530.5C 740.937,516.767 724.937,503.6 708.5,491C 687.264,475.582 665.931,460.415 644.5,445.5C 644.5,444.833 644.5,444.167 644.5,443.5C 649.62,440.22 654.62,436.72 659.5,433C 660.793,432.51 662.127,432.343 663.5,432.5C 664.947,433.134 665.613,434.301 665.5,436C 664.404,439.264 663.071,442.431 661.5,445.5C 680.005,456.989 698.005,469.323 715.5,482.5C 716.5,482.167 717.167,481.5 717.5,480.5C 714.55,478.885 711.884,476.885 709.5,474.5C 708.572,473.232 708.405,471.899 709,470.5C 712.632,467.87 715.965,464.87 719,461.5C 723.587,453.996 727.92,446.329 732,438.5C 732.862,440.087 733.529,441.754 734,443.5C 734.667,452.167 734.667,460.833 734,469.5C 733.71,471.044 733.044,472.377 732,473.5C 730.612,472.446 729.112,472.28 727.5,473C 722.473,476.231 719.973,480.731 720,486.5C 731.333,495.167 742.667,503.833 754,512.5C 752.934,509.034 751.267,505.701 749,502.5C 753.314,494.92 757.98,487.254 763,479.5C 765.551,475.065 767.551,470.399 769,465.5C 771.08,463.877 773.246,462.377 775.5,461C 781.631,451.909 787.131,442.409 792,432.5C 795.654,436.769 797.488,441.769 797.5,447.5C 802.963,445.564 808.296,443.231 813.5,440.5C 809.5,437.833 805.5,435.167 801.5,432.5C 799.541,433.748 798.041,435.415 797,437.5C 796.313,435.432 796.48,433.432 797.5,431.5C 796.687,430.186 795.687,429.019 794.5,428C 783.97,420.637 773.303,413.471 762.5,406.5C 761.963,413.126 760.963,419.626 759.5,426C 751.718,429.375 743.718,431.708 735.5,433C 741.252,422.765 748.252,413.599 756.5,405.5C 752.085,400.592 746.918,396.592 741,393.5C 738.743,394.09 737.076,395.423 736,397.5C 725.155,418.867 714.155,439.867 703,460.5C 706.086,463.504 705.919,466.504 702.5,469.5C 697.244,466.927 693.911,462.927 692.5,457.5C 694.527,457.662 696.527,457.495 698.5,457C 696.078,454.997 695.245,452.497 696,449.5C 706.667,430.833 717.333,412.167 728,393.5C 730.93,391.934 734.097,391.1 737.5,391C 732.248,388.552 727.581,385.386 723.5,381.5C 723.85,379.374 723.85,377.041 723.5,374.5C 724.833,374.5 726.167,374.5 727.5,374.5 Z"/></g>
<g><path style="opacity:1" fill="#060b18" d="M 546.5,379.5 C 546.606,382.079 545.939,384.412 544.5,386.5C 540.559,386.9 536.893,388.067 533.5,390C 523.833,390.167 514.167,390.333 504.5,390.5C 487.352,391.079 470.352,389.913 453.5,387C 471.29,385.601 488.957,383.268 506.5,380C 519.409,379.976 532.242,379.143 545,377.5C 546.03,377.836 546.53,378.503 546.5,379.5 Z"/></g>
<g><path style="opacity:1" fill="#060a18" d="M 338.5,383.5 C 337.559,381.95 336.893,380.284 336.5,378.5C 366.993,377.834 397.326,381.334 427.5,389C 402.216,390.629 376.883,390.962 351.5,390C 346.649,388.674 342.316,386.507 338.5,383.5 Z"/></g>
<g><path style="opacity:1" fill="#0f242e" d="M 226.5,380.5 C 229.611,386.986 232.445,393.652 235,400.5C 235.125,407.392 234.291,414.059 232.5,420.5C 228.836,416.668 225.336,412.668 222,408.5C 221.119,398.359 221.785,388.359 224,378.5C 224.708,379.381 225.542,380.047 226.5,380.5 Z"/></g>
<g><path style="opacity:1" fill="#f6f8f7" d="M 146.5,385.5 C 147.496,385.414 148.329,385.748 149,386.5C 156.549,407.144 164.882,427.477 174,447.5C 175.249,456.28 172.083,458.78 164.5,455C 162.333,452.833 160.167,450.667 158,448.5C 150.612,433 143.612,417.334 137,401.5C 136.044,400.421 135.211,399.255 134.5,398C 132.239,397.761 130.239,397.594 128.5,397.5C 134.529,393.49 140.529,389.49 146.5,385.5 Z"/></g>
<g><path style="opacity:1" fill="#4a8ca8" d="M 630.5,432.5 C 603.417,454.221 576.084,475.721 548.5,497C 535.538,506.474 522.205,515.307 508.5,523.5C 500.332,522.335 495.332,517.669 493.5,509.5C 514.312,493.26 535.312,477.26 556.5,461.5C 589.527,440.307 621.194,417.14 651.5,392C 652.944,391.219 654.277,391.386 655.5,392.5C 654.495,396.683 652.995,400.683 651,404.5C 643.904,413.715 637.07,423.048 630.5,432.5 Z"/></g>
<g><path style="opacity:1" fill="#060b18" d="M 344.5,398.5 C 343.833,397.167 343.167,395.833 342.5,394.5C 342.351,393.448 342.517,392.448 343,391.5C 359.358,396.622 375.191,403.122 390.5,411C 404.328,415.885 417.995,421.052 431.5,426.5C 426.869,427.662 422.202,427.828 417.5,427C 406.933,425.44 396.6,423.107 386.5,420C 370.919,415.711 356.919,408.544 344.5,398.5 Z"/></g>
<g><path style="opacity:1" fill="#070c1a" d="M 542.5,392.5 C 542.34,394.153 541.674,395.486 540.5,396.5C 535.801,401.035 530.468,404.868 524.5,408C 508.631,414.307 492.297,418.974 475.5,422C 470.467,422.829 465.467,422.662 460.5,421.5C 466.498,418.608 472.831,416.775 479.5,416C 493.9,409.817 508.234,403.483 522.5,397C 529.014,396.298 535.181,394.465 541,391.5C 541.765,391.57 542.265,391.903 542.5,392.5 Z"/></g>
<g><path style="opacity:1" fill="#192f3a" d="M 204.5,403.5 C 204.56,402.957 204.893,402.624 205.5,402.5C 209.635,406.618 213.301,410.952 216.5,415.5C 214.774,415.815 213.107,415.981 211.5,416C 209.28,411.722 206.947,407.555 204.5,403.5 Z"/></g>
<g><path style="opacity:1" fill="#070a19" d="M 348.5,408.5 C 360.735,414.624 372.402,421.79 383.5,430C 393.749,434.861 404.083,439.527 414.5,444C 411.184,445.13 407.684,445.63 404,445.5C 394.122,445.154 384.955,442.321 376.5,437C 367.774,430.974 359.441,424.474 351.5,417.5C 349.905,414.715 348.905,411.715 348.5,408.5 Z"/></g>
<g><path style="opacity:1" fill="#080a19" d="M 534.5,409.5 C 534.5,409.833 534.5,410.167 534.5,410.5C 529.845,415.16 525.512,420.16 521.5,425.5C 517.521,429.156 513.188,432.322 508.5,435C 493.359,441.755 477.692,446.422 461.5,449C 469.469,445.35 477.469,441.683 485.5,438C 501.336,428.25 517.003,418.25 532.5,408C 533.816,407.472 534.483,407.972 534.5,409.5 Z"/></g>
<g><path style="opacity:1" fill="#d7d9dd" d="M 577.5,443.5 C 577.389,442.883 577.056,442.383 576.5,442C 578.037,440.89 578.703,439.39 578.5,437.5C 592.267,426.911 605.934,416.078 619.5,405C 621.055,403.711 622.721,403.044 624.5,403C 608.936,416.739 593.269,430.239 577.5,443.5 Z"/></g>
<g><path style="opacity:1" fill="#f6f8f7" d="M 111.5,407.5 C 112.5,407.5 113.5,407.5 114.5,407.5C 114.297,409.638 113.297,411.305 111.5,412.5C 118.796,429.617 126.296,446.617 134,463.5C 136.203,468.744 139.036,473.578 142.5,478C 149.204,478.958 152.371,476.124 152,469.5C 147.038,465.845 142.038,462.179 137,458.5C 134.373,454.081 131.873,449.581 129.5,445C 129.833,444.833 130.167,444.667 130.5,444.5C 144.785,451.036 159.118,457.369 173.5,463.5C 160.797,475.035 147.63,486.035 134,496.5C 133.708,494.674 133.875,492.841 134.5,491C 134.561,489.289 133.894,487.956 132.5,487C 124.167,481.833 115.833,476.667 107.5,471.5C 106.479,472.002 106.312,472.668 107,473.5C 115.317,481.475 122.484,490.309 128.5,500C 125.04,504.794 120.873,508.96 116,512.5C 116.463,509.23 117.796,506.23 120,503.5C 120.667,501.5 120.667,499.5 120,497.5C 116.599,495.639 113.599,493.305 111,490.5C 106.527,480.221 101.527,470.221 96,460.5C 88.6014,455.386 80.7681,451.219 72.5,448C 69.1667,445.667 65.8333,443.333 62.5,441C 70.3333,435.833 78.1667,430.667 86,425.5C 87.5,426.333 88.6667,427.5 89.5,429C 85.5181,429.772 83.8515,431.939 84.5,435.5C 95.52,443.163 106.853,449.996 118.5,456C 112.451,445.403 106.784,434.57 101.5,423.5C 99.3333,422.052 97,420.885 94.5,420C 100.234,415.812 105.901,411.646 111.5,407.5 Z"/></g>
<g><path style="opacity:0.994" fill="#edc07d" d="M 248.5,336.5 C 246.517,348.44 244.85,360.44 243.5,372.5C 244.525,384.714 246.192,396.714 248.5,408.5C 247.642,421.252 244.808,433.585 240,445.5C 237.167,448.333 234.333,451.167 231.5,454C 189.315,481.544 150.815,513.711 116,550.5C 110.503,558.001 105.836,566.001 102,574.5C 99.8975,578.777 100.397,582.777 103.5,586.5C 101,589.5 98.5,592.5 96,595.5C 95.6667,598.167 95.3333,600.833 95,603.5C 80.0591,618.048 68.0591,634.715 59,653.5C 55.0661,662.23 52.8994,671.23 52.5,680.5C 79.5018,671.633 107.168,665.966 135.5,663.5C 142.33,662.958 148.664,664.458 154.5,668C 158.55,672.595 162.717,677.095 167,681.5C 194.113,719.613 221.613,757.447 249.5,795C 251.5,795.667 253.5,795.667 255.5,795C 263.672,790.08 272.005,785.413 280.5,781C 281.5,780.333 282.5,780.333 283.5,781C 319.648,806.245 356.648,830.245 394.5,853C 426.187,870.247 457.52,869.58 488.5,851C 524.032,828.737 558.698,805.237 592.5,780.5C 602.343,785.922 612.343,791.089 622.5,796C 623.5,796.667 624.5,796.667 625.5,796C 628.685,793.116 631.518,789.949 634,786.5C 656.415,756.932 678.582,727.266 700.5,697.5C 700.369,698.376 700.702,699.043 701.5,699.5C 705.897,696.279 709.397,696.946 712,701.5C 713.509,699.081 715.675,698.081 718.5,698.5C 717.457,693.536 719.124,691.869 723.5,693.5C 696.765,729.293 670.265,765.293 644,801.5C 641.167,805 638,808.167 634.5,811C 629.589,812.492 624.589,812.826 619.5,812C 611.723,808.695 603.89,805.528 596,802.5C 595,802.833 594,803.167 593,803.5C 559.351,825.767 525.518,847.601 491.5,869C 478.015,876.55 463.682,881.384 448.5,883.5C 443.5,883.5 438.5,883.5 433.5,883.5C 415.805,881.403 399.138,875.903 383.5,867C 349.167,845.333 314.833,823.667 280.5,802C 279.5,801.333 278.5,801.333 277.5,802C 270.394,805.887 263.061,809.22 255.5,812C 241.3,814.147 232.133,808.314 228,794.5C 211.226,773.06 195.226,751.06 180,728.5C 168.615,714.116 157.615,699.45 147,684.5C 145.786,682.951 144.286,681.785 142.5,681C 130.037,680.266 117.704,681.266 105.5,684C 84.8137,688.77 64.1471,693.604 43.5,698.5C 40.2272,697.95 37.7272,696.283 36,693.5C 35.3333,686.167 35.3333,678.833 36,671.5C 39.0619,663.648 41.7286,655.648 44,647.5C 49.4144,637.669 55.0811,628.002 61,618.5C 69.6667,607.833 78.3333,597.167 87,586.5C 86.1085,580.507 86.4418,574.507 88,568.5C 92.7167,559.787 98.2167,551.621 104.5,544C 93.7,527.562 83.0333,511.062 72.5,494.5C 71.6314,492.283 71.298,489.95 71.5,487.5C 68.7224,487.978 66.7224,486.978 65.5,484.5C 68.2011,483.801 70.7011,484.468 73,486.5C 74.1096,484.963 75.6096,484.297 77.5,484.5C 80.374,484.623 82.874,485.623 85,487.5C 93.3333,500.167 101.667,512.833 110,525.5C 111.019,526.687 112.186,527.687 113.5,528.5C 117.693,525.14 122.026,521.973 126.5,519C 145.951,500.542 166.285,483.209 187.5,467C 199.485,458.006 211.819,449.506 224.5,441.5C 227.148,437.557 228.815,433.223 229.5,428.5C 232.172,426.609 233.172,423.942 232.5,420.5C 234.291,414.059 235.125,407.392 235,400.5C 232.445,393.652 229.611,386.986 226.5,380.5C 224.748,376.773 224.081,372.773 224.5,368.5C 226.451,368.773 227.951,368.107 229,366.5C 229.944,361.809 230.778,357.142 231.5,352.5C 232.322,350.611 233.155,348.611 234,346.5C 234.171,341.136 234.671,335.802 235.5,330.5C 236.951,328.441 238.951,327.441 241.5,327.5C 241.5,326.167 241.5,324.833 241.5,323.5C 242.822,323.67 243.989,323.337 245,322.5C 246.94,326.954 248.106,331.62 248.5,336.5 Z"/></g>
<g><path style="opacity:1" fill="#444c5d" d="M 355.5,432.5 C 357.248,435.431 359.248,438.264 361.5,441C 360.594,442.699 360.261,444.533 360.5,446.5C 358.313,442.105 356.646,437.438 355.5,432.5 Z"/></g>
<g><path style="opacity:1" fill="#f5f7f6" d="M 723.5,381.5 C 727.581,385.386 732.248,388.552 737.5,391C 734.097,391.1 730.93,391.934 728,393.5C 717.333,412.167 706.667,430.833 696,449.5C 695.245,452.497 696.078,454.997 698.5,457C 696.527,457.495 694.527,457.662 692.5,457.5C 693.911,462.927 697.244,466.927 702.5,469.5C 705.919,466.504 706.086,463.504 703,460.5C 714.155,439.867 725.155,418.867 736,397.5C 737.076,395.423 738.743,394.09 741,393.5C 746.918,396.592 752.085,400.592 756.5,405.5C 748.252,413.599 741.252,422.765 735.5,433C 743.718,431.708 751.718,429.375 759.5,426C 760.963,419.626 761.963,413.126 762.5,406.5C 773.303,413.471 783.97,420.637 794.5,428C 795.687,429.019 796.687,430.186 797.5,431.5C 796.48,433.432 796.313,435.432 797,437.5C 798.041,435.415 799.541,433.748 801.5,432.5C 805.5,435.167 809.5,437.833 813.5,440.5C 808.296,443.231 802.963,445.564 797.5,447.5C 797.488,441.769 795.654,436.769 792,432.5C 787.131,442.409 781.631,451.909 775.5,461C 773.246,462.377 771.08,463.877 769,465.5C 767.551,470.399 765.551,475.065 763,479.5C 757.98,487.254 753.314,494.92 749,502.5C 751.267,505.701 752.934,509.034 754,512.5C 742.667,503.833 731.333,495.167 720,486.5C 719.973,480.731 722.473,476.231 727.5,473C 729.112,472.28 730.612,472.446 732,473.5C 733.044,472.377 733.71,471.044 734,469.5C 734.667,460.833 734.667,452.167 734,443.5C 733.529,441.754 732.862,440.087 732,438.5C 727.92,446.329 723.587,453.996 719,461.5C 715.965,464.87 712.632,467.87 709,470.5C 708.405,471.899 708.572,473.232 709.5,474.5C 711.884,476.885 714.55,478.885 717.5,480.5C 717.167,481.5 716.5,482.167 715.5,482.5C 698.005,469.323 680.005,456.989 661.5,445.5C 663.071,442.431 664.404,439.264 665.5,436C 665.613,434.301 664.947,433.134 663.5,432.5C 663.414,431.504 663.748,430.671 664.5,430C 684.055,414.785 702.722,398.451 720.5,381C 721.577,380.53 722.577,380.697 723.5,381.5 Z"/></g>
<g><path style="opacity:1" fill="#182b35" d="M 741.5,439.5 C 744.747,439.415 747.581,440.415 750,442.5C 749.719,445.029 748.385,447.029 746,448.5C 742.893,446.286 741.393,443.286 741.5,439.5 Z"/></g>
<g><path style="opacity:1" fill="#0b212c" d="M 774.5,423.5 C 776.665,423.116 778.332,423.783 779.5,425.5C 774.955,435.591 770.122,445.591 765,455.5C 762.285,458.731 758.785,460.564 754.5,461C 750.601,465.021 748.434,469.855 748,475.5C 747.667,480.5 747.333,485.5 747,490.5C 745.06,493.395 742.56,495.728 739.5,497.5C 736.399,495.902 733.732,493.735 731.5,491C 737.252,479.665 742.585,468.165 747.5,456.5C 749.437,455.842 751.27,455.509 753,455.5C 758,447.167 763,438.833 768,430.5C 769.728,427.67 771.895,425.337 774.5,423.5 Z"/></g>
<g><path style="opacity:1" fill="#0b212b" d="M 703.5,407.5 C 704.097,407.735 704.43,408.235 704.5,409C 701.408,420.538 698.241,432.038 695,443.5C 689.828,447.58 683.995,449.746 677.5,450C 675.208,448.71 673.208,447.043 671.5,445C 676.456,438.254 681.29,431.421 686,424.5C 691.729,418.603 697.562,412.936 703.5,407.5 Z"/></g>
<g><path style="opacity:1" fill="#264254" d="M 363.5,443.5 C 369.669,448.833 376.002,453.999 382.5,459C 379.902,458.874 377.569,457.874 375.5,456C 371.761,452.383 367.928,448.883 364,445.5C 363.536,444.906 363.369,444.239 363.5,443.5 Z"/></g>
<g><path style="opacity:1" fill="#e8e1d4" d="M 423.5,485.5 C 420.636,478.267 416.636,471.767 411.5,466C 403.33,464.005 399.664,467.171 400.5,475.5C 396.537,464.608 400.537,460.108 412.5,462C 419.785,469.551 424.619,478.385 427,488.5C 425.855,487.364 424.688,486.364 423.5,485.5 Z"/></g>
<g><path style="opacity:1" fill="#efb689" d="M 423.5,485.5 C 417.773,485.483 412.107,485.649 406.5,486C 403.591,483.015 401.591,479.515 400.5,475.5C 399.664,467.171 403.33,464.005 411.5,466C 416.636,471.767 420.636,478.267 423.5,485.5 Z"/></g>
<g><path style="opacity:1" fill="#0d3140" d="M 434.5,466.5 C 451.856,485.538 467.022,506.205 480,528.5C 501.171,556.675 521.171,585.675 540,615.5C 540.608,617.154 541.108,618.821 541.5,620.5C 541.158,621.338 540.492,621.672 539.5,621.5C 539.29,618.03 538.123,618.03 536,621.5C 534.774,624.952 533.274,628.285 531.5,631.5C 530.726,632.711 529.893,632.711 529,631.5C 515.658,609.477 501.325,588.143 486,567.5C 480.783,557.067 476.117,546.401 472,535.5C 469.188,529.21 465.855,523.21 462,517.5C 455.758,512.292 448.925,507.959 441.5,504.5C 440.692,498.162 439.859,491.829 439,485.5C 435.741,479.308 432.241,473.308 428.5,467.5C 430.5,467.167 432.5,466.833 434.5,466.5 Z"/></g>
<g><path style="opacity:1" fill="#0d2d3c" d="M 267.5,425.5 C 268.222,425.918 268.722,426.584 269,427.5C 268.547,420.732 267.38,414.065 265.5,407.5C 266.268,406.737 266.768,405.737 267,404.5C 267.645,405.646 268.478,406.646 269.5,407.5C 280.113,425.724 289.946,444.391 299,463.5C 306.836,476.509 315.17,489.176 324,501.5C 324.743,505.972 325.91,510.305 327.5,514.5C 324.142,514.385 321.309,512.719 319,509.5C 307.333,494.833 295.667,480.167 284,465.5C 275.6,453.864 269.767,441.031 266.5,427C 266.57,426.235 266.903,425.735 267.5,425.5 Z"/></g>
<g><path style="opacity:1" fill="#0e2f3f" d="M 220.5,523.5 C 218.554,522.746 217.721,521.412 218,519.5C 219.699,520.406 221.533,520.739 223.5,520.5C 223.297,518.61 223.963,517.11 225.5,516C 237.359,512.141 245.193,504.307 249,492.5C 250.369,487.336 251.869,482.336 253.5,477.5C 254.43,481.011 254.097,484.511 252.5,488C 253.01,489.826 253.844,489.993 255,488.5C 258.473,478.61 261.64,468.61 264.5,458.5C 277.402,484.479 289.402,510.979 300.5,538C 289.679,525.071 280.179,510.238 272,493.5C 269.211,485.343 267.211,477.01 266,468.5C 265.394,477.528 265.727,486.528 267,495.5C 273.472,517.583 281.139,539.249 290,560.5C 291.025,571.282 290.359,581.949 288,592.5C 283.477,586.131 278.477,580.131 273,574.5C 259.363,553.866 242.696,536.199 223,521.5C 221.699,521.639 220.866,522.305 220.5,523.5 Z"/></g>
<g><path style="opacity:1" fill="#eeb587" d="M 394.5,477.5 C 396.58,481.202 398.58,485.035 400.5,489C 391.472,494.511 382.472,500.011 373.5,505.5C 373.217,504.711 372.717,504.044 372,503.5C 371.333,498.167 371.333,492.833 372,487.5C 376.553,482.854 382.053,479.688 388.5,478C 390.473,477.505 392.473,477.338 394.5,477.5 Z"/></g>
<g><path style="opacity:1" fill="#0d2e3f" d="M 617.5,475.5 C 618.167,477.5 618.833,479.5 619.5,481.5C 616.916,492.878 613.749,504.212 610,515.5C 608.231,523.107 607.231,530.774 607,538.5C 612.19,523.22 615.857,507.554 618,491.5C 618.71,490.027 619.876,489.36 621.5,489.5C 623.338,493.668 625.005,498.002 626.5,502.5C 624.595,508.443 624.262,514.443 625.5,520.5C 624.303,524.922 622.803,529.256 621,533.5C 609.271,557.291 597.271,580.958 585,604.5C 583.667,605.833 582.333,607.167 581,608.5C 579.595,602.618 577.595,596.951 575,591.5C 575.723,581.937 577.723,572.603 581,563.5C 588.532,539.898 598.199,517.232 610,495.5C 612.071,488.551 614.571,481.885 617.5,475.5 Z"/></g>
<g><path style="opacity:1" fill="#eef5f6" d="M 578.5,437.5 C 578.703,439.39 578.037,440.89 576.5,442C 577.056,442.383 577.389,442.883 577.5,443.5C 570.274,449.273 563.274,455.273 556.5,461.5C 535.312,477.26 514.312,493.26 493.5,509.5C 491.648,508.48 490.315,506.98 489.5,505C 518.806,482.015 548.473,459.515 578.5,437.5 Z"/></g>
<g><path style="opacity:1" fill="#f0f3f5" d="M 629.5,443.5 C 606.376,460.784 583.376,478.284 560.5,496C 543.927,507.871 527.094,519.371 510,530.5C 508.798,528.323 508.298,525.989 508.5,523.5C 522.205,515.307 535.538,506.474 548.5,497C 576.084,475.721 603.417,454.221 630.5,432.5C 644.649,422.252 658.649,411.752 672.5,401C 695,381.167 717.5,361.333 740,341.5C 744.005,335.109 744.505,328.443 741.5,321.5C 737.063,315.614 731.063,312.448 723.5,312C 733.12,309.097 740.62,311.93 746,320.5C 749.926,328.925 749.259,336.925 744,344.5C 707.412,379.607 669.245,412.607 629.5,443.5 Z"/></g>
<g><path style="opacity:1" fill="#e5e0dc" d="M 394.5,477.5 C 392.473,477.338 390.473,477.505 388.5,478C 382.053,479.688 376.553,482.854 372,487.5C 371.333,492.833 371.333,498.167 372,503.5C 372.717,504.044 373.217,504.711 373.5,505.5C 372.603,506.598 371.77,506.598 371,505.5C 368.26,498.232 367.927,490.898 370,483.5C 376.87,477.878 384.703,475.044 393.5,475C 394.252,475.671 394.586,476.504 394.5,477.5 Z"/></g>
<g><path style="opacity:1" fill="#f4b784" d="M 423.5,505.5 C 424.933,506.833 426.267,508.333 427.5,510C 423.578,511.798 419.578,513.298 415.5,514.5C 406.743,515.106 399.076,518.273 392.5,524C 390.5,524.333 388.5,524.667 386.5,525C 385.773,526.399 385.273,527.899 385,529.5C 383.284,530.552 382.284,529.886 382,527.5C 381.95,529.744 381.117,531.411 379.5,532.5C 379.334,526.824 379.501,521.157 380,515.5C 380.786,512.417 382.619,510.251 385.5,509C 392.948,504.352 400.948,501.186 409.5,499.5C 414.085,499.886 417.918,501.886 421,505.5C 421.77,504.402 422.603,504.402 423.5,505.5 Z"/></g>
<g><path style="opacity:1" fill="#f3f4f5" d="M 744.5,573.5 C 741.611,566.095 736.944,559.928 730.5,555C 721.422,546.94 711.088,540.94 699.5,537C 696.5,536.333 693.5,536.333 690.5,537C 684.39,539.402 678.39,541.735 672.5,544C 678.236,539.936 684.236,536.27 690.5,533C 673.5,526.667 656.5,520.333 639.5,514C 634.076,512.475 630.076,509.308 627.5,504.5C 627.167,503.833 626.833,503.167 626.5,502.5C 625.005,498.002 623.338,493.668 621.5,489.5C 620.833,486.833 620.167,484.167 619.5,481.5C 618.833,479.5 618.167,477.5 617.5,475.5C 617.183,472.428 617.516,469.428 618.5,466.5C 624.097,475.359 628.931,484.692 633,494.5C 635.075,498.579 637.908,502.079 641.5,505C 660.018,512.176 678.684,519.176 697.5,526C 718.986,536.502 737.153,551.002 752,569.5C 753.3,572.295 754.8,574.961 756.5,577.5C 756.333,577.833 756.167,578.167 756,578.5C 752.452,576.142 748.619,574.475 744.5,573.5 Z"/></g>
<g><path style="opacity:1" fill="#eadfd7" d="M 423.5,505.5 C 422.603,504.402 421.77,504.402 421,505.5C 417.918,501.886 414.085,499.886 409.5,499.5C 400.948,501.186 392.948,504.352 385.5,509C 382.619,510.251 380.786,512.417 380,515.5C 379.501,521.157 379.334,526.824 379.5,532.5C 375.948,530.213 374.281,526.879 374.5,522.5C 374.292,516.417 376.625,511.584 381.5,508C 390.317,501.921 399.984,498.088 410.5,496.5C 417.087,496.29 421.421,499.29 423.5,505.5 Z"/></g>
<g><path style="opacity:1" fill="#f4b882" d="M 365.5,505.5 C 366.738,507.214 367.405,509.214 367.5,511.5C 367.68,515.847 365.847,519.181 362,521.5C 359.398,525.706 357.064,530.039 355,534.5C 353.266,536.451 351.099,537.451 348.5,537.5C 347.833,536.833 347.167,536.167 346.5,535.5C 344.696,529.282 343.363,522.949 342.5,516.5C 343.427,509.509 347.427,505.343 354.5,504C 358.402,503.112 362.069,503.612 365.5,505.5 Z"/></g>
<g><path style="opacity:1" fill="#08111c" d="M 619.5,481.5 C 620.167,484.167 620.833,486.833 621.5,489.5C 619.876,489.36 618.71,490.027 618,491.5C 615.857,507.554 612.19,523.22 607,538.5C 607.231,530.774 608.231,523.107 610,515.5C 613.749,504.212 616.916,492.878 619.5,481.5 Z"/></g>
<g><path style="opacity:1" fill="#9fb9bf" d="M 626.5,502.5 C 626.833,503.167 627.167,503.833 627.5,504.5C 626.727,509.029 626.06,513.695 625.5,518.5C 625.5,519.167 625.5,519.833 625.5,520.5C 624.262,514.443 624.595,508.443 626.5,502.5 Z"/></g>
<g><path style="opacity:1" fill="#eee3dc" d="M 365.5,505.5 C 362.069,503.612 358.402,503.112 354.5,504C 347.427,505.343 343.427,509.509 342.5,516.5C 343.363,522.949 344.696,529.282 346.5,535.5C 342.254,531.942 340.087,527.276 340,521.5C 338.105,504.394 345.605,497.227 362.5,500C 364.16,501.488 365.16,503.321 365.5,505.5 Z"/></g>
<g><path style="opacity:1" fill="#f2f5f5" d="M 253.5,477.5 C 251.869,482.336 250.369,487.336 249,492.5C 245.193,504.307 237.359,512.141 225.5,516C 223.963,517.11 223.297,518.61 223.5,520.5C 221.533,520.739 219.699,520.406 218,519.5C 217.721,521.412 218.554,522.746 220.5,523.5C 225.167,527.5 229.5,531.833 233.5,536.5C 228.975,533.929 224.308,530.762 219.5,527C 216.056,524.944 212.389,523.444 208.5,522.5C 179.599,528.052 155.099,541.386 135,562.5C 132.096,565.642 130.262,569.309 129.5,573.5C 128.209,573.263 127.209,573.596 126.5,574.5C 123.231,574.884 120.397,576.218 118,578.5C 117.833,578 117.667,577.5 117.5,577C 131.222,551.616 151.555,533.616 178.5,523C 191.199,517.989 204.199,513.989 217.5,511C 225.924,507.714 232.424,502.214 237,494.5C 245.13,476.443 251.464,457.776 256,438.5C 256.328,451.57 255.494,464.57 253.5,477.5 Z"/></g>
<g><path style="opacity:1" fill="#a97461" d="M 367.5,511.5 C 368.041,517.329 368.208,523.329 368,529.5C 369.462,533.458 371.628,536.792 374.5,539.5C 373.964,541.942 373.131,544.275 372,546.5C 362.327,548.417 354.494,545.417 348.5,537.5C 351.099,537.451 353.266,536.451 355,534.5C 357.064,530.039 359.398,525.706 362,521.5C 365.847,519.181 367.68,515.847 367.5,511.5 Z"/></g>
<g><path style="opacity:1" fill="#eae3d9" d="M 450.5,531.5 C 447.342,522.523 441.009,518.689 431.5,520C 420.938,522.797 410.938,526.797 401.5,532C 394.591,537.887 391.258,545.387 391.5,554.5C 391.5,555.167 391.833,555.5 392.5,555.5C 390.97,557.877 389.47,557.877 388,555.5C 385.658,544.511 389.158,536.011 398.5,530C 409.199,523.768 420.533,519.101 432.5,516C 444.712,514.618 452.378,519.951 455.5,532C 453.803,532.384 452.137,532.218 450.5,531.5 Z"/></g>
<g><path style="opacity:1" fill="#0d2f3f" d="M 233.5,536.5 C 234.117,536.389 234.617,536.056 235,535.5C 235.772,536.849 236.939,537.682 238.5,538C 249.893,555.622 259.059,574.455 266,594.5C 267.106,598.122 267.439,601.789 267,605.5C 263.757,612.986 260.257,620.319 256.5,627.5C 244.779,611.265 233.612,594.598 223,577.5C 219.667,573.5 216.333,569.5 213,565.5C 219.758,577.005 226.092,589.005 232,601.5C 231.668,608.517 230.835,615.517 229.5,622.5C 215.842,606.672 202.342,590.672 189,574.5C 195.796,594.194 203.796,613.527 213,632.5C 214.458,634.96 216.291,637.127 218.5,639C 206.833,639.333 195.167,639.667 183.5,640C 168.711,642.031 154.044,644.698 139.5,648C 122.317,649.334 105.151,650.834 88,652.5C 86.6153,652.486 85.4486,652.152 84.5,651.5C 87.6959,646.044 92.3626,642.21 98.5,640C 108.413,638.181 118.413,637.181 128.5,637C 119.531,635.237 110.531,633.737 101.5,632.5C 100.252,629.494 100.252,626.494 101.5,623.5C 104.789,621.377 107.789,619.044 110.5,616.5C 110.47,617.497 110.97,618.164 112,618.5C 128.408,622.729 144.908,626.229 161.5,629C 147.379,621.437 132.712,615.27 117.5,610.5C 119.019,609.59 120.685,608.757 122.5,608C 129.5,607.667 136.5,607.333 143.5,607C 137.484,605.496 131.484,604.83 125.5,605C 131.295,602.683 137.295,602.016 143.5,603C 149.853,604.273 156.186,605.273 162.5,606C 150.78,602.07 138.78,599.403 126.5,598C 123.97,597.109 121.637,595.942 119.5,594.5C 121.744,588.535 126.077,585.202 132.5,584.5C 144.226,585.969 155.892,587.469 167.5,589C 156.847,583.506 145.847,578.84 134.5,575C 131.854,574.503 129.187,574.336 126.5,574.5C 127.209,573.596 128.209,573.263 129.5,573.5C 130.262,569.309 132.096,565.642 135,562.5C 155.099,541.386 179.599,528.052 208.5,522.5C 212.389,523.444 216.056,524.944 219.5,527C 224.308,530.762 228.975,533.929 233.5,536.5 Z"/></g>
<g><path style="opacity:1" fill="#d39a79" d="M 415.5,514.5 C 410.238,516.54 404.904,518.706 399.5,521C 393.889,525.786 387.889,529.953 381.5,533.5C 380.584,533.457 379.917,533.124 379.5,532.5C 381.117,531.411 381.95,529.744 382,527.5C 382.284,529.886 383.284,530.552 385,529.5C 385.273,527.899 385.773,526.399 386.5,525C 388.5,524.667 390.5,524.333 392.5,524C 399.076,518.273 406.743,515.106 415.5,514.5 Z"/></g>
<g><path style="opacity:1" fill="#f0b785" d="M 450.5,531.5 C 445.29,531.609 440.29,532.609 435.5,534.5C 428.391,536.04 421.391,538.206 414.5,541C 406.414,545.034 398.747,549.534 391.5,554.5C 391.258,545.387 394.591,537.887 401.5,532C 410.938,526.797 420.938,522.797 431.5,520C 441.009,518.689 447.342,522.523 450.5,531.5 Z"/></g>
<g><path style="opacity:1" fill="#0e2531" d="M 600.5,482.5 C 601.043,482.56 601.376,482.893 601.5,483.5C 586.797,508.37 569.964,531.703 551,553.5C 550.685,552.092 551.018,550.759 552,549.5C 568.666,527.491 584.832,505.158 600.5,482.5 Z"/></g>
<g><path style="opacity:1" fill="#0d3040" d="M 627.5,504.5 C 630.076,509.308 634.076,512.475 639.5,514C 656.5,520.333 673.5,526.667 690.5,533C 684.236,536.27 678.236,539.936 672.5,544C 678.39,541.735 684.39,539.402 690.5,537C 693.5,536.333 696.5,536.333 699.5,537C 711.088,540.94 721.422,546.94 730.5,555C 736.944,559.928 741.611,566.095 744.5,573.5C 738.038,574.82 731.705,576.653 725.5,579C 717.813,583.117 709.813,586.45 701.5,589C 709.474,588.291 717.474,587.291 725.5,586C 732.167,585.333 738.833,585.333 745.5,586C 747.388,588.19 749.555,590.023 752,591.5C 752.483,592.448 752.649,593.448 752.5,594.5C 749.563,596.656 746.229,598.156 742.5,599C 731.408,599.44 720.741,601.773 710.5,606C 718.416,604.738 726.416,603.571 734.5,602.5C 737.841,602.836 741.175,603.169 744.5,603.5C 739.979,604.828 735.313,605.994 730.5,607C 736.157,607.499 741.824,607.666 747.5,607.5C 750.486,607.903 753.152,608.903 755.5,610.5C 741.709,615.125 728.376,620.959 715.5,628C 717.5,628.667 719.5,628.667 721.5,628C 735.462,624.594 749.129,621.094 762.5,617.5C 765.789,619.616 768.956,621.949 772,624.5C 772.497,627.146 772.664,629.813 772.5,632.5C 763.012,633.026 753.679,634.526 744.5,637C 754.914,637.22 765.248,638.22 775.5,640C 781.229,642.564 785.895,646.397 789.5,651.5C 787.422,652.101 785.255,652.434 783,652.5C 766.514,651.129 750.014,649.963 733.5,649C 707.981,642.06 681.981,638.56 655.5,638.5C 664.042,620.832 670.708,602.832 675.5,584.5C 672.21,588.292 668.71,591.958 665,595.5C 655.853,609.988 645.187,623.321 633,635.5C 630.832,626.98 630.165,618.314 631,609.5C 633.678,598.14 636.011,586.806 638,575.5C 629.362,591.776 621.529,608.442 614.5,625.5C 610.5,624.5 606.5,623.5 602.5,622.5C 606.081,605.517 610.914,588.85 617,572.5C 619.929,559.715 623.263,547.048 627,534.5C 627.667,529.833 627.667,525.167 627,520.5C 626.722,519.584 626.222,518.918 625.5,518.5C 626.06,513.695 626.727,509.029 627.5,504.5 Z"/></g>
<g><path style="opacity:1" fill="#bb7d63" d="M 338.5,535.5 C 339.375,537.568 340.541,539.568 342,541.5C 347.739,545.404 352.239,550.404 355.5,556.5C 346.015,558.816 339.015,564.316 334.5,573C 333.563,573.692 332.897,573.525 332.5,572.5C 327.055,562.799 325.722,552.632 328.5,542C 332.069,540.058 335.402,537.892 338.5,535.5 Z"/></g>
<g><path style="opacity:1" fill="#ba7f60" d="M 435.5,534.5 C 421.562,542.302 407.229,549.302 392.5,555.5C 391.833,555.5 391.5,555.167 391.5,554.5C 398.747,549.534 406.414,545.034 414.5,541C 421.391,538.206 428.391,536.04 435.5,534.5 Z"/></g>
<g><path style="opacity:1" fill="#edb486" d="M 449.5,538.5 C 452.495,540.098 455.329,542.098 458,544.5C 460.729,549.19 462.563,554.19 463.5,559.5C 453.696,554.273 443.362,553.106 432.5,556C 426.091,557.684 419.758,559.518 413.5,561.5C 414.176,559.141 415.009,556.808 416,554.5C 419.969,551.111 424.136,548.111 428.5,545.5C 434.938,541.799 441.938,539.466 449.5,538.5 Z"/></g>
<g><path style="opacity:1" fill="#f3d0ab" d="M 428.5,545.5 C 424.136,548.111 419.969,551.111 416,554.5C 415.009,556.808 414.176,559.141 413.5,561.5C 408.711,564.058 403.711,566.392 398.5,568.5C 397.167,566.833 395.833,565.167 394.5,563.5C 404.98,555.926 416.313,549.926 428.5,545.5 Z"/></g>
<g><path style="opacity:1" fill="#e4dfd8" d="M 449.5,538.5 C 454.223,537.553 458.056,538.886 461,542.5C 464.83,548.66 466.497,555.327 466,562.5C 464.955,561.627 464.122,560.627 463.5,559.5C 462.563,554.19 460.729,549.19 458,544.5C 455.329,542.098 452.495,540.098 449.5,538.5 Z"/></g>
<g><path style="opacity:1" fill="#f1f3f4" d="M 434.5,466.5 C 435.959,466.433 437.292,466.766 438.5,467.5C 442.757,470.251 446.59,473.584 450,477.5C 469.95,504.451 490.283,531.118 511,557.5C 524.39,575.891 537.39,594.557 550,613.5C 550.494,615.134 550.66,616.801 550.5,618.5C 548.064,625.402 545.564,632.402 543,639.5C 542.828,632.987 542.328,626.653 541.5,620.5C 541.108,618.821 540.608,617.154 540,615.5C 521.171,585.675 501.171,556.675 480,528.5C 467.022,506.205 451.856,485.538 434.5,466.5 Z"/></g>
<g><path style="opacity:1" fill="#f1e9e0" d="M 338.5,535.5 C 335.402,537.892 332.069,540.058 328.5,542C 325.722,552.632 327.055,562.799 332.5,572.5C 328.088,570.582 325.254,567.249 324,562.5C 317.599,546.569 322.432,536.569 338.5,532.5C 338.5,533.5 338.5,534.5 338.5,535.5 Z"/></g>
<g><path style="opacity:1" fill="#0b2e3e" d="M 354.5,613.5 C 355.079,610.669 356.412,608.336 358.5,606.5C 368.302,597.867 377.969,589.033 387.5,580C 398.965,573.268 410.965,567.602 423.5,563C 431.786,561.546 440.119,561.213 448.5,562C 454.843,564.355 460.009,568.189 464,573.5C 464.667,575.833 464.667,578.167 464,580.5C 463.439,581.022 462.772,581.355 462,581.5C 456.919,575.211 450.419,571.378 442.5,570C 422.966,570.066 404.966,575.399 388.5,586C 376.74,595.089 365.573,604.922 355,615.5C 354.536,614.906 354.369,614.239 354.5,613.5 Z"/></g>
<g><path style="opacity:1" fill="#b57962" d="M 350.5,565.5 C 352.911,565.137 354.411,566.137 355,568.5C 355.653,572.875 354.487,576.708 351.5,580C 344.718,581.875 341.552,579.375 342,572.5C 344.257,569.312 347.09,566.978 350.5,565.5 Z"/></g>
<g><path style="opacity:1" fill="#ebeded" d="M 358.5,606.5 C 356.412,608.336 355.079,610.669 354.5,613.5C 349.393,623.082 346.726,633.415 346.5,644.5C 345.674,649.316 345.174,654.316 345,659.5C 342.495,657.676 340.995,655.343 340.5,652.5C 339.02,628.766 346.52,608.433 363,591.5C 370.197,583.969 377.697,576.802 385.5,570C 387.134,569.506 388.801,569.34 390.5,569.5C 390.657,570.873 390.49,572.207 390,573.5C 376.886,582.111 366.386,593.111 358.5,606.5 Z"/></g>
<g><path style="opacity:1" fill="#f0f3f4" d="M 752.5,594.5 C 760.431,603.604 768.598,612.604 777,621.5C 777.897,624.49 778.731,627.49 779.5,630.5C 787.661,636.496 793.661,644.163 797.5,653.5C 794.355,654.673 791.688,654.006 789.5,651.5C 785.895,646.397 781.229,642.564 775.5,640C 765.248,638.22 754.914,637.22 744.5,637C 753.679,634.526 763.012,633.026 772.5,632.5C 772.664,629.813 772.497,627.146 772,624.5C 768.956,621.949 765.789,619.616 762.5,617.5C 762.167,613.167 759.833,610.833 755.5,610.5C 753.152,608.903 750.486,607.903 747.5,607.5C 747.082,606.778 746.416,606.278 745.5,606C 747.742,604.993 747.408,604.159 744.5,603.5C 741.175,603.169 737.841,602.836 734.5,602.5C 726.416,603.571 718.416,604.738 710.5,606C 720.741,601.773 731.408,599.44 742.5,599C 746.229,598.156 749.563,596.656 752.5,594.5 Z"/></g>
<g><path style="opacity:1" fill="#bdc0c7" d="M 744.5,603.5 C 747.408,604.159 747.742,604.993 745.5,606C 746.416,606.278 747.082,606.778 747.5,607.5C 741.824,607.666 736.157,607.499 730.5,607C 735.313,605.994 739.979,604.828 744.5,603.5 Z"/></g>
<g><path style="opacity:1" fill="#edf1f3" d="M 119.5,594.5 C 121.637,595.942 123.97,597.109 126.5,598C 138.78,599.403 150.78,602.07 162.5,606C 156.186,605.273 149.853,604.273 143.5,603C 137.295,602.016 131.295,602.683 125.5,605C 131.484,604.83 137.484,605.496 143.5,607C 136.5,607.333 129.5,607.667 122.5,608C 120.685,608.757 119.019,609.59 117.5,610.5C 113.599,610.915 111.266,612.915 110.5,616.5C 107.789,619.044 104.789,621.377 101.5,623.5C 100.252,626.494 100.252,629.494 101.5,632.5C 110.531,633.737 119.531,635.237 128.5,637C 118.413,637.181 108.413,638.181 98.5,640C 92.3626,642.21 87.6959,646.044 84.5,651.5C 81.7413,653.608 78.7413,654.275 75.5,653.5C 79.8772,644.755 85.7106,637.089 93,630.5C 93.9603,626.702 95.2936,623.035 97,619.5C 105.454,611.849 112.954,603.515 119.5,594.5 Z"/></g>
<g><path style="opacity:1" fill="#050b17" d="M 117.5,610.5 C 132.712,615.27 147.379,621.437 161.5,629C 144.908,626.229 128.408,622.729 112,618.5C 110.97,618.164 110.47,617.497 110.5,616.5C 111.266,612.915 113.599,610.915 117.5,610.5 Z"/></g>
<g><path style="opacity:1" fill="#27535d" d="M 331.5,679.5 C 325.319,687.512 317.986,694.345 309.5,700C 292.889,708.97 275.556,716.303 257.5,722C 270.279,720.578 282.946,718.245 295.5,715C 298.039,714.204 300.372,714.371 302.5,715.5C 279.483,723.45 256.316,731.117 233,738.5C 231.395,737.899 230.062,736.899 229,735.5C 219.813,721.776 210.646,708.109 201.5,694.5C 199.837,688.508 198.17,682.508 196.5,676.5C 235.963,666.431 271.963,649.431 304.5,625.5C 308.877,622.982 313.544,620.982 318.5,619.5C 311.93,630.164 310.763,641.498 315,653.5C 314.157,641.224 316.324,629.557 321.5,618.5C 323.774,616.642 326.274,616.309 329,617.5C 327.75,638.246 328.583,658.913 331.5,679.5 Z"/></g>
<g><path style="opacity:1" fill="#050a17" d="M 755.5,610.5 C 759.833,610.833 762.167,613.167 762.5,617.5C 749.129,621.094 735.462,624.594 721.5,628C 719.5,628.667 717.5,628.667 715.5,628C 728.376,620.959 741.709,615.125 755.5,610.5 Z"/></g>
<g><path style="opacity:1" fill="#e4edee" d="M 321.5,618.5 C 316.324,629.557 314.157,641.224 315,653.5C 310.763,641.498 311.93,630.164 318.5,619.5C 319.391,618.89 320.391,618.557 321.5,618.5 Z"/></g>
<g><path style="opacity:1" fill="#28525d" d="M 565.5,618.5 C 567.935,624.577 569.268,630.911 569.5,637.5C 568.89,644.923 568.057,652.257 567,659.5C 571.413,649.603 574.246,639.27 575.5,628.5C 594.517,640.679 614.184,651.846 634.5,662C 649.648,669.62 665.648,674.12 682.5,675.5C 681.708,680.542 680.708,685.542 679.5,690.5C 669.29,707.068 657.956,722.901 645.5,738C 643.833,738.667 642.167,738.667 640.5,738C 620.35,731.416 600.35,724.582 580.5,717.5C 581.622,716.844 582.955,716.511 584.5,716.5C 595.132,718.551 605.799,720.051 616.5,721C 590.778,712.228 567.945,698.728 548,680.5C 546.097,678.559 545.264,676.226 545.5,673.5C 549.658,663.849 553.824,654.182 558,644.5C 561.029,636.414 563.029,628.08 564,619.5C 564.383,618.944 564.883,618.611 565.5,618.5 Z"/></g>
<g><path style="opacity:1" fill="#244b56" d="M 550.5,618.5 C 551.575,630.032 549.408,641.032 544,651.5C 535.217,671.069 524.884,689.735 513,707.5C 512.798,702.75 513.465,698.083 515,693.5C 523.685,669.612 531.851,645.612 539.5,621.5C 540.492,621.672 541.158,621.338 541.5,620.5C 542.328,626.653 542.828,632.987 543,639.5C 545.564,632.402 548.064,625.402 550.5,618.5 Z"/></g>
<g><path style="opacity:1" fill="#f2f5f5" d="M 304.5,625.5 C 271.963,649.431 235.963,666.431 196.5,676.5C 198.17,682.508 199.837,688.508 201.5,694.5C 194.699,686.256 188.366,677.589 182.5,668.5C 202.926,664.56 222.926,659.06 242.5,652C 263.536,643.981 284.203,635.147 304.5,625.5 Z"/></g>
<g><path style="opacity:1" fill="#f1f5f5" d="M 565.5,618.5 C 605.484,642.987 648.484,659.987 694.5,669.5C 689.831,676.82 684.831,683.82 679.5,690.5C 680.708,685.542 681.708,680.542 682.5,675.5C 665.648,674.12 649.648,669.62 634.5,662C 614.184,651.846 594.517,640.679 575.5,628.5C 574.246,639.27 571.413,649.603 567,659.5C 568.057,652.257 568.89,644.923 569.5,637.5C 569.268,630.911 567.935,624.577 565.5,618.5 Z"/></g>
<g><path style="opacity:1" fill="#325c61" d="M 346.5,644.5 C 346.403,660.253 347.236,675.919 349,691.5C 344.605,678.821 341.772,665.821 340.5,652.5C 340.995,655.343 342.495,657.676 345,659.5C 345.174,654.316 345.674,649.316 346.5,644.5 Z"/></g>
<g><path style="opacity:1" fill="#0a2335" d="M 545.5,673.5 C 545.264,676.226 546.097,678.559 548,680.5C 567.945,698.728 590.778,712.228 616.5,721C 605.799,720.051 595.132,718.551 584.5,716.5C 582.955,716.511 581.622,716.844 580.5,717.5C 564.28,712.024 547.946,706.69 531.5,701.5C 535.654,691.858 540.321,682.525 545.5,673.5 Z"/></g>
<g><path style="opacity:1" fill="#0a2334" d="M 331.5,679.5 C 334.16,686.634 335.66,693.967 336,701.5C 325.319,707.427 314.153,712.093 302.5,715.5C 300.372,714.371 298.039,714.204 295.5,715C 282.946,718.245 270.279,720.578 257.5,722C 275.556,716.303 292.889,708.97 309.5,700C 317.986,694.345 325.319,687.512 331.5,679.5 Z"/></g>
<g><path style="opacity:1" fill="#222235" d="M 451.5,690.5 C 452.552,690.351 453.552,690.517 454.5,691C 472.281,708.737 489.948,726.57 507.5,744.5C 496.828,755.172 485.828,765.505 474.5,775.5C 455.953,758.121 438.286,739.954 421.5,721C 431.648,711.019 441.648,700.852 451.5,690.5 Z"/></g>
<g><path style="opacity:1" fill="#222135" d="M 525.5,710.5 C 528.568,710.547 531.568,711.047 534.5,712C 563.797,727.482 593.464,742.149 623.5,756C 613.529,757.332 603.529,757.665 593.5,757C 568.443,745.639 544.11,732.972 520.5,719C 519.549,718.282 519.383,717.449 520,716.5C 521.626,714.195 523.46,712.195 525.5,710.5 Z"/></g>
<g><path style="opacity:1" fill="#222235" d="M 404.5,721.5 C 424.487,741.155 443.82,761.488 462.5,782.5C 444.189,801.977 425.022,820.643 405,838.5C 396.253,834.083 387.753,829.25 379.5,824C 362.167,812.667 344.833,801.333 327.5,790C 336.981,782.02 346.315,773.853 355.5,765.5C 368.199,772.511 380.532,780.011 392.5,788C 395.058,789.626 397.725,790.626 400.5,791C 387.705,781.37 375.372,771.203 363.5,760.5C 377.391,747.724 391.057,734.724 404.5,721.5 Z"/></g>
<g><path style="opacity:1" fill="#232235" d="M 347.5,709.5 C 352.102,709.384 355.935,711.051 359,714.5C 359.667,715.5 359.667,716.5 359,717.5C 335.467,732.342 310.967,745.509 285.5,757C 274.167,759 262.833,759 251.5,757C 278.378,744.895 305.045,732.229 331.5,719C 337.244,716.4 342.578,713.233 347.5,709.5 Z"/></g>
<g><path style="opacity:1" fill="#222235" d="M 515.5,749.5 C 529.86,760.014 543.527,771.514 556.5,784C 542.184,795.145 527.184,805.312 511.5,814.5C 505.686,809.854 500.02,805.021 494.5,800C 489.786,795.622 485.453,790.956 481.5,786C 493.026,773.975 504.359,761.809 515.5,749.5 Z"/></g>
<g><path style="opacity:1" fill="#212135" d="M 464.5,800.5 C 465.922,800.709 467.255,801.209 468.5,802C 475.946,810.779 484.112,818.946 493,826.5C 493.667,827.167 493.667,827.833 493,828.5C 479.945,837.302 465.779,843.802 450.5,848C 441.002,849.059 431.668,848.393 422.5,846C 437.124,831.218 451.124,816.051 464.5,800.5 Z"/></g>
</svg>
